<?xml version="1.0" encoding="utf-8"?>
<!-- Generator: Adobe Illustrator 25.4.1, SVG Export Plug-In . SVG Version: 6.00 Build 0)  -->
<svg version="1.1" id="Capa_1" xmlns="http://www.w3.org/2000/svg" xmlns:xlink="http://www.w3.org/1999/xlink" x="0px" y="0px"
	 viewBox="0 0 100 100" style="enable-background:new 0 0 100 100;" xml:space="preserve">
<style type="text/css">
	.st0{fill:#FFCA28;}
</style>
<g>
	<g>
		<path class="st0" d="M50,63.5c-4.4,0-8,3.6-8,8c0,1.9,1.5,3.4,3.4,3.4s3.4-1.5,3.4-3.4c0-0.7,0.6-1.2,1.2-1.2
			c0.7,0,1.2,0.6,1.2,1.2c0,1.9,1.5,3.4,3.4,3.4s3.4-1.5,3.4-3.4C58,67.1,54.4,63.5,50,63.5z"/>
		<ellipse class="st0" cx="34.5" cy="51.5" rx="11.1" ry="11.1"/>
		<ellipse class="st0" cx="65.5" cy="51.5" rx="11.1" ry="11.1"/>
		<path class="st0" d="M89.9,42.8c0-5.3-1-10.5-3.1-15.4c-2-4.7-4.8-8.9-8.5-12.6c-3.6-3.6-7.9-6.5-12.6-8.5
			c-4.9-2.1-10.1-3.1-15.4-3.1h-0.7c-5.3,0-10.5,1-15.4,3.1c-4.7,2-8.9,4.8-12.6,8.5c-3.6,3.6-6.5,7.9-8.5,12.6
			C11,32.3,10,37.5,10,42.8v0.7c0,8.4,2.7,16.6,7.6,23.3c-1.4,1.7-2.2,3.8-2.2,6.1V73c0,5.3,4.3,9.7,9.7,9.7h3.4v10.7
			c0,1.9,1.5,3.4,3.4,3.4H68c1.9,0,3.4-1.5,3.4-3.4V82.7h3.4c5.3,0,9.7-4.3,9.7-9.7v-0.1c0-2.3-0.8-4.4-2.2-6.1
			c4.9-6.7,7.6-14.9,7.6-23.3V42.8z M83.2,43.5c0,7.9-2.9,15.6-8.1,21.6c-0.7,0.8-1,1.8-0.8,2.9c0.2,1,0.9,1.9,1.8,2.4
			c1,0.5,1.6,1.5,1.6,2.6l0,0c0,1.6-1.3,2.9-2.9,2.9H68c-1.9,0-3.4,1.5-3.4,3.4V90h-6.2v-4.3c0-1.5-1.3-2.8-2.8-2.8
			s-2.8,1.3-2.8,2.8V90h-5.7v-4.3c0-1.5-1.3-2.8-2.8-2.8s-2.8,1.3-2.8,2.8V90h-6.2V79.4c0-1.9-1.5-3.4-3.4-3.4h-6.8
			c-1.6,0-2.9-1.3-2.9-2.9V73c0-1.1,0.6-2.1,1.6-2.6c0.9-0.5,1.6-1.3,1.8-2.4c0.2-1-0.1-2.1-0.8-2.9c-5.2-6-8.1-13.6-8.1-21.6v-0.7
			c0-8.8,3.4-17,9.6-23.2S40.8,10,49.5,10h0.7c8.8,0,17,3.4,23.2,9.6c6.2,6.2,9.6,14.5,9.6,23.2v0.7H83.2z"/>
	</g>
</g>
</svg>
