<?xml version="1.0" encoding="utf-8"?>
<!-- Generator: Adobe Illustrator 24.0.1, SVG Export Plug-In . SVG Version: 6.00 Build 0)  -->
<svg version="1.1" id="Capa_1" xmlns="http://www.w3.org/2000/svg" xmlns:xlink="http://www.w3.org/1999/xlink" x="0px" y="0px"
	 viewBox="0 0 1120.5 643.8" style="enable-background:new 0 0 1120.5 643.8;" xml:space="preserve">
<style type="text/css">
	.st0{fill:#151718;}
	.st1{clip-path:url(#SVGID_2_);}
	.st2{fill:#FF5F56;}
	.st3{fill:none;stroke:#E0443E;}
	.st4{fill:#FFBD2E;}
	.st5{fill:none;stroke:#DEA123;}
	.st6{fill:#27C93F;}
	.st7{fill:none;stroke:#1AAB29;}
	.st8{fill:#FFFFFF;}
	.st9{fill:#55B5DB;}
	.st10{fill:#FF812D;}
	.st11{fill:#FFB17D;}
	.st12{fill-rule:evenodd;clip-rule:evenodd;}
	.st13{fill:#999999;}
	.st14{fill:#F2F2F2;}
	.st15{fill:#E7AAAA;}
	.st16{fill:#F8E8E8;}
	.st17{fill:#DE8A8A;}
	.st18{fill:#9D5A2B;}
	.st19{fill:#DFAC89;}
	.st20{fill:#CE804A;}
	.st21{fill:#502600;}
</style>
<g id="Capa_2_00000160907586418432806230000014452626481949479329_">
	<path class="st0" d="M44.5,0H1076c24.6,0,44.5,19.9,44.5,44.5v554.9c0,24.6-19.9,44.5-44.5,44.5H44.5C19.9,643.8,0,623.9,0,599.3
		V44.5C0,19.9,19.9,0,44.5,0z"/>
	<g>
		<g>
			<g>
				<defs>
					<rect id="SVGID_1_" x="40.7" y="34" width="97.3" height="25.2"/>
				</defs>
				<clipPath id="SVGID_2_">
					<use xlink:href="#SVGID_1_"  style="overflow:visible;"/>
				</clipPath>
				<g class="st1">
					<path class="st2" d="M64.1,46.6c0,0.7-0.1,1.4-0.2,2.1c-0.1,0.7-0.4,1.4-0.6,2C62.8,52,62,53.2,61,54.2c-0.5,0.5-1.1,1-1.6,1.3
						c-0.6,0.4-1.2,0.7-1.9,1c-0.6,0.3-1.3,0.5-2,0.6c-1.4,0.3-2.8,0.3-4.2,0c-0.7-0.1-1.4-0.3-2-0.6c-0.7-0.3-1.3-0.6-1.9-1
						c-0.6-0.4-1.1-0.8-1.6-1.3s-1-1-1.3-1.6c-0.4-0.6-0.7-1.2-1-1.9c-0.3-0.6-0.5-1.3-0.6-2c-0.3-1.4-0.3-2.8,0-4.2
						c0.1-0.7,0.3-1.4,0.6-2c0.3-0.7,0.6-1.3,1-1.9c0.4-0.6,0.8-1.1,1.2-1.7c1-1,2.2-1.8,3.5-2.3c0.6-0.3,1.3-0.5,2-0.6
						c1.4-0.3,2.8-0.3,4.2,0c0.7,0.1,1.4,0.4,2,0.6c0.7,0.3,1.3,0.6,1.9,1c1.2,0.8,2.2,1.8,3,3c0.4,0.6,0.7,1.2,1,1.9
						c0.3,0.6,0.5,1.3,0.6,2S64.1,45.9,64.1,46.6z"/>
					<path class="st3" d="M64.1,46.6c0,0.7-0.1,1.4-0.2,2.1c-0.1,0.7-0.4,1.4-0.6,2C62.8,52,62,53.2,61,54.2c-0.5,0.5-1.1,1-1.6,1.3
						c-0.6,0.4-1.2,0.7-1.9,1c-0.6,0.3-1.3,0.5-2,0.6c-1.4,0.3-2.8,0.3-4.2,0c-0.7-0.1-1.4-0.3-2-0.6c-0.7-0.3-1.3-0.6-1.9-1
						c-0.6-0.4-1.1-0.8-1.6-1.3s-1-1-1.3-1.6c-0.4-0.6-0.7-1.2-1-1.9c-0.3-0.6-0.5-1.3-0.6-2c-0.3-1.4-0.3-2.8,0-4.2
						c0.1-0.7,0.3-1.4,0.6-2c0.3-0.7,0.6-1.3,1-1.9c0.4-0.6,0.8-1.1,1.2-1.7c1-1,2.2-1.8,3.5-2.3c0.6-0.3,1.3-0.5,2-0.6
						c1.4-0.3,2.8-0.3,4.2,0c0.7,0.1,1.4,0.4,2,0.6c0.7,0.3,1.3,0.6,1.9,1c1.2,0.8,2.2,1.8,3,3c0.4,0.6,0.7,1.2,1,1.9
						c0.3,0.6,0.5,1.3,0.6,2S64.1,45.9,64.1,46.6z"/>
					<path class="st4" d="M100.1,46.6c0,0.7-0.1,1.4-0.2,2.1c-0.1,0.7-0.3,1.4-0.6,2c-0.8,2-2.2,3.7-4,4.8c-0.6,0.4-1.2,0.7-1.9,1
						c-0.6,0.3-1.3,0.5-2,0.6c-1.4,0.3-2.8,0.3-4.2,0c-0.7-0.1-1.4-0.3-2-0.6s-1.3-0.6-1.9-1c-1.8-1.2-3.2-2.9-4-4.8
						c-0.3-0.6-0.5-1.3-0.6-2c-0.3-1.4-0.3-2.8,0-4.2c0.1-0.7,0.3-1.4,0.6-2c0.3-0.7,0.6-1.3,1-1.9c0.4-0.6,0.8-1.1,1.3-1.6
						s1-0.9,1.6-1.3c0.6-0.4,1.2-0.7,1.9-1c0.6-0.3,1.3-0.5,2-0.6c1.4-0.3,2.8-0.3,4.2,0c0.7,0.1,1.4,0.4,2,0.6
						c0.7,0.3,1.3,0.6,1.9,1s1.2,0.8,1.7,1.3s1,1.1,1.3,1.6c0.4,0.6,0.7,1.2,1,1.9c0.3,0.6,0.5,1.3,0.6,2
						C100.1,45.2,100.2,45.9,100.1,46.6z"/>
					<path class="st5" d="M100.1,46.6c0,0.7-0.1,1.4-0.2,2.1c-0.1,0.7-0.3,1.4-0.6,2c-0.8,2-2.2,3.7-4,4.8c-0.6,0.4-1.2,0.7-1.9,1
						c-0.6,0.3-1.3,0.5-2,0.6c-1.4,0.3-2.8,0.3-4.2,0c-0.7-0.1-1.4-0.3-2-0.6s-1.3-0.6-1.9-1c-1.8-1.2-3.2-2.9-4-4.8
						c-0.3-0.6-0.5-1.3-0.6-2c-0.3-1.4-0.3-2.8,0-4.2c0.1-0.7,0.3-1.4,0.6-2c0.3-0.7,0.6-1.3,1-1.9c0.4-0.6,0.8-1.1,1.3-1.6
						s1-0.9,1.6-1.3c0.6-0.4,1.2-0.7,1.9-1c0.6-0.3,1.3-0.5,2-0.6c1.4-0.3,2.8-0.3,4.2,0c0.7,0.1,1.4,0.4,2,0.6
						c0.7,0.3,1.3,0.6,1.9,1s1.2,0.8,1.7,1.3s1,1.1,1.3,1.6c0.4,0.6,0.7,1.2,1,1.9c0.3,0.6,0.5,1.3,0.6,2
						C100.1,45.2,100.2,45.9,100.1,46.6z"/>
					<path class="st6" d="M136.2,46.6c0,0.7-0.1,1.4-0.2,2.1c-0.1,0.7-0.3,1.4-0.6,2c-0.3,0.7-0.6,1.3-1,1.9
						c-0.4,0.6-0.8,1.2-1.3,1.7s-1,1-1.6,1.3c-0.6,0.4-1.2,0.7-1.9,1c-0.6,0.3-1.3,0.5-2,0.6c-1.4,0.3-2.8,0.3-4.2,0
						c-0.7-0.1-1.4-0.3-2-0.6c-0.7-0.3-1.3-0.6-1.9-1s-1.1-0.8-1.6-1.3c-1-1-1.8-2.2-2.3-3.5c-0.3-0.6-0.5-1.3-0.6-2
						c-0.3-1.4-0.3-2.8,0-4.2c0.1-0.7,0.4-1.4,0.6-2c0.3-0.7,0.6-1.3,1-1.9c0.8-1.2,1.8-2.2,3-3c0.6-0.4,1.2-0.7,1.9-1
						c0.6-0.3,1.3-0.5,2-0.6c1.4-0.3,2.8-0.3,4.2,0c0.7,0.1,1.4,0.4,2,0.6c2,0.8,3.7,2.2,4.9,4c0.4,0.6,0.7,1.2,1,1.9
						c0.3,0.6,0.5,1.3,0.6,2C136.1,45.2,136.2,45.9,136.2,46.6z"/>
					<path class="st7" d="M136.2,46.6c0,0.7-0.1,1.4-0.2,2.1c-0.1,0.7-0.3,1.4-0.6,2c-0.3,0.7-0.6,1.3-1,1.9
						c-0.4,0.6-0.8,1.2-1.3,1.7s-1,1-1.6,1.3c-0.6,0.4-1.2,0.7-1.9,1c-0.6,0.3-1.3,0.5-2,0.6c-1.4,0.3-2.8,0.3-4.2,0
						c-0.7-0.1-1.4-0.3-2-0.6c-0.7-0.3-1.3-0.6-1.9-1s-1.1-0.8-1.6-1.3c-1-1-1.8-2.2-2.3-3.5c-0.3-0.6-0.5-1.3-0.6-2
						c-0.3-1.4-0.3-2.8,0-4.2c0.1-0.7,0.4-1.4,0.6-2c0.3-0.7,0.6-1.3,1-1.9c0.8-1.2,1.8-2.2,3-3c0.6-0.4,1.2-0.7,1.9-1
						c0.6-0.3,1.3-0.5,2-0.6c1.4-0.3,2.8-0.3,4.2,0c0.7,0.1,1.4,0.4,2,0.6c2,0.8,3.7,2.2,4.9,4c0.4,0.6,0.7,1.2,1,1.9
						c0.3,0.6,0.5,1.3,0.6,2C136.1,45.2,136.2,45.9,136.2,46.6z"/>
				</g>
			</g>
		</g>
	</g>
</g>
<g id="Capa_5">
	<path class="st8" d="M294.9,358.5c-3.2,0-5.8,2.6-5.8,5.8c-0.1,1.4,1,2.5,2.3,2.6c1.4,0.1,2.5-1,2.6-2.3c0-0.1,0-0.2,0-0.3
		c-0.1-0.5,0.3-0.9,0.8-1s0.9,0.3,1,0.8c0,0.1,0,0.1,0,0.2c0,1.4,1.1,2.5,2.5,2.5s2.5-1.1,2.5-2.5
		C300.8,361.1,298.1,358.5,294.9,358.5L294.9,358.5z"/>
	<circle class="st8" cx="283.6" cy="349.8" r="8.1"/>
	<circle class="st8" cx="306.2" cy="349.8" r="8.1"/>
	<path class="st8" d="M324,343.5c0-3.9-0.8-7.7-2.3-11.2c-1.5-3.4-3.6-6.6-6.2-9.2s-5.8-4.7-9.2-6.2c-3.5-1.5-7.4-2.3-11.2-2.3h-0.5
		c-3.9,0-7.7,0.8-11.2,2.3c-3.4,1.4-6.6,3.5-9.2,6.1s-4.7,5.8-6.2,9.2c-1.5,3.5-2.3,7.4-2.3,11.2v0.6c0,6.1,1.9,12.1,5.5,17
		c-1,1.2-1.6,2.8-1.6,4.5v0.1c0,3.9,3.2,7.1,7.1,7.1h2.5v7.8c0,1.4,1.1,2.5,2.4,2.5c0,0,0,0,0.1,0H308c1.4,0,2.5-1.1,2.5-2.4
		c0,0,0,0,0-0.1v-7.8h2.5c3.9,0,7.1-3.2,7.1-7.1v-0.1c0-1.6-0.6-3.2-1.6-4.5c3.6-4.9,5.5-10.9,5.5-17V343.5z M319.1,344
		c0,5.8-2.1,11.4-5.9,15.7c-0.5,0.6-0.7,1.4-0.6,2.1c0.2,0.7,0.6,1.4,1.3,1.8c0.7,0.4,1.2,1.1,1.2,1.9l0,0c0,1.2-0.9,2.1-2.1,2.1h-5
		c-1.4,0-2.5,1.1-2.5,2.4l0,0v7.8H301v-3.1c0-1.1-0.9-2-2-2s-2,0.9-2,2v3.1h-4.2v-3.1c0-1.1-0.9-2-2-2s-2,0.9-2,2v3.1h-4.5v-7.7
		c0-1.4-1.1-2.5-2.4-2.5l0,0h-5c-1.2,0-2.1-0.9-2.1-2.1v-0.1c0-0.8,0.4-1.5,1.2-1.9c1.2-0.6,1.7-2.1,1.1-3.3
		c-0.1-0.2-0.2-0.4-0.4-0.5c-3.8-4.4-5.9-10-5.9-15.7v-0.5c0-13.2,10.7-23.9,23.9-23.9l0,0h0.5c13.2,0,23.9,10.7,23.9,23.8
		c0,0,0,0,0,0.1V344L319.1,344z"/>
	<path class="st8" d="M249.9,375.9l-5.9,5.9l-36.2-30.2l36.2-30.2l5.9,6l-29.4,24.1L249.9,375.9z"/>
	<path class="st8" d="M373.8,304.8l-37,87.7h-8.9l37-87.7H373.8z"/>
	<path class="st8" d="M393.6,327.4l5.8-6l36.2,30.2l-36.2,30.2l-5.8-5.9l29.4-24.2L393.6,327.4z"/>
	<path class="st9" d="M589.8,343.2l-28.3-28.3c-2.8-3.3-7.7-3.6-11-0.8c-3.3,2.8-3.6,7.7-0.8,11c0.3,0.3,0.5,0.6,0.8,0.8l15,15
		h-44.2c-4.3-0.2-7.9,3.2-8.1,7.5c-0.2,4.3,3.2,7.9,7.5,8.1c0.2,0,0.4,0,0.6,0h44.1l-15,15c-3.3,2.8-3.6,7.7-0.8,11s7.7,3.6,11,0.8
		c0.3-0.3,0.6-0.5,0.8-0.8l28.3-28.3C592.8,351.2,592.8,346.2,589.8,343.2z"/>
	<path class="st10" d="M717.1,317.9l-5.9,5.9L675,293.6l36.2-30.2l5.9,6l-29.4,24.1L717.1,317.9z"/>
	<path class="st10" d="M841.1,246.9l-37,87.7h-8.9l37-87.7L841.1,246.9z"/>
	<path class="st10" d="M860.9,269.4l5.8-6l36.2,30.2l-36.2,30.2l-5.8-5.9l29.4-24.2L860.9,269.4z"/>
	<g id="g4224">
		<g id="g4396">
			<path id="path4398" class="st10" d="M783.4,265.7c8.4,0,15.3,6.9,15.2,15.3c0,5.1-2.6,9.8-6.8,12.7c0,0.6,0.1,1.2,0.1,1.8
				c0.3,16.5-12.8,30-29.2,30.3c-16.5,0.3-30-12.8-30.3-29.2c0-0.4,0-0.7,0-1.1c0-0.6,0-1.2,0.1-1.8c-7-4.7-8.9-14.2-4.3-21.2
				c2.8-4.3,7.6-6.8,12.7-6.8l0,0c3.1,0,6.2,1,8.8,2.8c7.9-3.7,17.1-3.7,25,0C777.2,266.6,780.3,265.7,783.4,265.7z"/>
			<path id="path4400" class="st11" d="M784.1,268.6c6.7,0,12.1,5.4,12.1,12.1c0,4.1-2,7.8-5.4,10.1c-0.5-8.7-5.7-16.4-13.6-20
				C779.2,269.4,781.6,268.6,784.1,268.6z"/>
			<path id="path4402" class="st11" d="M740,268.6c-6.7,0-12.1,5.4-12.1,12.1c0,4.1,2,7.8,5.4,10.1c0.5-8.7,5.7-16.3,13.6-20
				C745,269.4,742.5,268.6,740,268.6z"/>
		</g>
		<path id="path4431" class="st12" d="M760.6,265.7l0.2,4.2l-11.3,0.9l0,0l11.4,0.7l0.1,2.7l-14,1l0,0l14.1,0.8l0.1,2.8l-19.1,1.3
			l0,0l19.3,0.5L762,295v0.1l0.6-14.5l19.3-0.5l0,0l-19.1-1.3l0.1-2.8l14.1-0.8l0,0l-14-1l0.1-2.7l11.4-0.7l0,0l-11.2-0.9l0.2-4.2
			H760.6z"/>
		<path id="path4283" d="M762.1,307.5l-4.5-4.2l-4.4-4.2c5.5-3.1,12.2-3.1,17.8,0l-4.4,4.2L762.1,307.5z"/>
	</g>
	<path class="st13" d="M717.1,433.9l-5.9,5.9L675,409.6l36.2-30.2l5.9,6l-29.4,24.1L717.1,433.9z"/>
	<path class="st13" d="M841.1,362.8l-37,87.7h-8.9l37-87.7H841.1z"/>
	<path class="st13" d="M860.9,385.3l5.8-6l36.2,30.2l-36.2,30.2l-5.8-5.9l29.4-24.2L860.9,385.3z"/>
	<g id="g4218">
		<path id="path4196" class="st14" d="M783.4,380.6c8.4,0,15.3,6.9,15.2,15.3c0,5.1-2.6,9.8-6.8,12.7c0,0.6,0.1,1.2,0.1,1.8
			c0,9.2,15.7,29.8-29.8,29.8s-29.8-20.6-29.8-29.8c0-0.6,0-1.2,0.1-1.8c-7.1-4.6-9-14.1-4.4-21.2s14.1-9,21.2-4.4
			c0.2,0.1,0.3,0.2,0.5,0.3c7.9-3.7,17.1-3.7,25,0C777.2,381.5,780.3,380.5,783.4,380.6L783.4,380.6z"/>
		<path id="path4198" class="st13" d="M784.1,383.5c6.7,0,12.1,5.4,12.1,12.1c0,4.1-2,7.8-5.4,10.1c-0.5-8.7-5.7-16.4-13.6-20
			C779.2,384.3,781.6,383.5,784.1,383.5z"/>
		<path id="path4200" class="st13" d="M740,383.5c-6.7,0-12.1,5.4-12.1,12.1c0,4.1,2,7.8,5.4,10.1c0.5-8.7,5.7-16.3,13.6-20
			C745,384.2,742.5,383.5,740,383.5L740,383.5z"/>
		<path id="path4212" d="M762.1,422.4l-4.5-4.2l-4.4-4.2c5.5-3.1,12.2-3.1,17.8,0l-4.4,4.2L762.1,422.4z"/>
	</g>
	<path class="st15" d="M717.1,549.8l-5.9,5.9L675,525.5l36.2-30.2l5.9,6l-29.4,24.1L717.1,549.8z"/>
	<path class="st15" d="M841.1,478.7l-37,87.7h-8.9l37-87.7H841.1z"/>
	<path class="st15" d="M860.9,501.3l5.8-6l36.2,30.2l-36.2,30.2l-5.8-5.9l29.4-24.2L860.9,501.3z"/>
	<g id="g4362">
		<path id="path4165" class="st15" d="M723.8,501.2l4.2,7.2c-4.4,7-2.4,16.3,4.5,20.8c0,0.6-0.1,1.2-0.1,1.8
			c0,16.5,13.3,29.8,29.8,29.8l0,0c16.5,0,29.8-13.4,29.8-29.8l0,0l0,0c0-0.6,0-1.2-0.1-1.8c6.9-4.6,8.9-13.8,4.5-20.9l4.2-7.2
			h-17.1c-3.1,0-6.2,1-8.8,2.8c-7.9-3.7-17.1-3.7-25,0c-2.6-1.8-5.6-2.8-8.8-2.8L723.8,501.2L723.8,501.2z"/>
		<path id="path4167" class="st16" d="M784.1,504.2c6.7,0,12.1,5.4,12.1,12.1c0,4.1-2,7.8-5.4,10.1c-0.5-8.7-5.7-16.4-13.6-20
			C779.2,504.9,781.6,504.2,784.1,504.2z"/>
		<path id="path4169" class="st16" d="M740,504.2c-6.7,0-12.1,5.4-12.1,12.1c0,4.1,2,7.8,5.4,10.1c0.5-8.7,5.7-16.3,13.6-20
			C745,504.9,742.5,504.2,740,504.2z"/>
		<path id="path4171" class="st17" d="M777,540c0,5.1-6.6,9.2-14.8,9.2l0,0c-8.2,0-14.8-4.1-14.8-9.2l0,0c0-5.1,6.7-9.2,14.8-9.2
			l0,0C770.4,530.8,777,534.9,777,540z"/>
		<path id="path4173" class="st16" d="M759.7,540c0,2.5-2,4.6-4.6,4.6c-2.5,0-4.6-2-4.6-4.6c0-2.5,2-4.6,4.6-4.6l0,0
			C757.7,535.4,759.7,537.5,759.7,540L759.7,540z"/>
		<path id="circle4185" class="st16" d="M773.7,540c0,2.5-2,4.6-4.6,4.6l0,0c-2.5,0-4.6-2-4.6-4.5l0,0l0,0c0-2.5,2-4.6,4.5-4.6l0,0
			l0,0C771.6,535.4,773.7,537.5,773.7,540L773.7,540z"/>
	</g>
	<path class="st18" d="M717.1,202l-5.9,5.9L675,177.7l36.2-30.2l5.9,6l-29.3,24.1L717.1,202z"/>
	<path class="st18" d="M841.1,131l-37,87.7h-8.9l37-87.7H841.1z"/>
	<path class="st18" d="M860.9,153.5l5.8-6l36.2,30.2l-36.2,30.2l-5.8-5.9l29.4-24.2L860.9,153.5z"/>
	<g id="g4185">
		<g id="g4159">
			<path id="path4161" class="st19" d="M783.2,150.2c8.4,0,15.2,6.8,15.2,15.2c0,5.1-2.6,9.8-6.8,12.7c0,0.6,0.1,1.2,0.1,1.7
				c0,16.3-2.3,29.6-29.6,29.6s-29.6-13.2-29.6-29.6c0-0.6,0-1.2,0.1-1.8c-7-4.6-8.9-14.1-4.2-21c4.6-7,14.1-8.9,21-4.2
				c0.1,0.1,0.2,0.1,0.3,0.2c7.9-3.7,17-3.7,24.8,0C777.1,151.1,780.1,150.2,783.2,150.2z"/>
			<path id="path4163" class="st20" d="M783.9,153.1c6.6,0,12,5.4,12,12c0,4-2,7.8-5.4,10c-0.5-8.6-5.7-16.2-13.5-19.8
				C779,153.8,781.4,153.1,783.9,153.1z"/>
			<path id="path4166" class="st20" d="M740.2,153.1c-6.6,0-12,5.4-12,12c0,4,2,7.8,5.4,10c0.5-8.6,5.7-16.2,13.5-19.8
				C745.1,153.8,742.6,153.1,740.2,153.1z"/>
			<path id="path4168" class="st21" d="M762.1,190.3l-4.4-4.1l-4.4-2.7c5.5-3.1,12.2-3.1,17.6,0l-4.4,2.7L762.1,190.3z"/>
		</g>
		<path id="path4177" class="st18" d="M742.6,149.8c-3.7,0-7.3,1.1-10.3,3.1c-10.5,7.4-9.8,20.7,0.3,25.1l1.7-6.6
			c2.7-0.6,5.3-1.7,7.7-3.2c6.9-4.4,10.3-11.2,7.7-15.3C748.4,150.9,745.7,149.8,742.6,149.8z"/>
		<path id="path4183" class="st18" d="M781.7,149.8c3.7,0,7.3,1.1,10.3,3.1c10.5,7.4,9.8,20.7-0.3,25.1l-1.7-6.6
			c-2.7-0.6-5.3-1.7-7.7-3.2c-6.9-4.4-10.3-11.2-7.8-15.3C775.9,150.9,778.5,149.8,781.7,149.8L781.7,149.8z"/>
	</g>
	<g>
		<path class="st8" d="M368.8,54.6c1.2,0.8,3.2,1.6,5.2,1.6c2.9,0,4.2-1.4,4.2-3.2c0-1.9-1.1-2.9-4.1-4c-3.9-1.4-5.8-3.6-5.8-6.2
			c0-3.5,2.8-6.4,7.5-6.4c2.2,0,4.1,0.6,5.4,1.4l-1,2.9c-0.9-0.5-2.4-1.3-4.5-1.3c-2.3,0-3.6,1.4-3.6,3c0,1.8,1.3,2.6,4.1,3.7
			c3.8,1.4,5.7,3.3,5.7,6.6c0,3.8-3,6.5-8.2,6.5c-2.4,0-4.6-0.6-6.1-1.5L368.8,54.6z"/>
		<path class="st8" d="M391.1,46.8L391.1,46.8c0.6-0.8,1.4-1.7,2-2.5l6.4-7.5h4.8l-8.4,9l9.6,12.8h-4.8l-7.5-10.5l-2,2.3v8.2h-3.9
			v-32h3.9V46.8z"/>
		<path class="st8" d="M410.5,48.5c0.1,5.4,3.5,7.6,7.5,7.6c2.8,0,4.5-0.5,6-1.1l0.7,2.8c-1.4,0.6-3.8,1.4-7.3,1.4
			c-6.7,0-10.7-4.4-10.7-11c0-6.6,3.9-11.8,10.2-11.8c7.1,0,9,6.3,9,10.3c0,0.8-0.1,1.4-0.1,1.8H410.5z M422.2,45.6
			c0-2.5-1-6.4-5.5-6.4c-4,0-5.8,3.7-6.1,6.4H422.2z"/>
		<path class="st8" d="M430.9,26.7h4v32h-4V26.7z"/>
		<path class="st8" d="M443.7,48.5c0.1,5.4,3.5,7.6,7.5,7.6c2.8,0,4.5-0.5,6-1.1l0.7,2.8c-1.4,0.6-3.8,1.4-7.3,1.4
			c-6.7,0-10.7-4.4-10.7-11c0-6.6,3.9-11.8,10.2-11.8c7.1,0,9,6.3,9,10.3c0,0.8-0.1,1.4-0.1,1.8H443.7z M455.3,45.6
			c0-2.5-1-6.4-5.5-6.4c-4,0-5.8,3.7-6.1,6.4H455.3z"/>
		<path class="st8" d="M468.9,30.6v6.3h5.7v3h-5.7v11.8c0,2.7,0.8,4.2,3,4.2c1,0,1.8-0.1,2.3-0.3l0.2,3c-0.8,0.3-2,0.5-3.5,0.5
			c-1.8,0-3.3-0.6-4.3-1.7c-1.1-1.2-1.5-3.1-1.5-5.7V39.9h-3.4v-3h3.4v-5.2L468.9,30.6z"/>
		<path class="st8" d="M498.5,47.6c0,8.1-5.6,11.6-10.9,11.6c-5.9,0-10.5-4.3-10.5-11.2c0-7.3,4.8-11.6,10.8-11.6
			C494.2,36.3,498.5,40.9,498.5,47.6z M481.2,47.8c0,4.8,2.7,8.4,6.6,8.4c3.8,0,6.6-3.6,6.6-8.5c0-3.7-1.8-8.4-6.5-8.4
			S481.2,43.6,481.2,47.8z"/>
		<path class="st8" d="M503.4,42.7c0-2.3,0-4.1-0.2-5.9h3.5l0.2,3.6h0.1c1.1-2.1,3.6-4.1,7.2-4.1c3,0,7.7,1.8,7.7,9.3v13h-4V46.1
			c0-3.5-1.3-6.4-5-6.4c-2.6,0-4.6,1.8-5.3,4.1c-0.2,0.5-0.3,1.2-0.3,1.8v13.1h-4V42.7z"/>
		<path class="st8" d="M537.6,45v2.9h-11.1V45H537.6z"/>
		<path class="st8" d="M558.6,57.8c-1,0.5-3.3,1.3-6.3,1.3c-6.6,0-10.9-4.5-10.9-11.1c0-6.7,4.6-11.6,11.7-11.6
			c2.3,0,4.4,0.6,5.5,1.1l-0.9,3.1c-0.9-0.5-2.4-1-4.6-1c-5,0-7.7,3.7-7.7,8.2c0,5,3.2,8.2,7.6,8.2c2.3,0,3.7-0.6,4.9-1.1
			L558.6,57.8z"/>
		<path class="st8" d="M582.7,47.6c0,8.1-5.6,11.6-10.9,11.6c-5.9,0-10.5-4.3-10.5-11.2c0-7.3,4.8-11.6,10.8-11.6
			C578.5,36.3,582.7,40.9,582.7,47.6z M565.4,47.8c0,4.8,2.7,8.4,6.6,8.4c3.8,0,6.6-3.6,6.6-8.5c0-3.7-1.8-8.4-6.5-8.4
			S565.4,43.6,565.4,47.8z"/>
		<path class="st8" d="M606.5,26.7V53c0,1.9,0,4.1,0.2,5.6h-3.6l-0.2-3.8h-0.1c-1.2,2.4-3.9,4.3-7.4,4.3c-5.3,0-9.3-4.5-9.3-11.1
			c0-7.3,4.5-11.7,9.8-11.7c3.3,0,5.6,1.6,6.6,3.3h0.1v-13H606.5z M602.6,45.7c0-0.5,0-1.2-0.2-1.7c-0.6-2.5-2.7-4.6-5.7-4.6
			c-4.1,0-6.5,3.6-6.5,8.4c0,4.4,2.2,8.1,6.4,8.1c2.7,0,5.1-1.8,5.8-4.7c0.1-0.5,0.2-1.1,0.2-1.7V45.7z"/>
		<path class="st8" d="M615.3,48.5c0.1,5.4,3.5,7.6,7.5,7.6c2.8,0,4.5-0.5,6-1.1l0.7,2.8c-1.4,0.6-3.8,1.4-7.3,1.4
			c-6.7,0-10.7-4.4-10.7-11c0-6.6,3.9-11.8,10.2-11.8c7.1,0,9,6.3,9,10.3c0,0.8-0.1,1.4-0.1,1.8H615.3z M626.9,45.6
			c0-2.5-1-6.4-5.5-6.4c-4,0-5.8,3.7-6.1,6.4H626.9z"/>
		<path class="st8" d="M646.1,45v2.9H635V45H646.1z"/>
		<path class="st8" d="M670.2,36.8c-0.1,1.6-0.2,3.3-0.2,6v12.7c0,5-1,8.1-3.1,10c-2.1,2-5.2,2.6-7.9,2.6c-2.6,0-5.5-0.6-7.3-1.8
			l1-3c1.4,0.9,3.7,1.7,6.4,1.7c4.1,0,7-2.1,7-7.6v-2.4H666c-1.2,2-3.6,3.6-6.9,3.6c-5.4,0-9.3-4.6-9.3-10.6
			c0-7.4,4.8-11.6,9.8-11.6c3.8,0,5.9,2,6.8,3.8h0.1l0.2-3.3H670.2z M666.1,45.4c0-0.7,0-1.3-0.2-1.8c-0.7-2.3-2.7-4.2-5.5-4.2
			c-3.8,0-6.5,3.2-6.5,8.2c0,4.3,2.2,7.8,6.4,7.8c2.4,0,4.6-1.5,5.5-4.1c0.2-0.7,0.3-1.4,0.3-2.1V45.4z"/>
		<path class="st8" d="M678.8,48.5c0.1,5.4,3.5,7.6,7.5,7.6c2.8,0,4.5-0.5,6-1.1l0.7,2.8c-1.4,0.6-3.8,1.4-7.3,1.4
			c-6.7,0-10.7-4.4-10.7-11c0-6.6,3.9-11.8,10.2-11.8c7.1,0,9,6.3,9,10.3c0,0.8-0.1,1.4-0.1,1.8H678.8z M690.4,45.6
			c0-2.5-1-6.4-5.5-6.4c-4,0-5.8,3.7-6.1,6.4H690.4z"/>
		<path class="st8" d="M699.1,42.7c0-2.3,0-4.1-0.2-5.9h3.5l0.2,3.6h0.1c1.1-2.1,3.6-4.1,7.2-4.1c3,0,7.7,1.8,7.7,9.3v13h-4V46.1
			c0-3.5-1.3-6.4-5-6.4c-2.6,0-4.6,1.8-5.3,4.1c-0.2,0.5-0.3,1.2-0.3,1.8v13.1h-4V42.7z"/>
		<path class="st8" d="M726.3,48.5c0.1,5.4,3.5,7.6,7.5,7.6c2.8,0,4.5-0.5,6-1.1l0.7,2.8c-1.4,0.6-3.8,1.4-7.3,1.4
			c-6.7,0-10.7-4.4-10.7-11c0-6.6,3.9-11.8,10.2-11.8c7.1,0,9,6.3,9,10.3c0,0.8-0.1,1.4-0.1,1.8H726.3z M738,45.6
			c0-2.5-1-6.4-5.5-6.4c-4,0-5.8,3.7-6.1,6.4H738z"/>
		<path class="st8" d="M746.7,43.6c0-2.6,0-4.8-0.2-6.8h3.5l0.1,4.3h0.2c1-2.9,3.4-4.8,6-4.8c0.5,0,0.8,0,1.1,0.1v3.7
			c-0.4-0.1-0.8-0.1-1.4-0.1c-2.8,0-4.8,2.1-5.3,5.1c-0.1,0.5-0.2,1.2-0.2,1.8v11.6h-3.9V43.6z"/>
		<path class="st8" d="M773.3,58.6l-0.3-2.7h-0.1c-1.2,1.7-3.6,3.2-6.7,3.2c-4.4,0-6.7-3.1-6.7-6.3c0-5.3,4.7-8.2,13.1-8.1v-0.5
			c0-1.8-0.5-5-5-5c-2,0-4.1,0.6-5.7,1.6l-0.9-2.6c1.8-1.2,4.4-1.9,7.2-1.9c6.7,0,8.3,4.5,8.3,8.9v8.2c0,1.9,0.1,3.7,0.4,5.2H773.3z
			 M772.7,47.5c-4.3-0.1-9.2,0.7-9.2,4.9c0,2.6,1.7,3.8,3.7,3.8c2.8,0,4.6-1.8,5.3-3.6c0.1-0.4,0.2-0.9,0.2-1.3V47.5z"/>
		<path class="st8" d="M787.5,30.6v6.3h5.7v3h-5.7v11.8c0,2.7,0.8,4.2,3,4.2c1,0,1.8-0.1,2.3-0.3l0.2,3c-0.8,0.3-2,0.5-3.5,0.5
			c-1.8,0-3.3-0.6-4.3-1.7c-1.1-1.2-1.5-3.1-1.5-5.7V39.9h-3.4v-3h3.4v-5.2L787.5,30.6z"/>
		<path class="st8" d="M817.1,47.6c0,8.1-5.6,11.6-10.9,11.6c-5.9,0-10.5-4.3-10.5-11.2c0-7.3,4.8-11.6,10.8-11.6
			C812.9,36.3,817.1,40.9,817.1,47.6z M799.8,47.8c0,4.8,2.7,8.4,6.6,8.4c3.8,0,6.6-3.6,6.6-8.5c0-3.7-1.8-8.4-6.5-8.4
			C801.8,39.3,799.8,43.6,799.8,47.8z"/>
		<path class="st8" d="M822.1,43.6c0-2.6,0-4.8-0.2-6.8h3.5l0.1,4.3h0.2c1-2.9,3.4-4.8,6-4.8c0.5,0,0.8,0,1.1,0.1v3.7
			c-0.4-0.1-0.8-0.1-1.4-0.1c-2.8,0-4.8,2.1-5.3,5.1c-0.1,0.5-0.2,1.2-0.2,1.8v11.6h-3.9V43.6z"/>
	</g>
</g>
</svg>
