<svg xmlns="http://www.w3.org/2000/svg" xmlns:xlink="http://www.w3.org/1999/xlink" viewBox="0 0 1120.5 643.81"><defs><clipPath id="clip-path"><rect x="40.7" y="34" width="97.26" height="25.22" style="fill:none"/></clipPath></defs><g id="Capa_2" data-name="Capa 2"><rect width="1120.5" height="643.81" rx="44.47" style="fill:#151718"/><g style="clip-path:url(#clip-path)"><path d="M64.11,46.61a11.51,11.51,0,0,1-.2,2.11,11.07,11.07,0,0,1-.62,2A10.76,10.76,0,0,1,61,54.25a11.22,11.22,0,0,1-1.64,1.35,11.55,11.55,0,0,1-1.87,1,10.94,10.94,0,0,1-2,.61,10.71,10.71,0,0,1-4.22,0,11,11,0,0,1-2-.61,12,12,0,0,1-1.87-1,11.13,11.13,0,0,1-1.63-1.35,10.53,10.53,0,0,1-1.35-1.63,11.2,11.2,0,0,1-1-1.87,11,11,0,0,1-.61-2,10.71,10.71,0,0,1,0-4.22,10.94,10.94,0,0,1,.61-2,10.82,10.82,0,0,1,1-1.87A10.61,10.61,0,0,1,45.67,39a10.76,10.76,0,0,1,3.5-2.34,11.07,11.07,0,0,1,2-.62,10.71,10.71,0,0,1,4.22,0,11,11,0,0,1,2,.62,10.18,10.18,0,0,1,1.87,1,10.57,10.57,0,0,1,3,3,10.18,10.18,0,0,1,1,1.87,11,11,0,0,1,.62,2A11.51,11.51,0,0,1,64.11,46.61Z" style="fill:#ff5f56"/><path d="M64.11,46.61a11.51,11.51,0,0,1-.2,2.11,11.07,11.07,0,0,1-.62,2A10.76,10.76,0,0,1,61,54.25a11.22,11.22,0,0,1-1.64,1.35,11.55,11.55,0,0,1-1.87,1,10.94,10.94,0,0,1-2,.61,10.71,10.71,0,0,1-4.22,0,11,11,0,0,1-2-.61,12,12,0,0,1-1.87-1,11.13,11.13,0,0,1-1.63-1.35,10.53,10.53,0,0,1-1.35-1.63,11.2,11.2,0,0,1-1-1.87,11,11,0,0,1-.61-2,10.71,10.71,0,0,1,0-4.22,10.94,10.94,0,0,1,.61-2,10.82,10.82,0,0,1,1-1.87A10.61,10.61,0,0,1,45.67,39a10.76,10.76,0,0,1,3.5-2.34,11.07,11.07,0,0,1,2-.62,10.71,10.71,0,0,1,4.22,0,11,11,0,0,1,2,.62,10.18,10.18,0,0,1,1.87,1,10.57,10.57,0,0,1,3,3,10.18,10.18,0,0,1,1,1.87,11,11,0,0,1,.62,2A11.51,11.51,0,0,1,64.11,46.61Z" style="fill:none;stroke:#e0443e"/><path d="M100.14,46.61a10.71,10.71,0,0,1-.21,2.11,10.34,10.34,0,0,1-.62,2,10.87,10.87,0,0,1-4,4.85,11.89,11.89,0,0,1-1.86,1,11.27,11.27,0,0,1-2,.61,10.71,10.71,0,0,1-4.22,0,11.27,11.27,0,0,1-2-.61,11.89,11.89,0,0,1-1.86-1,10.61,10.61,0,0,1-4-4.85,10.34,10.34,0,0,1-.62-2,10.71,10.71,0,0,1,0-4.22,10.25,10.25,0,0,1,.62-2,10.78,10.78,0,0,1,1-1.87A11.22,11.22,0,0,1,81.69,39a10.55,10.55,0,0,1,1.64-1.34,10.43,10.43,0,0,1,1.86-1,11.31,11.31,0,0,1,2-.62,10.71,10.71,0,0,1,4.22,0,11.31,11.31,0,0,1,2,.62,10.43,10.43,0,0,1,1.86,1A10.55,10.55,0,0,1,97,39a11.22,11.22,0,0,1,1.35,1.64,10.78,10.78,0,0,1,1,1.87,10.25,10.25,0,0,1,.62,2A10.71,10.71,0,0,1,100.14,46.61Z" style="fill:#ffbd2e"/><path d="M100.14,46.61a10.71,10.71,0,0,1-.21,2.11,10.34,10.34,0,0,1-.62,2,10.87,10.87,0,0,1-4,4.85,11.89,11.89,0,0,1-1.86,1,11.27,11.27,0,0,1-2,.61,10.71,10.71,0,0,1-4.22,0,11.27,11.27,0,0,1-2-.61,11.89,11.89,0,0,1-1.86-1,10.61,10.61,0,0,1-4-4.85,10.34,10.34,0,0,1-.62-2,10.71,10.71,0,0,1,0-4.22,10.25,10.25,0,0,1,.62-2,10.78,10.78,0,0,1,1-1.87A11.22,11.22,0,0,1,81.69,39a10.55,10.55,0,0,1,1.64-1.34,10.43,10.43,0,0,1,1.86-1,11.31,11.31,0,0,1,2-.62,10.71,10.71,0,0,1,4.22,0,11.31,11.31,0,0,1,2,.62,10.43,10.43,0,0,1,1.86,1A10.55,10.55,0,0,1,97,39a11.22,11.22,0,0,1,1.35,1.64,10.78,10.78,0,0,1,1,1.87,10.25,10.25,0,0,1,.62,2A10.71,10.71,0,0,1,100.14,46.61Z" style="fill:none;stroke:#dea123"/><path d="M136.16,46.61a10.71,10.71,0,0,1-.21,2.11,11,11,0,0,1-.61,2,11.2,11.2,0,0,1-1,1.87A10.53,10.53,0,0,1,133,54.25a11.13,11.13,0,0,1-1.63,1.35,12,12,0,0,1-1.87,1,11,11,0,0,1-2,.61,10.71,10.71,0,0,1-4.22,0,10.94,10.94,0,0,1-2-.61,11.55,11.55,0,0,1-1.87-1,11.22,11.22,0,0,1-1.64-1.35,10.76,10.76,0,0,1-2.34-3.5,11.07,11.07,0,0,1-.62-2,11.23,11.23,0,0,1,0-4.22,11,11,0,0,1,.62-2,10.18,10.18,0,0,1,1-1.87,10.57,10.57,0,0,1,3-3,10.18,10.18,0,0,1,1.87-1,11,11,0,0,1,2-.62,10.71,10.71,0,0,1,4.22,0,11.07,11.07,0,0,1,2,.62,10.87,10.87,0,0,1,4.85,4,10.82,10.82,0,0,1,1,1.87,10.94,10.94,0,0,1,.61,2A10.71,10.71,0,0,1,136.16,46.61Z" style="fill:#27c93f"/><path d="M136.16,46.61a10.71,10.71,0,0,1-.21,2.11,11,11,0,0,1-.61,2,11.2,11.2,0,0,1-1,1.87A10.53,10.53,0,0,1,133,54.25a11.13,11.13,0,0,1-1.63,1.35,12,12,0,0,1-1.87,1,11,11,0,0,1-2,.61,10.71,10.71,0,0,1-4.22,0,10.94,10.94,0,0,1-2-.61,11.55,11.55,0,0,1-1.87-1,11.22,11.22,0,0,1-1.64-1.35,10.76,10.76,0,0,1-2.34-3.5,11.07,11.07,0,0,1-.62-2,11.23,11.23,0,0,1,0-4.22,11,11,0,0,1,.62-2,10.18,10.18,0,0,1,1-1.87,10.57,10.57,0,0,1,3-3,10.18,10.18,0,0,1,1.87-1,11,11,0,0,1,2-.62,10.71,10.71,0,0,1,4.22,0,11.07,11.07,0,0,1,2,.62,10.87,10.87,0,0,1,4.85,4,10.82,10.82,0,0,1,1,1.87,10.94,10.94,0,0,1,.61,2A10.71,10.71,0,0,1,136.16,46.61Z" style="fill:none;stroke:#1aab29"/></g></g><g id="Capa_5" data-name="Capa 5"><path d="M294.9,358.53a5.84,5.84,0,0,0-5.83,5.83,2.48,2.48,0,1,0,4.95,0,.88.88,0,1,1,1.75,0,2.48,2.48,0,1,0,5,0A5.85,5.85,0,0,0,294.9,358.53Z" style="fill:#fff"/><circle cx="283.6" cy="349.79" r="8.09" style="fill:#fff"/><circle cx="306.19" cy="349.79" r="8.09" style="fill:#fff"/><path d="M324,343.45a28.3,28.3,0,0,0-2.26-11.22,28.93,28.93,0,0,0-6.19-9.19,29.38,29.38,0,0,0-9.18-6.19,28.33,28.33,0,0,0-11.22-2.26h-.51a28.35,28.35,0,0,0-11.23,2.26A29,29,0,0,0,274.2,323a29.31,29.31,0,0,0-6.19,9.19,28.3,28.3,0,0,0-2.26,11.22V344a28.82,28.82,0,0,0,5.54,17,6.94,6.94,0,0,0-1.61,4.45v.07a7.08,7.08,0,0,0,7.07,7.07h2.48v7.8a2.45,2.45,0,0,0,2.48,2.47H308a2.45,2.45,0,0,0,2.48-2.47v-7.8H313a7.08,7.08,0,0,0,7.07-7.07v-.07a6.94,6.94,0,0,0-1.61-4.45A28.82,28.82,0,0,0,324,344Zm-4.88.51a24.18,24.18,0,0,1-5.9,15.74,2.46,2.46,0,0,0-.59,2.11,2.7,2.7,0,0,0,1.31,1.75,2.09,2.09,0,0,1,1.17,1.89h0a2.12,2.12,0,0,1-2.11,2.12h-5a2.46,2.46,0,0,0-2.48,2.47v7.8H301v-3.13a2,2,0,0,0-4.08,0v3.13h-4.16v-3.13a2,2,0,0,0-4.08,0v3.13h-4.51v-7.72a2.46,2.46,0,0,0-2.48-2.48h-5a2.12,2.12,0,0,1-2.11-2.11v-.08a2.09,2.09,0,0,1,1.17-1.89,2.48,2.48,0,0,0,.72-3.86,24,24,0,0,1-5.9-15.74v-.51a23.88,23.88,0,0,1,23.9-23.9H295a23.87,23.87,0,0,1,23.9,23.9V344Z" style="fill:#fff"/><path d="M249.85,375.9,244,381.82l-36.2-30.22L244,321.38l5.88,6-29.36,24.13Z" style="fill:#fff"/><path d="M373.8,304.84l-37,87.7H327.9l37-87.7Z" style="fill:#fff"/><path d="M393.62,327.36l5.82-6,36.2,30.22-36.2,30.22-5.82-5.92L423,351.71Z" style="fill:#fff"/><path d="M589.8,343.18,561.52,314.9a7.8,7.8,0,1,0-11,11l15,15H521.37a7.8,7.8,0,1,0,0,15.59h44.09l-15,15a7.8,7.8,0,1,0,11,11l28.28-28.27A7.81,7.81,0,0,0,589.8,343.18Z" style="fill:#55b5db"/><path d="M717.11,317.93l-5.87,5.93L675,293.64l36.2-30.22,5.87,6-29.36,24.13Z" style="fill:#ff812d"/><path d="M841.06,246.88l-36.95,87.7h-8.94l37-87.7Z" style="fill:#ff812d"/><path d="M860.89,269.4l5.82-6,36.2,30.22-36.2,30.22-5.82-5.93,29.36-24.19Z" style="fill:#ff812d"/><g id="g4224"><g id="g4396"><path id="path4398" d="M783.41,265.68a15.28,15.28,0,0,1,8.42,28c0,.58.08,1.17.09,1.75a29.8,29.8,0,1,1-59.59,0c0-.59,0-1.18.07-1.77a15.28,15.28,0,0,1,8.45-28h0a15.31,15.31,0,0,1,8.77,2.79,29.4,29.4,0,0,1,25,0A15.27,15.27,0,0,1,783.41,265.68Z" style="fill:#ff812d"/><path id="path4400" d="M784.09,268.62a12.08,12.08,0,0,1,6.66,22.16,23.54,23.54,0,0,0-13.61-20A12.1,12.1,0,0,1,784.09,268.62Z" style="fill:#ffb17d"/><path id="path4402" d="M740.05,268.62a12.08,12.08,0,0,0-6.66,22.16,23.55,23.55,0,0,1,13.6-20A12,12,0,0,0,740.05,268.62Z" style="fill:#ffb17d"/></g><path id="path4431" d="M760.61,265.68l.2,4.22-11.26.87h0l11.39.72.07,2.71-14,.95h0l14.14.81.08,2.77L742.18,280h0l19.33.45.62,14.35v.11l.61-14.46,19.33-.45h0L763,278.74l.08-2.77,14.14-.81h0l-14-.95.07-2.71,11.39-.72h0l-11.25-.87.19-4.22Z" style="fill-rule:evenodd"/><path id="path4283" d="M762.13,307.54l-4.45-4.16-4.44-4.16a18.24,18.24,0,0,1,17.77,0l-4.44,4.16Z"/></g><path d="M717.11,433.86l-5.87,5.93L675,409.57l36.2-30.22,5.87,6-29.36,24.13Z" style="fill:#999"/><path d="M841.06,362.81l-36.95,87.7h-8.94l37-87.7Z" style="fill:#999"/><path d="M860.89,385.33l5.82-6,36.2,30.22-36.2,30.22-5.82-5.93,29.36-24.18Z" style="fill:#999"/><g id="g4218"><path id="path4196" d="M783.41,380.57a15.28,15.28,0,0,1,8.42,28c0,.59.08,1.17.09,1.76,0,9.21,15.74,29.79-29.79,29.79s-29.8-20.58-29.8-29.79c0-.59,0-1.18.07-1.77a15.28,15.28,0,1,1,17.22-25.24,29.4,29.4,0,0,1,25,0,15.35,15.35,0,0,1,8.79-2.79Z" style="fill:#f2f2f2"/><path id="path4198" d="M784.09,383.51a12.08,12.08,0,0,1,6.66,22.16,23.55,23.55,0,0,0-13.61-20A12.1,12.1,0,0,1,784.09,383.51Z" style="fill:#999"/><path id="path4200" d="M740.05,383.51a12.08,12.08,0,0,0-6.66,22.16,23.56,23.56,0,0,1,13.6-20,12,12,0,0,0-6.94-2.2Z" style="fill:#999"/><path id="path4212" d="M762.13,422.44l-4.45-4.16-4.44-4.16a18.24,18.24,0,0,1,17.77,0l-4.44,4.16Z"/></g><path d="M717.11,549.79l-5.87,5.93L675,525.5l36.2-30.22,5.87,6-29.36,24.13Z" style="fill:#e7aaaa"/><path d="M841.06,478.74l-36.95,87.7h-8.94l37-87.7Z" style="fill:#e7aaaa"/><path d="M860.89,501.26l5.82-6,36.2,30.22-36.2,30.22-5.82-5.93,29.36-24.18Z" style="fill:#e7aaaa"/><g id="g4362"><path id="path4165" d="M723.75,501.25l4.15,7.19a15.21,15.21,0,0,0,4.5,20.83c0,.59-.06,1.18-.07,1.77a29.8,29.8,0,0,0,29.8,29.8h0A29.8,29.8,0,0,0,791.92,531h0c0-.58,0-1.17-.09-1.75a15.25,15.25,0,0,0,4.53-20.86l4.15-7.18h-17.1a15.27,15.27,0,0,0-8.79,2.79,29.4,29.4,0,0,0-25,0,15.31,15.31,0,0,0-8.77-2.79h-17.1Z" style="fill:#e7aaaa"/><path id="path4167" d="M784.09,504.19a12.08,12.08,0,0,1,6.66,22.16,23.54,23.54,0,0,0-13.61-20A12.1,12.1,0,0,1,784.09,504.19Z" style="fill:#f8e8e8"/><path id="path4169" d="M740.05,504.19a12.08,12.08,0,0,0-6.66,22.16,23.55,23.55,0,0,1,13.6-20A12.07,12.07,0,0,0,740.05,504.19Z" style="fill:#f8e8e8"/><path id="path4171" d="M777,540c0,5.06-6.64,9.17-14.84,9.17h0c-8.2,0-14.85-4.11-14.85-9.17h0c0-5.07,6.65-9.18,14.85-9.18h0c8.2,0,14.84,4.11,14.84,9.18Z" style="fill:#de8a8a"/><path id="path4173" d="M759.72,540a4.57,4.57,0,1,1-4.56-4.57A4.56,4.56,0,0,1,759.72,540Z" style="fill:#f8e8e8"/><path id="circle4185" d="M773.66,540a4.56,4.56,0,0,1-4.56,4.56h0a4.56,4.56,0,0,1-4.57-4.56h0a4.56,4.56,0,0,1,4.57-4.57h0a4.56,4.56,0,0,1,4.56,4.57Z" style="fill:#f8e8e8"/></g><path d="M717.11,202l-5.87,5.93L675,177.71l36.2-30.23,5.87,6L687.75,177.6Z" style="fill:#9d5a2b"/><path d="M841.06,131l-36.95,87.7h-8.94l37-87.7Z" style="fill:#9d5a2b"/><path d="M860.89,153.46l5.82-6,36.2,30.23-36.2,30.22L860.89,202l29.36-24.19Z" style="fill:#9d5a2b"/><g id="g4185"><g id="g4159"><path id="path4161" d="M783.23,150.16A15.18,15.18,0,0,1,791.6,178c0,.58.07,1.16.08,1.74,0,16.34-2.26,29.58-29.58,29.58s-29.59-13.24-29.59-29.58c0-.59,0-1.17.07-1.76a15.17,15.17,0,1,1,17.1-25.06,29.21,29.21,0,0,1,24.83,0A15.21,15.21,0,0,1,783.23,150.16Z" style="fill:#dfac89"/><path id="path4163" d="M783.91,153.08a12,12,0,0,1,6.61,22A23.37,23.37,0,0,0,777,155.27,12,12,0,0,1,783.91,153.08Z" style="fill:#ce804a"/><path id="path4166" d="M740.18,153.08a12,12,0,0,0-6.62,22,23.39,23.39,0,0,1,13.51-19.82A12,12,0,0,0,740.18,153.08Z" style="fill:#ce804a"/><path id="path4168" d="M762.1,190.32l-4.41-4.13-4.41-2.72a18.13,18.13,0,0,1,17.64,0l-4.41,2.72Z" style="fill:#502600"/></g><path id="path4177" d="M742.56,149.75a18.89,18.89,0,0,0-10.32,3.14c-10.46,7.43-9.82,20.67.34,25.1l1.67-6.58a22.8,22.8,0,0,0,7.68-3.22c6.86-4.41,10.33-11.25,7.74-15.26C748.38,150.92,745.74,149.81,742.56,149.75Z" style="fill:#9d5a2b"/><path id="path4183" d="M781.69,149.75A18.89,18.89,0,0,1,792,152.89c10.46,7.43,9.82,20.67-.33,25.1L790,171.41a22.84,22.84,0,0,1-7.67-3.22c-6.87-4.41-10.33-11.25-7.75-15.26,1.29-2,3.93-3.12,7.11-3.18Z" style="fill:#9d5a2b"/></g><text transform="translate(399.48 57.44)" style="font-size:37.052276611328125px;fill:#fff;font-family:Hack-Regular, Hack">generateFromFolder</text></g></svg>