<?xml version="1.0" encoding="utf-8"?>
<!-- Generator: Adobe Illustrator 25.4.1, SVG Export Plug-In . SVG Version: 6.00 Build 0)  -->
<svg version="1.1" id="Capa_1" xmlns="http://www.w3.org/2000/svg" xmlns:xlink="http://www.w3.org/1999/xlink" x="0px" y="0px"
	 viewBox="0 0 898.8 643.8" style="enable-background:new 0 0 898.8 643.8;" xml:space="preserve">
<style type="text/css">
	.st0{fill:#151718;}
	.st1{clip-path:url(#SVGID_00000122688895905922125170000012140817356995752117_);}
	.st2{fill:#FF5F56;}
	.st3{fill:none;stroke:#E0443E;}
	.st4{fill:#FFBD2E;}
	.st5{fill:none;stroke:#DEA123;}
	.st6{fill:#27C93F;}
	.st7{fill:none;stroke:#1AAB29;}
	.st8{enable-background:new    ;}
	.st9{fill:#FFFFFF;}
	.st10{fill:#55B5DB;}
	.st11{fill:#FF812D;}
	.st12{fill:#FFB17D;}
	.st13{fill-rule:evenodd;clip-rule:evenodd;}
	.st14{fill:#999999;}
	.st15{fill:#F2F2F2;}
	.st16{fill:#E7AAAA;}
	.st17{fill:#F8E8E8;}
	.st18{fill:#DE8A8A;}
	.st19{fill:#9D5A2B;}
	.st20{fill:#DFAC89;}
	.st21{fill:#CE804A;}
	.st22{fill:#502600;}
	.st23{fill:#9FCA56;}
	.st24{fill:#E9E9E0;}
	.st25{fill:#9777A8;}
	.st26{fill:#D9D7CA;}
	.st27{fill:none;stroke:#A074C4;stroke-width:10;stroke-linecap:round;stroke-miterlimit:10;}
	.st28{fill:#FFB02E;enable-background:new    ;}
	.st29{fill:#FCD53F;enable-background:new    ;}
	.st30{fill:#F3EEF8;}
	.st31{fill:#CDC4D6;enable-background:new    ;}
	.st32{fill:none;stroke:#998EA4;stroke-miterlimit:10;enable-background:new    ;}
	.st33{fill:#B4ACBC;}
</style>
<g id="Capa_2_00000126319926848230076950000012478112541834428095_">
	<path class="st0" d="M44.5,0h809.9c24.6,0,44.5,19.9,44.5,44.5v554.9c0,24.6-19.9,44.5-44.5,44.5H44.5C19.9,643.8,0,623.9,0,599.3
		V44.5C0,19.9,19.9,0,44.5,0z"/>
	<g>
		<defs>
			<rect id="SVGID_1_" x="28.4" y="34" width="97.3" height="25.2"/>
		</defs>
		<clipPath id="SVGID_00000016782465815737754200000002615748730573952896_">
			<use xlink:href="#SVGID_1_"  style="overflow:visible;"/>
		</clipPath>
		<g style="clip-path:url(#SVGID_00000016782465815737754200000002615748730573952896_);">
			<path class="st2" d="M51.8,46.6c0,0.7-0.1,1.4-0.2,2.1c-0.1,0.7-0.4,1.4-0.6,2c-0.5,1.3-1.3,2.5-2.3,3.5c-0.5,0.5-1.1,1-1.7,1.4
				c-0.6,0.4-1.2,0.7-1.9,1c-0.6,0.3-1.3,0.5-2,0.6c-1.4,0.3-2.8,0.3-4.2,0c-0.7-0.1-1.4-0.3-2-0.6c-0.7-0.3-1.3-0.6-1.9-1
				c-0.6-0.4-1.1-0.9-1.6-1.3c-0.5-0.5-1-1-1.4-1.6c-0.4-0.6-0.7-1.2-1-1.9c-0.3-0.6-0.5-1.3-0.6-2c-0.3-1.4-0.3-2.8,0-4.2
				c0.1-0.7,0.3-1.4,0.6-2c0.3-0.7,0.6-1.3,1-1.9c0.4-0.6,0.9-1.2,1.4-1.7c0.5-0.5,1-1,1.6-1.4c0.6-0.4,1.2-0.7,1.9-1
				c0.6-0.3,1.3-0.5,2-0.6c1.4-0.3,2.8-0.3,4.2,0c0.7,0.1,1.4,0.3,2,0.6c0.7,0.3,1.3,0.6,1.9,1c1.2,0.8,2.2,1.8,3,3
				c0.4,0.6,0.7,1.2,1,1.9c0.3,0.6,0.5,1.3,0.6,2C51.7,45.2,51.8,45.9,51.8,46.6z"/>
			<path class="st3" d="M51.8,46.6c0,0.7-0.1,1.4-0.2,2.1c-0.1,0.7-0.4,1.4-0.6,2c-0.5,1.3-1.3,2.5-2.3,3.5c-0.5,0.5-1.1,1-1.7,1.4
				c-0.6,0.4-1.2,0.7-1.9,1c-0.6,0.3-1.3,0.5-2,0.6c-1.4,0.3-2.8,0.3-4.2,0c-0.7-0.1-1.4-0.3-2-0.6c-0.7-0.3-1.3-0.6-1.9-1
				c-0.6-0.4-1.1-0.9-1.6-1.3c-0.5-0.5-1-1-1.4-1.6c-0.4-0.6-0.7-1.2-1-1.9c-0.3-0.6-0.5-1.3-0.6-2c-0.3-1.4-0.3-2.8,0-4.2
				c0.1-0.7,0.3-1.4,0.6-2c0.3-0.7,0.6-1.3,1-1.9c0.4-0.6,0.9-1.2,1.4-1.7c0.5-0.5,1-1,1.6-1.4c0.6-0.4,1.2-0.7,1.9-1
				c0.6-0.3,1.3-0.5,2-0.6c1.4-0.3,2.8-0.3,4.2,0c0.7,0.1,1.4,0.3,2,0.6c0.7,0.3,1.3,0.6,1.9,1c1.2,0.8,2.2,1.8,3,3
				c0.4,0.6,0.7,1.2,1,1.9c0.3,0.6,0.5,1.3,0.6,2C51.7,45.2,51.8,45.9,51.8,46.6z"/>
			<path class="st4" d="M87.9,46.6c0,0.7-0.1,1.4-0.2,2.1c-0.1,0.7-0.4,1.4-0.6,2c-0.5,1.3-1.3,2.5-2.3,3.5c-0.5,0.5-1.1,1-1.6,1.3
				c-0.6,0.4-1.2,0.7-1.9,1c-0.6,0.3-1.3,0.5-2,0.6c-1.4,0.3-2.8,0.3-4.2,0c-0.7-0.1-1.4-0.3-2-0.6c-0.7-0.3-1.3-0.6-1.9-1
				c-1.2-0.8-2.2-1.8-3-3c-0.4-0.6-0.7-1.2-1-1.9c-0.3-0.6-0.5-1.3-0.6-2c-0.3-1.4-0.3-2.8,0-4.2c0.1-0.7,0.3-1.4,0.6-2
				c0.3-0.7,0.6-1.3,1-1.9c0.4-0.6,0.8-1.1,1.3-1.6c1-1,2.2-1.8,3.5-2.3c0.6-0.3,1.3-0.5,2-0.6c1.4-0.3,2.8-0.3,4.2,0
				c0.7,0.1,1.4,0.4,2,0.6c0.7,0.3,1.3,0.6,1.9,1c1.2,0.8,2.2,1.8,3,3c0.4,0.6,0.7,1.2,1,1.9c0.3,0.6,0.5,1.3,0.6,2
				C87.8,45.2,87.8,45.9,87.9,46.6z"/>
			<path class="st5" d="M87.9,46.6c0,0.7-0.1,1.4-0.2,2.1c-0.1,0.7-0.4,1.4-0.6,2c-0.5,1.3-1.3,2.5-2.3,3.5c-0.5,0.5-1.1,1-1.6,1.3
				c-0.6,0.4-1.2,0.7-1.9,1c-0.6,0.3-1.3,0.5-2,0.6c-1.4,0.3-2.8,0.3-4.2,0c-0.7-0.1-1.4-0.3-2-0.6c-0.7-0.3-1.3-0.6-1.9-1
				c-1.2-0.8-2.2-1.8-3-3c-0.4-0.6-0.7-1.2-1-1.9c-0.3-0.6-0.5-1.3-0.6-2c-0.3-1.4-0.3-2.8,0-4.2c0.1-0.7,0.3-1.4,0.6-2
				c0.3-0.7,0.6-1.3,1-1.9c0.4-0.6,0.8-1.1,1.3-1.6c1-1,2.2-1.8,3.5-2.3c0.6-0.3,1.3-0.5,2-0.6c1.4-0.3,2.8-0.3,4.2,0
				c0.7,0.1,1.4,0.4,2,0.6c0.7,0.3,1.3,0.6,1.9,1c1.2,0.8,2.2,1.8,3,3c0.4,0.6,0.7,1.2,1,1.9c0.3,0.6,0.5,1.3,0.6,2
				C87.8,45.2,87.8,45.9,87.9,46.6z"/>
			<path class="st6" d="M123.9,46.6c0,0.7-0.1,1.4-0.2,2.1c-0.1,0.7-0.3,1.4-0.6,2c-0.3,0.7-0.6,1.3-1,1.9c-0.4,0.6-0.8,1.1-1.3,1.6
				c-0.5,0.5-1,1-1.6,1.3c-0.6,0.4-1.2,0.7-1.9,1c-0.6,0.3-1.3,0.5-2,0.6c-1.4,0.3-2.8,0.3-4.2,0c-0.7-0.1-1.4-0.3-2-0.6
				c-0.7-0.3-1.3-0.6-1.9-1c-0.6-0.4-1.1-0.8-1.6-1.3c-1-1-1.8-2.2-2.3-3.5c-0.3-0.6-0.5-1.3-0.6-2c-0.3-1.4-0.3-2.8,0-4.2
				c0.1-0.7,0.4-1.4,0.6-2c0.3-0.7,0.6-1.3,1-1.9c0.8-1.2,1.8-2.2,3-3c0.6-0.4,1.2-0.7,1.9-1c0.6-0.3,1.3-0.5,2-0.6
				c1.4-0.3,2.8-0.3,4.2,0c0.7,0.1,1.4,0.4,2,0.6c2,0.8,3.7,2.2,4.8,4c0.4,0.6,0.7,1.2,1,1.9c0.3,0.6,0.5,1.3,0.6,2
				C123.8,45.2,123.9,45.9,123.9,46.6z"/>
			<path class="st7" d="M123.9,46.6c0,0.7-0.1,1.4-0.2,2.1c-0.1,0.7-0.3,1.4-0.6,2c-0.3,0.7-0.6,1.3-1,1.9c-0.4,0.6-0.8,1.1-1.3,1.6
				c-0.5,0.5-1,1-1.6,1.3c-0.6,0.4-1.2,0.7-1.9,1c-0.6,0.3-1.3,0.5-2,0.6c-1.4,0.3-2.8,0.3-4.2,0c-0.7-0.1-1.4-0.3-2-0.6
				c-0.7-0.3-1.3-0.6-1.9-1c-0.6-0.4-1.1-0.8-1.6-1.3c-1-1-1.8-2.2-2.3-3.5c-0.3-0.6-0.5-1.3-0.6-2c-0.3-1.4-0.3-2.8,0-4.2
				c0.1-0.7,0.4-1.4,0.6-2c0.3-0.7,0.6-1.3,1-1.9c0.8-1.2,1.8-2.2,3-3c0.6-0.4,1.2-0.7,1.9-1c0.6-0.3,1.3-0.5,2-0.6
				c1.4-0.3,2.8-0.3,4.2,0c0.7,0.1,1.4,0.4,2,0.6c2,0.8,3.7,2.2,4.8,4c0.4,0.6,0.7,1.2,1,1.9c0.3,0.6,0.5,1.3,0.6,2
				C123.8,45.2,123.9,45.9,123.9,46.6z"/>
		</g>
	</g>
</g>
<g id="Capa_5">
	<g class="st8">
		<path class="st9" d="M247.9,58c-0.5,0-1.1,0-1.6-0.1c-0.6-0.1-1.1-0.1-1.6-0.2c-0.5-0.1-1-0.2-1.7-0.4s-1.3-0.4-1.9-0.6v-3.4
			c0.8,0.4,1.4,0.7,2,0.9c0.5,0.2,1.1,0.4,1.6,0.5c0.6,0.2,1.1,0.3,1.6,0.4c0.5,0.1,1.1,0.1,1.6,0.1c1.5,0,2.6-0.3,3.4-0.9
			c0.4-0.3,0.7-0.7,0.9-1.1s0.3-0.9,0.3-1.3c0-0.8-0.4-1.5-1.1-2.1c-0.7-0.5-1.8-0.9-3.4-1.3l-0.1,0l-1.2-0.3
			c-0.9-0.2-1.7-0.4-2.4-0.7s-1.3-0.7-1.8-1.2c-0.9-0.9-1.3-2.1-1.3-3.6c0-1,0.2-1.8,0.5-2.6c0.3-0.7,0.8-1.4,1.5-1.9
			c0.7-0.6,1.5-1,2.5-1.2c1-0.2,2-0.4,3.2-0.4c0.5,0,1,0,1.6,0.1c0.5,0,1,0.1,1.5,0.2c0.5,0.1,0.9,0.2,1.4,0.4
			c0.5,0.2,1,0.3,1.5,0.5v3.3c-1-0.6-1.9-1-2.9-1.2c-0.5-0.1-1-0.2-1.5-0.3c-0.5-0.1-1-0.1-1.6-0.1c-0.7,0-1.3,0.1-1.9,0.2
			c-0.6,0.1-1,0.3-1.4,0.5c-0.7,0.5-1.1,1.2-1.1,2.3c0,0.4,0.1,0.8,0.2,1.2s0.3,0.6,0.6,0.9c0.3,0.2,0.7,0.4,1.4,0.6
			c0.6,0.2,1.6,0.4,2.8,0.7l1.3,0.3c0.9,0.2,1.6,0.4,2.2,0.7s1.1,0.7,1.5,1.2c0.8,0.9,1.3,2.2,1.3,3.7c0,1-0.2,1.9-0.6,2.7
			c-0.4,0.8-0.9,1.4-1.6,2c-0.7,0.6-1.6,1-2.6,1.3C250.1,57.8,249.1,58,247.9,58z"/>
		<path class="st9" d="M263.6,29.3h3.4v16.3l8.7-8.4h4.1l-8,7.6l9.2,12.6H277L269.5,47l-2.5,2.3v8.1h-3.4V29.3z"/>
		<path class="st9" d="M294.1,58c-1.6,0-3-0.2-4.2-0.7c-1.2-0.5-2.3-1.2-3.2-2.1c-0.9-0.9-1.5-2-2-3.4s-0.7-2.8-0.7-4.4
			c0-1.7,0.2-3.2,0.7-4.5c0.5-1.3,1.1-2.4,1.9-3.3c0.9-1,1.9-1.7,3.1-2.2c1.2-0.5,2.5-0.7,3.8-0.7c1.4,0,2.5,0.2,3.6,0.7
			c1,0.4,1.9,1.1,2.6,1.9c0.7,0.8,1.3,1.9,1.7,3.1c0.4,1.2,0.6,2.6,0.6,4.1v1.6h-14.4v0.1c0,2.2,0.6,3.9,1.7,5.1
			c0.6,0.6,1.2,1,2,1.3c0.8,0.3,1.7,0.5,2.8,0.5c1.1,0,2.2-0.2,3.3-0.5c1.2-0.3,2.4-0.9,3.7-1.5v3.3c-0.6,0.3-1.3,0.5-1.9,0.7
			c-0.6,0.2-1.2,0.4-1.8,0.5c-0.6,0.1-1.2,0.2-1.7,0.3C295.2,57.9,294.6,58,294.1,58z M298.6,45.5c0-1-0.2-1.9-0.4-2.7
			c-0.2-0.7-0.6-1.3-1-1.8c-0.4-0.5-1-0.9-1.6-1.1c-0.6-0.3-1.4-0.4-2.2-0.4c-1.6,0-3,0.5-4,1.6c-1,1.1-1.7,2.5-1.8,4.4L298.6,45.5z
			"/>
		<path class="st9" d="M316.4,57.1c-0.8-0.3-1.4-0.8-2-1.5c-1.1-1.3-1.6-3.1-1.6-5.4V31.9h-5.3v-2.6h8.7v21c0,1.5,0.3,2.6,0.8,3.4
			c0.3,0.4,0.6,0.7,1,0.9c0.4,0.2,0.9,0.3,1.4,0.3h3.9v2.8H319C318,57.6,317.1,57.4,316.4,57.1z"/>
		<path class="st9" d="M338.7,58c-1.6,0-3-0.2-4.2-0.7c-1.2-0.5-2.3-1.2-3.2-2.1c-0.9-0.9-1.5-2-2-3.4s-0.7-2.8-0.7-4.4
			c0-1.7,0.2-3.2,0.7-4.5c0.5-1.3,1.1-2.4,1.9-3.3c0.9-1,1.9-1.7,3.1-2.2c1.2-0.5,2.5-0.7,3.8-0.7c1.4,0,2.5,0.2,3.6,0.7
			c1,0.4,1.9,1.1,2.6,1.9c0.7,0.8,1.3,1.9,1.7,3.1c0.4,1.2,0.6,2.6,0.6,4.1v1.6h-14.4v0.1c0,2.2,0.6,3.9,1.7,5.1
			c0.6,0.6,1.2,1,2,1.3c0.8,0.3,1.7,0.5,2.8,0.5c1.1,0,2.2-0.2,3.3-0.5c1.2-0.3,2.4-0.9,3.7-1.5v3.3c-0.6,0.3-1.3,0.5-1.9,0.7
			c-0.6,0.2-1.2,0.4-1.8,0.5c-0.6,0.1-1.2,0.2-1.7,0.3C339.8,57.9,339.2,58,338.7,58z M343.2,45.5c0-1-0.2-1.9-0.4-2.7
			c-0.2-0.7-0.6-1.3-1-1.8c-0.4-0.5-1-0.9-1.6-1.1c-0.6-0.3-1.4-0.4-2.2-0.4c-1.6,0-3,0.5-4,1.6c-1,1.1-1.7,2.5-1.8,4.4L343.2,45.5z
			"/>
		<path class="st9" d="M358.1,56c-1-1-1.5-2.7-1.5-5.2V39.8h-5.4v-2.6h5.4v-5.3l3.3-1.4v6.7h7.6v2.6h-7.6v11.1
			c0,1.5,0.3,2.5,0.9,3.1c0.6,0.6,1.5,0.9,3,0.9h3.7v2.7h-4.1C360.9,57.5,359.1,57,358.1,56z"/>
		<path class="st9" d="M382.2,58c-1.4,0-2.6-0.2-3.7-0.7c-1.1-0.5-2-1.1-2.7-2c-0.8-0.9-1.3-2.1-1.7-3.4c-0.4-1.3-0.5-2.8-0.5-4.5
			c0-3.4,0.7-6.1,2.2-7.9c1.5-1.8,3.6-2.7,6.4-2.7c1.4,0,2.7,0.2,3.8,0.7c1.1,0.5,2,1.1,2.7,2c1.5,1.8,2.2,4.5,2.2,7.9
			c0,1.7-0.2,3.3-0.6,4.6c-0.4,1.3-0.9,2.5-1.7,3.4c-0.7,0.9-1.6,1.6-2.7,2C384.9,57.7,383.6,58,382.2,58z M382.2,55.1
			c1.7,0,3-0.7,3.9-2c0.9-1.3,1.3-3.3,1.3-5.8s-0.4-4.5-1.3-5.8c-0.9-1.3-2.2-2-3.9-2c-1.7,0-3,0.7-3.8,2c-0.9,1.3-1.3,3.3-1.3,5.8
			s0.4,4.5,1.3,5.8C379.2,54.5,380.5,55.1,382.2,55.1z"/>
		<path class="st9" d="M396.9,37.2h3l0.3,3c0.6-1.2,1.4-2,2.4-2.6c1-0.6,2.2-0.9,3.6-0.9c1.1,0,2,0.2,2.8,0.5s1.4,0.9,1.9,1.5
			c1,1.4,1.5,3.4,1.5,6.2v12.6H409V44.9c0-1.8-0.3-3.2-1-4c-0.6-0.9-1.6-1.3-3-1.3c-0.8,0-1.5,0.1-2.1,0.4s-1.1,0.7-1.5,1.2
			c-0.8,1.1-1.3,2.7-1.3,4.8v11.5h-3.3V37.2z"/>
		<path class="st9" d="M419.4,45.1h14.9v3h-14.9V45.1z"/>
		<path class="st9" d="M450.8,58c-1.5,0-2.9-0.2-4.1-0.7c-1.2-0.5-2.3-1.2-3.2-2.1c-0.9-0.9-1.5-2.1-2-3.4c-0.4-1.3-0.7-2.8-0.7-4.4
			c0-1.7,0.2-3.2,0.7-4.5s1.1-2.4,2-3.3c0.9-0.9,2-1.6,3.2-2.1c1.2-0.5,2.6-0.7,4.1-0.7c0.6,0,1.1,0,1.5,0.1s0.9,0.2,1.4,0.3
			c0.9,0.3,1.9,0.6,2.8,1.2v3.5c-0.4-0.4-0.9-0.7-1.3-1c-0.4-0.3-0.9-0.5-1.3-0.7c-0.9-0.3-1.9-0.5-3-0.5c-2.1,0-3.7,0.7-4.8,2
			c-1.1,1.4-1.7,3.3-1.7,5.8c0,1.2,0.1,2.2,0.4,3.2s0.7,1.8,1.3,2.6c1.1,1.4,2.8,2,4.9,2c0.6,0,1.2,0,1.7-0.1c0.5-0.1,1-0.2,1.4-0.4
			c0.5-0.2,1-0.4,1.4-0.7c0.4-0.3,0.8-0.6,1.1-0.9v3.5c-0.4,0.2-0.9,0.5-1.3,0.7c-0.5,0.2-1,0.4-1.4,0.5c-0.4,0.1-0.9,0.2-1.4,0.3
			C452,57.9,451.4,58,450.8,58z"/>
		<path class="st9" d="M471.4,58c-1.4,0-2.6-0.2-3.7-0.7c-1.1-0.5-2-1.1-2.7-2c-0.8-0.9-1.3-2.1-1.7-3.4c-0.4-1.3-0.5-2.8-0.5-4.5
			c0-3.4,0.7-6.1,2.2-7.9c1.5-1.8,3.6-2.7,6.4-2.7c1.4,0,2.7,0.2,3.8,0.7c1.1,0.5,2,1.1,2.7,2c1.5,1.8,2.2,4.5,2.2,7.9
			c0,1.7-0.2,3.3-0.6,4.6c-0.4,1.3-0.9,2.5-1.7,3.4c-0.7,0.9-1.6,1.6-2.7,2S472.8,58,471.4,58z M471.4,55.1c1.7,0,3-0.7,3.9-2
			c0.9-1.3,1.3-3.3,1.3-5.8s-0.4-4.5-1.3-5.8c-0.9-1.3-2.2-2-3.9-2c-1.7,0-3,0.7-3.8,2c-0.9,1.3-1.3,3.3-1.3,5.8s0.4,4.5,1.3,5.8
			C468.5,54.5,469.7,55.1,471.4,55.1z"/>
		<path class="st9" d="M492.7,58c-1.3,0-2.4-0.3-3.4-0.8s-1.8-1.2-2.4-2.1c-0.7-1-1.2-2.1-1.6-3.4c-0.4-1.3-0.5-2.8-0.5-4.4
			c0-1.6,0.2-3.1,0.5-4.4c0.3-1.3,0.9-2.5,1.6-3.4c0.7-0.9,1.6-1.6,2.6-2.1c1-0.5,2.1-0.7,3.2-0.7c1.2,0,2.3,0.3,3.2,0.8
			c0.9,0.5,1.7,1.3,2.2,2.3V29.3h3.3v28.2h-3l-0.3-2.6c-0.3,0.5-0.6,0.9-0.9,1.3c-0.4,0.4-0.8,0.7-1.3,1C495,57.7,493.9,58,492.7,58
			z M493.2,55.1c1.6,0,2.9-0.7,3.7-2c0.8-1.3,1.2-3.3,1.2-5.8s-0.4-4.5-1.2-5.8c-0.4-0.6-0.9-1.1-1.5-1.4c-0.6-0.3-1.3-0.5-2.2-0.5
			c-1.6,0-2.8,0.7-3.6,2c-0.8,1.3-1.2,3.3-1.2,5.8s0.4,4.5,1.2,5.8c0.4,0.7,0.9,1.2,1.6,1.5C491.7,55,492.4,55.1,493.2,55.1z"/>
		<path class="st9" d="M517.1,58c-1.6,0-3-0.2-4.2-0.7c-1.2-0.5-2.3-1.2-3.2-2.1s-1.5-2-2-3.4s-0.7-2.8-0.7-4.4
			c0-1.7,0.2-3.2,0.7-4.5c0.5-1.3,1.1-2.4,1.9-3.3c0.9-1,1.9-1.7,3.1-2.2c1.2-0.5,2.5-0.7,3.8-0.7c1.4,0,2.5,0.2,3.6,0.7
			s1.9,1.1,2.6,1.9c0.7,0.8,1.3,1.9,1.7,3.1c0.4,1.2,0.6,2.6,0.6,4.1v1.6h-14.4v0.1c0,2.2,0.6,3.9,1.7,5.1c0.6,0.6,1.2,1,2,1.3
			c0.8,0.3,1.7,0.5,2.8,0.5s2.2-0.2,3.3-0.5c1.2-0.3,2.4-0.9,3.7-1.5v3.3c-0.6,0.3-1.3,0.5-1.9,0.7c-0.6,0.2-1.2,0.4-1.8,0.5
			c-0.6,0.1-1.2,0.2-1.7,0.3C518.3,57.9,517.7,58,517.1,58z M521.7,45.5c0-1-0.2-1.9-0.4-2.7c-0.2-0.7-0.6-1.3-1-1.8
			c-0.4-0.5-1-0.9-1.6-1.1c-0.6-0.3-1.4-0.4-2.2-0.4c-1.6,0-3,0.5-4,1.6c-1,1.1-1.7,2.5-1.8,4.4L521.7,45.5z"/>
		<path class="st9" d="M530.9,45.1h14.9v3h-14.9V45.1z"/>
		<path class="st9" d="M560.4,65.4c-0.5,0-0.9,0-1.4-0.1c-0.5,0-1-0.1-1.5-0.2c-0.5-0.1-1-0.2-1.5-0.3c-0.5-0.1-1-0.3-1.5-0.4v-3.3
			c0.6,0.3,1.2,0.5,1.7,0.7s1.1,0.4,1.5,0.5c0.9,0.3,1.9,0.4,2.7,0.4c0.9,0,1.7-0.1,2.3-0.4c0.6-0.2,1.2-0.6,1.6-1.1
			c0.8-1,1.2-2.5,1.2-4.6v-2.4c-0.5,1.1-1.2,2-2.2,2.5c-0.9,0.6-2,0.8-3.3,0.8c-2.4,0-4.3-0.9-5.7-2.8s-2.1-4.4-2.1-7.6
			c0-3.2,0.7-5.7,2.1-7.6c0.7-1,1.5-1.7,2.5-2.1c0.9-0.5,2-0.7,3.2-0.7c0.6,0,1.2,0.1,1.8,0.2s1.1,0.3,1.5,0.6
			c0.9,0.5,1.7,1.3,2.2,2.4l0.3-2.6h3v18.9c0,3-0.7,5.3-2.2,6.9C565.3,64.6,563.2,65.4,560.4,65.4z M560.8,54.8c1.6,0,2.8-0.7,3.6-2
			c0.8-1.3,1.2-3.2,1.2-5.7c0-2.5-0.4-4.4-1.2-5.7c-0.4-0.7-0.9-1.2-1.5-1.5c-0.6-0.3-1.3-0.5-2-0.5c-1.6,0-2.9,0.6-3.7,1.9
			c-0.9,1.3-1.3,3.2-1.3,5.7c0,2.5,0.4,4.4,1.3,5.7C557.9,54.2,559.2,54.8,560.8,54.8z"/>
		<path class="st9" d="M584.1,58c-1.6,0-3-0.2-4.2-0.7c-1.2-0.5-2.3-1.2-3.2-2.1c-0.9-0.9-1.5-2-2-3.4s-0.7-2.8-0.7-4.4
			c0-1.7,0.2-3.2,0.7-4.5c0.5-1.3,1.1-2.4,1.9-3.3c0.9-1,1.9-1.7,3.1-2.2c1.2-0.5,2.5-0.7,3.8-0.7c1.4,0,2.5,0.2,3.6,0.7
			c1,0.4,1.9,1.1,2.6,1.9c0.7,0.8,1.3,1.9,1.7,3.1c0.4,1.2,0.6,2.6,0.6,4.1v1.6h-14.4v0.1c0,2.2,0.6,3.9,1.7,5.1
			c0.6,0.6,1.2,1,2,1.3c0.8,0.3,1.7,0.5,2.8,0.5c1.1,0,2.2-0.2,3.3-0.5c1.2-0.3,2.4-0.9,3.7-1.5v3.3c-0.6,0.3-1.3,0.5-1.9,0.7
			c-0.6,0.2-1.2,0.4-1.8,0.5c-0.6,0.1-1.2,0.2-1.7,0.3C585.2,57.9,584.6,58,584.1,58z M588.6,45.5c0-1-0.2-1.9-0.4-2.7
			c-0.2-0.7-0.6-1.3-1-1.8c-0.4-0.5-1-0.9-1.6-1.1c-0.6-0.3-1.4-0.4-2.2-0.4c-1.6,0-3,0.5-4,1.6c-1,1.1-1.7,2.5-1.8,4.4L588.6,45.5z
			"/>
		<path class="st9" d="M597.6,37.2h3l0.3,3c0.6-1.2,1.4-2,2.4-2.6c1-0.6,2.2-0.9,3.6-0.9c1.1,0,2,0.2,2.8,0.5s1.4,0.9,1.9,1.5
			c1,1.4,1.5,3.4,1.5,6.2v12.6h-3.3V44.9c0-1.8-0.3-3.2-1-4c-0.6-0.9-1.6-1.3-3-1.3c-0.8,0-1.5,0.1-2.1,0.4s-1.1,0.7-1.5,1.2
			c-0.8,1.1-1.3,2.7-1.3,4.8v11.5h-3.3V37.2z"/>
		<path class="st9" d="M628.7,58c-1.6,0-3-0.2-4.2-0.7c-1.2-0.5-2.3-1.2-3.2-2.1c-0.9-0.9-1.5-2-2-3.4s-0.7-2.8-0.7-4.4
			c0-1.7,0.2-3.2,0.7-4.5c0.5-1.3,1.1-2.4,1.9-3.3c0.9-1,1.9-1.7,3.1-2.2c1.2-0.5,2.5-0.7,3.8-0.7c1.4,0,2.5,0.2,3.6,0.7
			c1,0.4,1.9,1.1,2.6,1.9c0.7,0.8,1.3,1.9,1.7,3.1c0.4,1.2,0.6,2.6,0.6,4.1v1.6h-14.4v0.1c0,2.2,0.6,3.9,1.7,5.1
			c0.6,0.6,1.2,1,2,1.3c0.8,0.3,1.7,0.5,2.8,0.5c1.1,0,2.2-0.2,3.3-0.5c1.2-0.3,2.4-0.9,3.7-1.5v3.3c-0.6,0.3-1.3,0.5-1.9,0.7
			c-0.6,0.2-1.2,0.4-1.8,0.5c-0.6,0.1-1.2,0.2-1.7,0.3C629.8,57.9,629.2,58,628.7,58z M633.2,45.5c0-1-0.2-1.9-0.4-2.7
			c-0.2-0.7-0.6-1.3-1-1.8c-0.4-0.5-1-0.9-1.6-1.1c-0.6-0.3-1.4-0.4-2.2-0.4c-1.6,0-3,0.5-4,1.6c-1,1.1-1.7,2.5-1.8,4.4L633.2,45.5z
			"/>
		<path class="st9" d="M644.2,37.2h3l0.3,4c0.6-1.4,1.4-2.5,2.6-3.3c1.1-0.8,2.5-1.1,4.1-1.1c0.8,0,1.6,0.1,2.3,0.3
			c0.3,0.1,0.7,0.2,1,0.4s0.7,0.4,1,0.6v3.4c-0.7-0.6-1.4-1-2.2-1.2c-0.7-0.3-1.6-0.4-2.4-0.4c-2.1,0-3.6,0.7-4.7,2
			c-1.1,1.3-1.6,3.2-1.6,5.6v10.1h-3.3V37.2z"/>
		<path class="st9" d="M670.3,58c-2.1,0-3.8-0.6-5-1.8c-0.6-0.6-1-1.2-1.4-2s-0.5-1.7-0.5-2.7c0-2.2,0.8-3.9,2.3-5.1
			c1.5-1.2,3.7-1.8,6.7-1.8h4.5v-0.5c0-0.8-0.1-1.5-0.3-2.1s-0.5-1.1-0.9-1.5c-0.4-0.4-0.9-0.6-1.6-0.8c-0.7-0.2-1.4-0.3-2.3-0.3
			c-1.1,0-2.3,0.2-3.5,0.5c-1.2,0.3-2.3,0.8-3.4,1.4v-3.3c0.5-0.2,1.1-0.4,1.7-0.6c0.6-0.2,1.2-0.4,1.9-0.5c1.1-0.2,2.2-0.3,3.3-0.3
			c0.9,0,1.6,0.1,2.3,0.2s1.4,0.3,2,0.6c0.6,0.2,1.1,0.5,1.6,0.9c0.5,0.4,0.9,0.8,1.3,1.3c0.3,0.4,0.5,0.7,0.6,1.1
			c0.2,0.4,0.3,0.8,0.4,1.1c0.2,0.9,0.3,2.2,0.3,4V50c0,0.7,0,1.3,0.1,1.8c0,0.5,0,1,0.1,1.5c0.1,0.5,0.1,1,0.2,1.4
			c0.1,0.4,0.1,0.8,0.2,1c0.1,0.4,0.2,0.7,0.3,1.1s0.2,0.5,0.2,0.6H678c-0.1-0.1-0.1-0.4-0.2-0.6c-0.1-0.3-0.2-0.6-0.3-0.9
			c-0.1-0.3-0.1-0.5-0.2-0.8c-0.1-0.3-0.1-0.5-0.1-0.7c-0.3,0.6-0.8,1.1-1.3,1.6c-0.5,0.5-1.1,0.8-1.6,1.1c-0.6,0.3-1.2,0.5-1.8,0.7
			C671.7,57.9,671.1,58,670.3,58z M671,55.2c1.8,0,3.3-0.6,4.3-1.9c1.1-1.3,1.6-3.1,1.6-5.3v-0.7h-4.2c-1.9,0-3.4,0.3-4.4,1
			c-0.5,0.4-0.9,0.8-1.1,1.3s-0.4,1.1-0.4,1.8c0,0.6,0.1,1.2,0.3,1.6c0.2,0.5,0.5,0.9,0.8,1.2c0.3,0.3,0.8,0.6,1.3,0.7
			C669.7,55.1,670.3,55.2,671,55.2z"/>
		<path class="st9" d="M692.7,56c-1-1-1.5-2.7-1.5-5.2V39.8h-5.4v-2.6h5.4v-5.3l3.3-1.4v6.7h7.6v2.6h-7.6v11.1
			c0,1.5,0.3,2.5,0.9,3.1c0.6,0.6,1.5,0.9,3,0.9h3.7v2.7h-4.1C695.5,57.5,693.7,57,692.7,56z"/>
		<path class="st9" d="M716.8,58c-1.4,0-2.6-0.2-3.7-0.7c-1.1-0.5-2-1.1-2.7-2c-0.8-0.9-1.3-2.1-1.7-3.4c-0.4-1.3-0.5-2.8-0.5-4.5
			c0-3.4,0.7-6.1,2.2-7.9c1.5-1.8,3.6-2.7,6.4-2.7c1.4,0,2.7,0.2,3.8,0.7c1.1,0.5,2,1.1,2.7,2c1.5,1.8,2.2,4.5,2.2,7.9
			c0,1.7-0.2,3.3-0.6,4.6c-0.4,1.3-0.9,2.5-1.7,3.4c-0.7,0.9-1.6,1.6-2.7,2S718.2,58,716.8,58z M716.8,55.1c1.7,0,3-0.7,3.9-2
			c0.9-1.3,1.3-3.3,1.3-5.8s-0.4-4.5-1.3-5.8c-0.9-1.3-2.2-2-3.9-2c-1.7,0-3,0.7-3.8,2c-0.9,1.3-1.3,3.3-1.3,5.8s0.4,4.5,1.3,5.8
			C713.8,54.5,715.1,55.1,716.8,55.1z"/>
		<path class="st9" d="M733.4,37.2h3l0.3,4c0.6-1.4,1.4-2.5,2.6-3.3c1.1-0.8,2.5-1.1,4.1-1.1c0.8,0,1.6,0.1,2.3,0.3
			c0.3,0.1,0.7,0.2,1,0.4s0.7,0.4,1,0.6v3.4c-0.7-0.6-1.4-1-2.2-1.2c-0.7-0.3-1.6-0.4-2.4-0.4c-2.1,0-3.6,0.7-4.7,2
			c-1.1,1.3-1.6,3.2-1.6,5.6v10.1h-3.3V37.2z"/>
	</g>
	<path class="st9" d="M114.2,480.2c-2.5,0-4.6,2.1-4.6,4.6c0.1,1.1,1,1.9,2.1,1.8c1-0.1,1.7-0.8,1.8-1.8c0-0.4,0.2-0.7,0.6-0.8
		c0.4,0,0.7,0.2,0.8,0.6c0,0.1,0,0.1,0,0.2c0.1,1.1,1,1.9,2.1,1.8c1-0.1,1.7-0.8,1.8-1.8C118.8,482.2,116.7,480.2,114.2,480.2z"/>
	<circle class="st9" cx="105.3" cy="473.3" r="6.4"/>
	<circle class="st9" cx="123.1" cy="473.3" r="6.4"/>
	<path class="st9" d="M137,468.4c0-3-0.6-6-1.8-8.8c-1.1-2.7-2.8-5.1-4.9-7.2c-2.1-2.1-4.5-3.7-7.2-4.9c-2.8-1.2-5.8-1.8-8.8-1.8
		H114c-3,0-6,0.6-8.8,1.8c-5.4,2.3-9.8,6.6-12.1,12.1c-1.2,2.8-1.8,5.8-1.8,8.8v0.4c0,4.8,1.5,9.5,4.3,13.3c-0.8,1-1.3,2.2-1.3,3.5
		v0.1c0,3.1,2.5,5.5,5.6,5.5h1.9v6.1c0,1.1,0.8,1.9,1.9,2c0,0,0,0,0,0h20.7c1.1,0,1.9-0.9,1.9-1.9c0,0,0,0,0,0v-6.1h2
		c3.1,0,5.5-2.5,5.6-5.5v-0.1c0-1.3-0.4-2.5-1.3-3.5c2.8-3.9,4.3-8.6,4.2-13.3V468.4z M133.2,468.8c0,4.5-1.7,8.9-4.6,12.4
		c-0.4,0.5-0.6,1.1-0.5,1.7c0.1,0.6,0.5,1.1,1,1.4c0.6,0.3,0.9,0.9,0.9,1.5l0,0c0,0.9-0.7,1.7-1.7,1.7h-3.9c-1.1,0-2,0.8-2,1.9
		c0,0,0,0.1,0,0.1v6.1H119v-2.5c0-0.9-0.7-1.6-1.6-1.6c-0.9,0-1.6,0.7-1.6,1.6v2.5h-3.3v-2.5c-0.1-0.9-0.8-1.5-1.7-1.5
		c-0.8,0.1-1.4,0.7-1.5,1.5v2.5h-3.6v-6.1c0-1.1-0.8-2-1.9-2c0,0-0.1,0-0.1,0H100c-0.9,0-1.7-0.7-1.7-1.7l0,0v0
		c0-0.6,0.3-1.2,0.9-1.5c1-0.5,1.3-1.8,0.8-2.7c-0.1-0.1-0.1-0.2-0.2-0.3c-3-3.4-4.6-7.8-4.6-12.4v-0.4c0-10.3,8.4-18.8,18.7-18.8
		c0,0,0,0,0.1,0h0.4c10.3,0,18.8,8.4,18.8,18.7c0,0,0,0,0,0.1L133.2,468.8L133.2,468.8z"/>
	<path class="st9" d="M78.8,493.8l-4.6,4.6l-28.4-23.7L74.2,451l4.6,4.7l-23.1,19L78.8,493.8z"/>
	<path class="st9" d="M176.2,438l-29,68.9h-7l29-68.9H176.2z"/>
	<path class="st9" d="M191.7,455.7l4.6-4.7l28.4,23.7l-28.4,23.8l-4.6-4.6l23-19L191.7,455.7z"/>
	<path class="st10" d="M465.2,465.2l-37.3-37.3c-3.9-4.1-10.4-4.2-14.5-0.3c-4.1,3.9-4.2,10.4-0.3,14.5c0.1,0.1,0.2,0.2,0.3,0.3
		l19.7,19.7H375c-5.7,0-10.3,4.6-10.3,10.3c0,5.7,4.6,10.3,10.3,10.3h58.1l-19.7,19.7c-4,4-4,10.5,0,14.5c4,4,10.5,4,14.5,0l0,0
		l37.3-37.3C469.2,475.7,469.2,469.2,465.2,465.2C465.2,465.2,465.2,465.2,465.2,465.2z"/>
	<path class="st11" d="M641.2,463.2l-4.6,4.6l-28.4-23.7l28.4-23.7l4.6,4.7L618.1,444L641.2,463.2z"/>
	<path class="st11" d="M738.5,407.4l-29,68.9h-7l29-68.9H738.5z"/>
	<path class="st11" d="M754.1,425.1l4.6-4.7l28.4,23.7l-28.4,23.7l-4.6-4.6l23.1-19L754.1,425.1z"/>
	<g id="g4224">
		<g id="g4396">
			<path id="path4398" class="st11" d="M693.3,422.1c6.6,0,12,5.4,12,12c0,4-2,7.8-5.4,10c0,0.5,0.1,0.9,0.1,1.4
				c0,12.9-10.5,23.4-23.4,23.4c-12.9,0-23.4-10.5-23.4-23.4c0-0.5,0-0.9,0-1.4c-5.5-3.7-7-11.1-3.4-16.6c2.2-3.4,6-5.4,10-5.4l0,0
				c2.5,0,4.9,0.8,6.9,2.2c6.2-2.9,13.4-2.9,19.6,0C688.4,422.9,690.8,422.1,693.3,422.1z"/>
			<path id="path4400" class="st12" d="M693.8,424.5c5.2,0,9.5,4.2,9.5,9.5c0,3.2-1.6,6.2-4.3,7.9c-0.4-6.8-4.5-12.8-10.7-15.7
				C689.9,425.1,691.8,424.5,693.8,424.5z"/>
			<path id="path4402" class="st12" d="M659.2,424.5c-5.2,0-9.5,4.2-9.5,9.5c0,3.2,1.6,6.2,4.3,7.9c0.4-6.8,4.5-12.8,10.7-15.7
				C663.1,425.1,661.2,424.5,659.2,424.5z"/>
		</g>
		<path id="path4431" class="st13" d="M675.4,422.1l0.2,3.3l-8.8,0.7l0,0l9,0.6l0.1,2.1l-11,0.8l0,0l11.1,0.6l0.1,2.2l-15,1l0,0
			l15.2,0.3l0.5,11.3v0.1l0.5-11.4l15.2-0.3l0,0l-15-1l0.1-2.2l11.1-0.6l0,0l-11-0.8l0.1-2.1l9-0.6l0,0l-8.8-0.7l0.2-3.3H675.4z"/>
		<path id="path4283" d="M676.5,455l-3.5-3.3l-3.5-3.3c4.3-2.4,9.7-2.4,14,0l-3.6,3.3L676.5,455z"/>
	</g>
	<path class="st14" d="M641.2,524.5l-4.6,4.7l-28.4-23.7l28.4-23.7l4.6,4.7l-23.1,19L641.2,524.5z"/>
	<path class="st14" d="M738.5,468.7l-29,68.9h-7l29-68.9L738.5,468.7z"/>
	<path class="st14" d="M754.1,486.4l4.6-4.7l28.4,23.7l-28.4,23.7l-4.6-4.7l23.1-19L754.1,486.4z"/>
	<g id="g4218">
		<path id="path4196" class="st15" d="M693.3,482.6c6.6,0,12,5.4,12,12c0,4-2,7.8-5.4,10c0,0.5,0.1,0.9,0.1,1.4
			c0,7.2,12.4,23.4-23.4,23.4s-23.4-16.2-23.4-23.4c0-0.5,0-0.9,0-1.4c-5.6-3.6-7.2-11-3.6-16.6c3.6-5.6,11-7.2,16.6-3.6
			c0.2,0.1,0.4,0.3,0.6,0.4c6.2-2.9,13.4-2.9,19.6,0C688.4,483.4,690.8,482.6,693.3,482.6L693.3,482.6z"/>
		<path id="path4198" class="st14" d="M693.8,484.9c5.2,0,9.5,4.3,9.5,9.5c0,3.2-1.6,6.1-4.3,7.9c-0.4-6.8-4.5-12.8-10.7-15.7
			C689.9,485.5,691.8,484.9,693.8,484.9z"/>
		<path id="path4200" class="st14" d="M659.2,484.9c-5.2,0-9.5,4.3-9.5,9.5c0,3.2,1.6,6.1,4.3,7.9c0.4-6.8,4.5-12.8,10.7-15.7
			C663.1,485.5,661.2,484.9,659.2,484.9L659.2,484.9z"/>
		<path id="path4212" d="M676.5,515.5l-3.5-3.3l-3.5-3.2c4.3-2.4,9.7-2.4,14,0l-3.6,3.2L676.5,515.5z"/>
	</g>
	<path class="st16" d="M641.2,585.8l-4.6,4.7l-28.4-23.7l28.4-23.7l4.6,4.7l-23.1,19L641.2,585.8z"/>
	<path class="st16" d="M738.5,530l-29,68.9h-7l29-68.9H738.5z"/>
	<path class="st16" d="M754.1,547.6l4.6-4.7l28.4,23.7l-28.4,23.7l-4.6-4.7l23.1-19L754.1,547.6z"/>
	<g id="g4362">
		<path id="path4165" class="st16" d="M646.4,547.6l3.3,5.7c-3.4,5.5-1.9,12.8,3.5,16.3c0,0.5,0,0.9,0,1.4
			c0,12.9,10.5,23.4,23.4,23.4h0l0,0c12.9,0,23.4-10.4,23.4-23.3c0,0,0-0.1,0-0.1l0,0c0-0.5,0-0.9-0.1-1.4c5.4-3.6,7-10.9,3.5-16.4
			l3.3-5.6h-13.5c-2.5,0-4.9,0.8-6.9,2.2c-6.2-2.9-13.4-2.9-19.6,0c-2-1.4-4.4-2.2-6.9-2.2L646.4,547.6L646.4,547.6z"/>
		<path id="path4167" class="st17" d="M693.8,549.9c5.2,0,9.5,4.3,9.5,9.5c0,3.2-1.6,6.1-4.3,7.9c-0.4-6.8-4.5-12.8-10.7-15.7
			C689.9,550.5,691.8,549.9,693.8,549.9z"/>
		<path id="path4169" class="st17" d="M659.2,549.9c-5.2,0-9.5,4.3-9.5,9.5c0,3.2,1.6,6.1,4.3,7.9c0.4-6.8,4.5-12.8,10.7-15.7
			C663.1,550.5,661.2,549.9,659.2,549.9z"/>
		<path id="path4171" class="st18" d="M688.2,578.1c0,4-5.2,7.2-11.7,7.2l0,0c-6.4,0-11.7-3.2-11.7-7.2l0,0c0-4,5.2-7.2,11.7-7.2
			l0,0C683,570.8,688.2,574.1,688.2,578.1z"/>
		<path id="path4173" class="st17" d="M674.7,578.1c0,2-1.6,3.6-3.6,3.6c-2,0-3.6-1.6-3.6-3.6c0-2,1.6-3.6,3.6-3.6c0,0,0,0,0,0
			C673.1,574.5,674.7,576.1,674.7,578.1C674.7,578.1,674.7,578.1,674.7,578.1z"/>
		<path id="circle4185" class="st17" d="M685.6,578.1c0,2-1.6,3.6-3.6,3.6h0l0,0c-2,0-3.6-1.6-3.6-3.6c0,0,0,0,0,0l0,0
			c0-2,1.6-3.6,3.6-3.6c0,0,0,0,0,0l0,0C684,574.5,685.6,576.1,685.6,578.1L685.6,578.1z"/>
	</g>
	<path class="st19" d="M641.2,401.9l-4.6,4.6l-28.4-23.7l28.4-23.7l4.6,4.7l-23.1,19L641.2,401.9z"/>
	<path class="st19" d="M738.5,346.1l-29,68.9h-7l29-68.9H738.5z"/>
	<path class="st19" d="M754.1,363.8l4.6-4.7l28.4,23.7l-28.4,23.7l-4.6-4.6l23.1-19L754.1,363.8z"/>
	<g id="g4185">
		<g id="g4159">
			<path id="path4161" class="st20" d="M693.1,361.2c6.6,0,11.9,5.3,11.9,11.9c0,4-2,7.7-5.4,10c0,0.5,0.1,0.9,0.1,1.4
				c0,12.8-1.8,23.2-23.2,23.2s-23.2-10.4-23.2-23.2c0-0.5,0-0.9,0-1.4c-5.5-3.6-7-11-3.4-16.5c3.6-5.5,11-7,16.5-3.4
				c0.1,0.1,0.2,0.1,0.3,0.2c6.2-2.9,13.3-2.9,19.5,0C688.2,361.9,690.7,361.2,693.1,361.2z"/>
			<path id="path4163" class="st21" d="M693.7,363.5c5.2,0,9.4,4.2,9.4,9.5c0,3.2-1.6,6.1-4.2,7.8c-0.4-6.7-4.5-12.7-10.6-15.6
				C689.8,364.1,691.7,363.5,693.7,363.5z"/>
			<path id="path4166" class="st21" d="M659.3,363.5c-5.2,0-9.4,4.2-9.4,9.5c0,3.2,1.6,6.1,4.2,7.8c0.4-6.7,4.5-12.7,10.6-15.6
				C663.1,364.1,661.3,363.5,659.3,363.5z"/>
			<path id="path4168" class="st22" d="M676.5,392.7l-3.5-3.2l-3.5-2.1c4.3-2.4,9.6-2.4,13.9,0l-3.5,2.1L676.5,392.7z"/>
		</g>
		<path id="path4177" class="st19" d="M661.2,360.9c-2.9,0-5.7,0.9-8.1,2.5c-8.2,5.8-7.7,16.2,0.3,19.7l1.3-5.2
			c2.1-0.5,4.2-1.3,6-2.5c5.4-3.5,8.1-8.8,6.1-12C665.8,361.8,663.7,360.9,661.2,360.9z"/>
		<path id="path4183" class="st19" d="M691.9,360.9c2.9,0,5.7,0.9,8.1,2.5c8.2,5.8,7.7,16.2-0.3,19.7l-1.3-5.2
			c-2.1-0.5-4.2-1.3-6-2.5c-5.4-3.5-8.1-8.8-6.1-12C687.4,361.8,689.4,360.9,691.9,360.9L691.9,360.9z"/>
	</g>
	<path class="st23" d="M465.2,192.4l-37.3-37.3c-3.9-4.1-10.4-4.2-14.5-0.3c-4.1,3.9-4.2,10.4-0.3,14.5c0.1,0.1,0.2,0.2,0.3,0.3
		l19.7,19.7H375c-5.7,0-10.3,4.6-10.3,10.3c0,5.7,4.6,10.3,10.3,10.3l0,0h58.1l-19.7,19.7c-4.1,3.9-4.2,10.4-0.3,14.5
		c3.9,4.1,10.4,4.2,14.5,0.3c0.1-0.1,0.2-0.2,0.3-0.3l37.3-37.3C469.2,203,469.2,196.5,465.2,192.4
		C465.2,192.5,465.2,192.5,465.2,192.4z"/>
	<path class="st24" d="M183.9,163.7v60.8H86.7v-83.9c0-2.3,1.9-4.2,4.2-4.2h65.7l0.3,0.3v27L183.9,163.7z"/>
	<path class="st25" d="M183.9,224.6v34.3c0,2.3-1.9,4.2-4.2,4.2l0,0H90.9c-2.3,0-4.2-1.9-4.2-4.2l0,0v-34.3H183.9z"/>
	<polygon class="st26" points="183.9,163.7 183.9,163.7 156.9,163.7 156.9,136.7 	"/>
	<path class="st9" d="M103.6,256.6c-0.6,0-1.2,0-1.7-0.1c-0.5-0.1-1.1-0.2-1.6-0.3c-0.6-0.1-1.1-0.3-1.7-0.5s-1.1-0.4-1.7-0.8v-5.6
		c0.4,0.5,0.9,0.9,1.4,1.3c0.5,0.3,1,0.7,1.5,0.9c1,0.5,2.1,0.7,3.2,0.8c1,0.1,2-0.3,2.8-1c0.7-0.9,1-1.9,0.9-3v-12.2h-5.9v-4.2
		h10.7v16.5c0,3-0.6,5.1-1.9,6.4c-0.7,0.7-1.6,1.2-2.5,1.5C106,256.5,104.8,256.6,103.6,256.6z"/>
	<path class="st9" d="M124.7,256.6c-0.6,0-1.3,0-1.9-0.1c-0.6-0.1-1.2-0.2-1.8-0.3c-1.2-0.3-2.4-0.7-3.5-1.3v-5
		c0.6,0.4,1.3,0.8,1.9,1.2c0.6,0.3,1.2,0.6,1.8,0.8c1.1,0.4,2.3,0.7,3.5,0.7c0.5,0,1.1-0.1,1.6-0.2c0.4-0.1,0.8-0.3,1.2-0.6
		c0.7-0.5,1-1.4,1-2.2c0-0.7-0.2-1.4-0.7-1.9c-0.2-0.3-0.5-0.5-0.8-0.8c-0.3-0.2-0.7-0.4-1.1-0.5l-2.4-0.9c-1.1-0.4-2.1-0.9-3.1-1.4
		c-0.7-0.4-1.3-0.9-1.8-1.5c-0.9-1.2-1.4-2.6-1.3-4.1c-0.1-2,0.7-3.9,2.1-5.2c1.6-1.3,3.7-2,5.8-1.9c0.6,0,1.2,0,1.7,0.1
		c0.5,0.1,1.1,0.1,1.6,0.3c0.5,0.1,1.1,0.3,1.6,0.5c0.6,0.2,1.1,0.4,1.7,0.7v4.7c-1-0.7-2-1.3-3.1-1.7c-1-0.4-2.1-0.6-3.2-0.6
		c-0.9-0.1-1.9,0.2-2.7,0.7c-0.6,0.5-1,1.2-0.9,2c0,0.6,0.2,1.2,0.7,1.7c0.3,0.3,0.6,0.5,1,0.7c0.6,0.3,1.2,0.6,1.8,0.8l2.1,0.8
		c1.7,0.5,3.2,1.5,4.3,2.8c1,1.3,1.5,2.9,1.4,4.6c0.1,2-0.7,4-2.2,5.4C129.6,256,127.5,256.6,124.7,256.6z"/>
	<path class="st9" d="M145.3,256.6c-1.3,0-2.6-0.2-3.8-0.8c-1.1-0.6-1.9-1.4-2.6-2.4c-1.4-2.1-2.2-5.3-2.2-9.4
		c0-1.8,0.2-3.7,0.5-5.5c0.3-1.4,0.8-2.8,1.6-4c0.7-1,1.6-1.9,2.8-2.4c1.1-0.5,2.4-0.8,3.6-0.8c1.3,0,2.6,0.2,3.7,0.8
		c1.1,0.6,2,1.4,2.7,2.4c1.4,2.1,2.1,5.3,2.1,9.4c0,4.1-0.7,7.3-2.1,9.4c-0.7,1-1.6,1.8-2.6,2.4
		C147.9,256.4,146.6,256.6,145.3,256.6z M145.3,252.3c1.2,0,2.3-0.8,2.7-2c1.1-4.1,1.1-8.5,0-12.7c-0.4-1.2-1.5-2-2.7-2
		c-0.6,0-1.1,0.2-1.6,0.5c-0.5,0.4-0.8,0.9-1.1,1.5c-1.1,4.1-1.1,8.5,0,12.7C143,251.5,144,252.3,145.3,252.3L145.3,252.3z"/>
	<path class="st9" d="M157.3,231.8h5.2l6.8,17.7v-17.7h4.2v24.3h-5.1l-6.8-17.7v17.7h-4.2L157.3,231.8z"/>
	<path class="st25" d="M110,206.5c-1.1-0.9-1.6-2.8-1.6-5.6v-4.1c0-0.8-0.1-1.6-0.2-2.4c-0.1-0.6-0.4-1.1-0.8-1.6
		c-0.4-0.4-0.9-0.7-1.5-0.8c-0.7-0.2-1.5-0.3-2.2-0.3H102v-3.6h1.8c1.8,0,3-0.4,3.7-1.1s1-2.1,1-4v-4c0-2.8,0.5-4.7,1.6-5.6
		c1-0.9,3.2-1.4,6.3-1.4h2.8v3.6h-2.3c-1-0.1-1.9,0.2-2.6,0.8c-0.4,0.6-0.7,1.7-0.7,3.5v4c0.1,1.5-0.2,3.1-0.9,4.4
		c-0.9,1-2,1.5-3.3,1.6c1.3,0.1,2.5,0.7,3.3,1.7c0.7,1.3,1.1,2.9,0.9,4.4v3.9c0,1.8,0.2,3,0.7,3.6c0.7,0.6,1.7,0.9,2.6,0.8h2.3v3.6
		h-2.8C113.2,207.9,111.1,207.4,110,206.5z"/>
	<path class="st25" d="M130.6,208.1l0.3-0.1c0.7-0.3,1.4-0.6,2-1.1c0.6-0.4,1.1-0.9,1.5-1.4c0.4-0.5,0.7-1,0.9-1.6
		c0.2-0.6,0.4-1.3,0.4-2h-0.2h-0.2c-0.4,0-0.9-0.1-1.3-0.2c-0.4-0.1-0.8-0.3-1.1-0.6c-0.3-0.3-0.6-0.7-0.7-1.1
		c-0.2-0.4-0.2-0.9-0.2-1.4c-0.1-0.9,0.3-1.8,1-2.4c0.2-0.2,0.3-0.3,0.5-0.4c0.2-0.1,0.4-0.2,0.6-0.3c0.2-0.1,0.4-0.1,0.6-0.1
		c0.2,0,0.5-0.1,0.7-0.1c0.3,0,0.6,0,0.9,0.1c0.3,0.1,0.5,0.2,0.8,0.3c0.5,0.2,0.9,0.6,1.2,1.1c0.2,0.3,0.3,0.5,0.4,0.8
		c0.1,0.3,0.2,0.6,0.3,0.9c0.1,0.3,0.2,0.7,0.2,1.1c0,0.4,0.1,0.8,0.1,1.2c0,1.1-0.2,2.2-0.5,3.3c-0.3,1-0.8,1.9-1.4,2.8
		c-1.4,1.8-3.2,3.1-5.3,3.8l-0.3,0.1L130.6,208.1z M135.1,188.3c-0.5,0-1-0.1-1.4-0.3c-0.4-0.2-0.8-0.4-1.1-0.7
		c-0.4-0.3-0.6-0.8-0.8-1.2c-0.2-0.5-0.2-0.9-0.2-1.4c0-0.5,0.1-1,0.3-1.5c0.2-0.4,0.4-0.8,0.7-1.1c0.3-0.3,0.7-0.6,1.2-0.8
		c0.4-0.2,0.9-0.3,1.4-0.2c0.9,0,1.8,0.3,2.5,1c0.3,0.3,0.6,0.7,0.7,1.1c0.2,0.5,0.3,1,0.3,1.5c0,0.5-0.1,1-0.3,1.5
		c-0.2,0.4-0.4,0.8-0.7,1.1c-0.3,0.3-0.7,0.6-1.1,0.7C136.1,188.2,135.6,188.3,135.1,188.3z"/>
	<path class="st25" d="M151.3,204.2h2.3c1,0.1,1.9-0.2,2.7-0.8c0.5-0.5,0.7-1.7,0.7-3.5V196c-0.1-1.5,0.2-3.1,0.9-4.4
		c0.4-0.5,0.8-0.8,1.3-1.1c0.6-0.3,1.3-0.5,2-0.6c-1.3-0.1-2.5-0.7-3.3-1.6c-0.7-1.3-1.1-2.9-0.9-4.4v-4c0-1.8-0.2-2.9-0.7-3.5
		c-0.3-0.3-0.7-0.5-1.1-0.6c-0.5-0.1-1.1-0.2-1.6-0.2h-2.3V172h2.9c3.1,0,5.3,0.5,6.3,1.4s1.6,2.8,1.6,5.6v4.1
		c0,0.8,0.1,1.7,0.3,2.5c0.1,0.5,0.4,1,0.8,1.5c0.4,0.4,0.9,0.7,1.4,0.8c0.8,0.2,1.5,0.3,2.3,0.3h1.8v3.6h-1.8c-1.8,0-3,0.4-3.7,1.1
		s-1.1,2-1.1,3.9v4.1c0,2.8-0.5,4.7-1.6,5.6s-3.2,1.4-6.3,1.4h-2.9L151.3,204.2z"/>
	<line class="st27" x1="859.1" y1="323.2" x2="48" y2="323.2"/>
	<g>
		<g class="st8">
			<path class="st10" d="M610.2,137.1h4.2c1.7,0,3,0.4,3.8,1.2c0.4,0.4,0.8,0.8,1,1.4c0.2,0.5,0.3,1.2,0.3,1.8c0,0.5-0.1,1-0.2,1.4
				c-0.1,0.4-0.4,0.8-0.6,1.1c-0.5,0.7-1.3,1-2.3,1.2c0.2,0.1,0.5,0.2,0.7,0.3s0.4,0.3,0.6,0.5s0.4,0.5,0.6,0.8
				c0.2,0.4,0.5,0.8,0.8,1.5l2.1,4.2H619l-1.8-3.8c-0.2-0.5-0.5-1-0.7-1.4c-0.2-0.4-0.4-0.6-0.7-0.7c-0.2-0.2-0.5-0.3-0.7-0.4
				c-0.3-0.1-0.6-0.1-0.9-0.1h-1.9v6.4h-2.1L610.2,137.1L610.2,137.1z M614.5,144.2c1,0,1.7-0.2,2.2-0.7c0.2-0.2,0.4-0.5,0.5-0.8
				s0.2-0.7,0.2-1.2s-0.1-0.8-0.2-1.2c-0.1-0.4-0.3-0.6-0.6-0.8c-0.2-0.2-0.5-0.4-0.9-0.5c-0.4-0.1-0.8-0.2-1.3-0.2h-2.2v5.4
				L614.5,144.2L614.5,144.2z"/>
			<path class="st10" d="M627.5,152.6c-0.8,0-1.5-0.1-2.1-0.4c-0.6-0.2-1.2-0.7-1.5-1.2c-0.4-0.5-0.7-1.2-1-1.9
				c-0.2-0.7-0.3-1.6-0.3-2.5c0-1.9,0.4-3.4,1.3-4.4c0.8-1,2.1-1.5,3.6-1.5c0.8,0,1.5,0.1,2.1,0.4c0.6,0.2,1.1,0.7,1.5,1.2
				c0.8,1,1.3,2.5,1.3,4.4c0,1-0.1,1.8-0.3,2.6c-0.2,0.7-0.5,1.4-1,1.9c-0.4,0.5-0.9,0.9-1.5,1.2C629,152.5,628.3,152.6,627.5,152.6
				z M627.5,151.1c1,0,1.7-0.4,2.2-1.2c0.5-0.7,0.7-1.8,0.7-3.3c0-1.5-0.2-2.5-0.7-3.3c-0.5-0.7-1.2-1.1-2.2-1.1
				c-1,0-1.7,0.4-2.2,1.1c-0.5,0.7-0.7,1.8-0.7,3.3c0,1.5,0.2,2.5,0.7,3.3C625.8,150.7,626.6,151.1,627.5,151.1z"/>
			<path class="st10" d="M640.1,152.6c-0.8,0-1.5-0.1-2.1-0.4c-0.6-0.2-1.2-0.7-1.5-1.2c-0.4-0.5-0.7-1.2-1-1.9
				c-0.2-0.7-0.3-1.6-0.3-2.5c0-1.9,0.4-3.4,1.3-4.4c0.8-1,2.1-1.5,3.6-1.5c0.8,0,1.5,0.1,2.1,0.4c0.6,0.2,1.1,0.7,1.5,1.2
				c0.8,1,1.3,2.5,1.3,4.4c0,1-0.1,1.8-0.3,2.6c-0.2,0.7-0.5,1.4-1,1.9c-0.4,0.5-0.9,0.9-1.5,1.2
				C641.6,152.5,640.9,152.6,640.1,152.6z M640.1,151.1c1,0,1.7-0.4,2.2-1.2c0.5-0.7,0.7-1.8,0.7-3.3c0-1.5-0.2-2.5-0.7-3.3
				c-0.5-0.7-1.2-1.1-2.2-1.1c-1,0-1.7,0.4-2.2,1.1c-0.5,0.7-0.7,1.8-0.7,3.3c0,1.5,0.2,2.5,0.7,3.3
				C638.4,150.7,639.1,151.1,640.1,151.1z"/>
			<path class="st10" d="M651.6,151.5c-0.6-0.5-0.8-1.5-0.8-2.9v-6.2h-3v-1.5h3v-3l1.9-0.8v3.8h4.2v1.5h-4.2v6.2
				c0,0.8,0.2,1.4,0.5,1.8c0.3,0.3,0.8,0.5,1.7,0.5h2.1v1.5h-2.3C653.2,152.4,652.2,152.1,651.6,151.5z"/>
			<path class="st10" d="M661.3,137.1h9v1.8h-6.9v4.7h6.2v1.8h-6.2v7.1h-2.1V137.1z"/>
			<path class="st10" d="M677.7,152.6c-0.8,0-1.5-0.1-2.1-0.4c-0.6-0.2-1.2-0.7-1.5-1.2c-0.4-0.5-0.7-1.2-1-1.9
				c-0.2-0.7-0.3-1.6-0.3-2.5c0-1.9,0.4-3.4,1.3-4.4c0.8-1,2.1-1.5,3.6-1.5c0.8,0,1.5,0.1,2.1,0.4c0.6,0.2,1.1,0.7,1.5,1.2
				c0.8,1,1.3,2.5,1.3,4.4c0,1-0.1,1.8-0.3,2.6c-0.2,0.7-0.5,1.4-1,1.9c-0.4,0.5-0.9,0.9-1.5,1.2
				C679.2,152.5,678.6,152.6,677.7,152.6z M677.7,151.1c1,0,1.7-0.4,2.2-1.2c0.5-0.7,0.7-1.8,0.7-3.3c0-1.5-0.2-2.5-0.7-3.3
				c-0.5-0.7-1.2-1.1-2.2-1.1c-1,0-1.7,0.4-2.2,1.1c-0.5,0.7-0.7,1.8-0.7,3.3c0,1.5,0.2,2.5,0.7,3.3
				C676.1,150.7,676.8,151.1,677.7,151.1z"/>
			<path class="st10" d="M690.9,152.1c-0.4-0.2-0.8-0.4-1.2-0.8c-0.6-0.7-0.9-1.8-0.9-3v-10.4h-3v-1.5h4.9v11.8
				c0,0.8,0.2,1.5,0.5,1.9c0.2,0.2,0.4,0.4,0.6,0.5c0.2,0.1,0.5,0.2,0.8,0.2h2.2v1.6h-2.4C691.8,152.4,691.3,152.3,690.9,152.1z"/>
			<path class="st10" d="M702.3,152.6c-0.7,0-1.3-0.1-1.9-0.4s-1-0.7-1.4-1.2c-0.4-0.5-0.7-1.2-0.9-1.9c-0.2-0.7-0.3-1.6-0.3-2.5
				c0-0.9,0.1-1.8,0.3-2.5c0.2-0.7,0.5-1.4,0.9-1.9c0.4-0.5,0.9-0.9,1.5-1.2c0.5-0.2,1.2-0.4,1.8-0.4c0.7,0,1.3,0.1,1.8,0.4
				s0.9,0.7,1.2,1.3v-5.9h1.9v15.9h-1.7l-0.2-1.5c-0.2,0.2-0.3,0.5-0.5,0.7c-0.2,0.2-0.4,0.4-0.7,0.5
				C703.6,152.5,703,152.6,702.3,152.6z M702.5,151.1c0.9,0,1.6-0.4,2.1-1.2c0.5-0.7,0.7-1.8,0.7-3.3c0-1.5-0.2-2.5-0.7-3.3
				c-0.2-0.4-0.5-0.6-0.8-0.8c-0.4-0.2-0.7-0.3-1.2-0.3c-0.9,0-1.6,0.4-2.1,1.1c-0.5,0.7-0.7,1.8-0.7,3.3c0,1.5,0.2,2.5,0.7,3.3
				c0.2,0.4,0.5,0.7,0.8,0.8C701.8,150.9,702.1,151.1,702.5,151.1z"/>
			<path class="st10" d="M716,152.6c-0.8,0-1.6-0.1-2.4-0.4c-0.7-0.2-1.3-0.7-1.8-1.2c-0.5-0.5-0.8-1.2-1.1-1.9
				c-0.2-0.7-0.4-1.6-0.4-2.5c0-1,0.1-1.8,0.4-2.5c0.2-0.7,0.6-1.3,1.1-1.9c0.5-0.5,1.1-1,1.8-1.2s1.4-0.4,2.1-0.4
				c0.8,0,1.5,0.1,2,0.4c0.5,0.2,1.1,0.6,1.5,1.1c0.4,0.5,0.7,1,0.9,1.8c0.2,0.7,0.3,1.5,0.3,2.3v0.9h-8.1v0.1c0,1.3,0.3,2.2,1,2.9
				c0.3,0.3,0.7,0.6,1.2,0.7c0.4,0.2,1,0.2,1.6,0.2s1.3-0.1,1.9-0.3c0.7-0.2,1.3-0.5,2.1-0.8v1.9c-0.4,0.1-0.7,0.3-1,0.4
				c-0.4,0.1-0.7,0.2-1,0.3c-0.3,0.1-0.7,0.1-1,0.2C716.7,152.6,716.3,152.6,716,152.6z M718.6,145.6c0-0.6-0.1-1.1-0.2-1.5
				c-0.1-0.4-0.3-0.7-0.5-1c-0.2-0.3-0.5-0.5-0.9-0.7c-0.4-0.1-0.8-0.2-1.2-0.2c-0.9,0-1.6,0.3-2.2,0.9c-0.6,0.6-0.9,1.5-1,2.5
				L718.6,145.6z"/>
			<path class="st10" d="M724.8,140.9h1.7l0.2,2.2c0.3-0.8,0.8-1.5,1.5-1.9c0.7-0.4,1.4-0.7,2.3-0.7c0.5,0,0.9,0.1,1.3,0.2
				c0.2,0.1,0.4,0.1,0.6,0.2c0.2,0.1,0.4,0.2,0.5,0.3v1.9c-0.4-0.3-0.8-0.5-1.2-0.7c-0.4-0.1-0.9-0.2-1.4-0.2
				c-1.2,0-2.1,0.4-2.7,1.1c-0.6,0.7-0.9,1.8-0.9,3.1v5.7h-1.9L724.8,140.9L724.8,140.9z"/>
		</g>
		<g class="st8">
			<path class="st10" d="M653.9,181c-1,0-1.8-0.2-2.5-0.5s-1.4-0.8-1.9-1.6c-0.5-0.7-1-1.5-1.2-2.5c-0.2-1-0.4-2.1-0.4-3.3
				c0-1.2,0.1-2.4,0.4-3.3c0.2-1,0.7-1.8,1.2-2.5c0.5-0.7,1.2-1.2,1.9-1.6s1.6-0.5,2.5-0.5c0.3,0,0.7,0,1,0.1s0.6,0.1,0.8,0.1
				c0.2,0.1,0.5,0.1,0.8,0.2c0.3,0.1,0.5,0.2,0.8,0.4v2.1c-0.5-0.4-1-0.7-1.6-1c-0.3-0.1-0.6-0.2-0.8-0.2c-0.2-0.1-0.6-0.1-0.9-0.1
				c-0.7,0-1.2,0.1-1.8,0.4c-0.5,0.2-0.9,0.7-1.3,1.2c-0.7,1-1,2.6-1,4.7s0.3,3.6,1,4.7c0.7,1,1.7,1.6,3,1.6c0.3,0,0.6,0,0.9-0.1
				c0.3-0.1,0.6-0.1,0.8-0.2c0.5-0.2,1.1-0.5,1.6-1v2.1c-0.5,0.3-1.1,0.5-1.6,0.6c-0.2,0.1-0.5,0.1-0.8,0.2
				C654.5,181,654.2,181,653.9,181z"/>
			<path class="st10" d="M660.9,164.8h1.9v6.2c0.4-0.7,0.8-1.2,1.3-1.5s1.2-0.5,2-0.5c0.6,0,1.2,0.1,1.6,0.3
				c0.4,0.2,0.8,0.5,1.1,0.8c0.5,0.8,0.8,1.9,0.8,3.5v7.1h-1.9v-7.1c0-1-0.2-1.8-0.5-2.2c-0.4-0.5-0.9-0.7-1.7-0.7
				c-0.4,0-0.8,0.1-1.2,0.2c-0.3,0.2-0.6,0.4-0.8,0.7c-0.5,0.6-0.7,1.5-0.7,2.7v6.4h-1.9V164.8z"/>
			<path class="st10" d="M680.2,180.7c-0.5,0-1-0.1-1.5-0.2c-0.4-0.2-0.8-0.4-1.2-0.8c-0.6-0.7-0.9-1.8-0.9-3v-5.9h-2.5v-1.5h4.4
				v7.3c0,0.8,0.2,1.5,0.5,1.9c0.2,0.2,0.4,0.4,0.6,0.5c0.2,0.1,0.5,0.2,0.8,0.2h2.2v1.6H680.2z M676.8,167.2
				c-0.2,0-0.3-0.1-0.3-0.3v-1.8c0-0.2,0.1-0.3,0.3-0.3h1.5c0.2,0,0.3,0.1,0.3,0.3v1.8c0,0.2-0.1,0.3-0.3,0.3H676.8z"/>
			<path class="st10" d="M690.9,180.5c-0.4-0.2-0.8-0.4-1.2-0.8c-0.6-0.7-0.9-1.8-0.9-3v-10.4h-3v-1.5h4.9v11.8
				c0,0.8,0.2,1.5,0.5,1.9c0.2,0.2,0.4,0.4,0.6,0.5c0.2,0.1,0.5,0.2,0.8,0.2h2.2v1.6h-2.4C691.8,180.7,691.3,180.7,690.9,180.5z"/>
			<path class="st10" d="M702.3,181c-0.7,0-1.3-0.1-1.9-0.4c-0.5-0.3-1-0.7-1.4-1.2c-0.4-0.5-0.7-1.2-0.9-1.9
				c-0.2-0.7-0.3-1.6-0.3-2.5s0.1-1.8,0.3-2.5c0.2-0.7,0.5-1.4,0.9-1.9c0.4-0.5,0.9-0.9,1.5-1.2c0.5-0.2,1.2-0.4,1.8-0.4
				c0.7,0,1.3,0.1,1.8,0.4c0.5,0.3,0.9,0.7,1.2,1.3v-5.9h1.9v15.9h-1.7l-0.2-1.5c-0.2,0.2-0.3,0.5-0.5,0.7c-0.2,0.2-0.4,0.4-0.7,0.5
				C703.6,180.8,703,181,702.3,181z M702.5,179.4c0.9,0,1.6-0.4,2.1-1.2c0.5-0.7,0.7-1.8,0.7-3.3s-0.2-2.5-0.7-3.3
				c-0.2-0.4-0.5-0.6-0.8-0.8s-0.7-0.3-1.2-0.3c-0.9,0-1.6,0.4-2.1,1.1c-0.5,0.7-0.7,1.8-0.7,3.3s0.2,2.5,0.7,3.3
				c0.2,0.4,0.5,0.7,0.8,0.8C701.7,179.3,702.1,179.4,702.5,179.4z"/>
			<path class="st10" d="M711.5,165.5h9v1.8h-6.9v4.7h6.2v1.8h-6.2v7.1h-2.1V165.5z"/>
			<path class="st10" d="M728,181c-0.8,0-1.5-0.1-2.1-0.4c-0.6-0.2-1.2-0.7-1.5-1.2c-0.4-0.5-0.7-1.2-1-1.9
				c-0.2-0.7-0.3-1.6-0.3-2.5c0-1.9,0.4-3.4,1.3-4.4c0.8-1,2.1-1.5,3.6-1.5c0.8,0,1.5,0.1,2.1,0.4c0.6,0.2,1.1,0.7,1.5,1.2
				c0.8,1,1.3,2.5,1.3,4.4c0,1-0.1,1.8-0.3,2.6c-0.2,0.7-0.5,1.4-1,1.9c-0.4,0.5-0.9,0.9-1.5,1.2C729.5,180.8,728.8,181,728,181z
				 M728,179.4c1,0,1.7-0.4,2.2-1.2c0.5-0.7,0.7-1.8,0.7-3.3s-0.2-2.5-0.7-3.3c-0.5-0.7-1.2-1.1-2.2-1.1s-1.7,0.4-2.2,1.1
				c-0.5,0.7-0.7,1.8-0.7,3.3s0.2,2.5,0.7,3.3S727,179.4,728,179.4z"/>
			<path class="st10" d="M741.2,180.5c-0.4-0.2-0.8-0.4-1.2-0.8c-0.6-0.7-0.9-1.8-0.9-3v-10.4h-3v-1.5h4.9v11.8
				c0,0.8,0.2,1.5,0.5,1.9c0.2,0.2,0.4,0.4,0.6,0.5c0.2,0.1,0.5,0.2,0.8,0.2h2.2v1.6h-2.4C742.1,180.7,741.6,180.7,741.2,180.5z"/>
			<path class="st10" d="M752.5,181c-0.7,0-1.3-0.1-1.9-0.4c-0.5-0.3-1-0.7-1.4-1.2c-0.4-0.5-0.7-1.2-0.9-1.9
				c-0.2-0.7-0.3-1.6-0.3-2.5s0.1-1.8,0.3-2.5s0.5-1.4,0.9-1.9c0.4-0.5,0.9-0.9,1.5-1.2s1.2-0.4,1.8-0.4s1.3,0.1,1.8,0.4
				c0.5,0.3,0.9,0.7,1.2,1.3v-5.9h1.9v15.9h-1.7l-0.2-1.5c-0.2,0.2-0.3,0.5-0.5,0.7s-0.4,0.4-0.7,0.5
				C753.8,180.8,753.2,181,752.5,181z M752.8,179.4c0.9,0,1.6-0.4,2.1-1.2c0.5-0.7,0.7-1.8,0.7-3.3s-0.2-2.5-0.7-3.3
				c-0.2-0.4-0.5-0.6-0.8-0.8s-0.7-0.3-1.2-0.3c-0.9,0-1.6,0.4-2.1,1.1c-0.5,0.7-0.7,1.8-0.7,3.3s0.2,2.5,0.7,3.3
				c0.2,0.4,0.5,0.7,0.8,0.8C751.9,179.3,752.3,179.4,752.8,179.4z"/>
			<path class="st10" d="M766.2,181c-0.8,0-1.6-0.1-2.4-0.4c-0.7-0.2-1.3-0.7-1.8-1.2c-0.5-0.5-0.8-1.2-1.1-1.9
				c-0.2-0.7-0.4-1.6-0.4-2.5c0-1,0.1-1.8,0.4-2.5c0.2-0.7,0.6-1.3,1.1-1.9c0.5-0.5,1.1-1,1.8-1.2c0.7-0.2,1.4-0.4,2.1-0.4
				c0.8,0,1.5,0.1,2,0.4c0.5,0.2,1.1,0.6,1.5,1.1c0.4,0.5,0.7,1,0.9,1.8c0.2,0.7,0.3,1.5,0.3,2.3v0.9h-8.1v0.1c0,1.3,0.3,2.2,1,2.9
				c0.3,0.3,0.7,0.6,1.2,0.7c0.4,0.2,1,0.2,1.6,0.2c0.6,0,1.3-0.1,1.9-0.3c0.7-0.2,1.3-0.5,2.1-0.8v1.9c-0.4,0.1-0.7,0.3-1,0.4
				s-0.7,0.2-1,0.3c-0.3,0.1-0.7,0.1-1,0.2C766.9,181,766.6,181,766.2,181z M768.8,173.9c0-0.6-0.1-1.1-0.2-1.5
				c-0.1-0.4-0.3-0.7-0.5-1c-0.2-0.3-0.5-0.5-0.9-0.7s-0.8-0.2-1.2-0.2c-0.9,0-1.6,0.3-2.2,0.9c-0.6,0.6-0.9,1.5-1,2.5L768.8,173.9z
				"/>
			<path class="st10" d="M775,169.2h1.7l0.2,2.2c0.3-0.8,0.8-1.5,1.5-1.9c0.7-0.4,1.4-0.7,2.3-0.7c0.5,0,0.9,0.1,1.3,0.2
				c0.2,0.1,0.4,0.1,0.6,0.2c0.2,0.1,0.4,0.2,0.5,0.3v1.9c-0.4-0.3-0.8-0.5-1.2-0.7c-0.4-0.1-0.9-0.2-1.4-0.2
				c-1.2,0-2.1,0.4-2.7,1.1c-0.6,0.7-0.9,1.8-0.9,3.1v5.7h-1.9L775,169.2L775,169.2z"/>
			<path class="st10" d="M787.2,178.9h3.2v-11.6l-3.5,0.8v-1.9l3.5-0.7h2.1V179h3.1v1.8h-8.4V178.9z"/>
		</g>
		<g class="st8">
			<path class="st10" d="M681.8,192.3h9v1.8h-6.9v4.7h6.2v1.8h-6.2v7.1h-2.1V192.3z"/>
			<path class="st10" d="M700.7,207.5c-0.5,0-1-0.1-1.5-0.2s-0.8-0.4-1.2-0.8c-0.6-0.7-0.9-1.8-0.9-3v-5.9h-2.5v-1.5h4.4v7.3
				c0,0.8,0.2,1.5,0.5,1.9c0.2,0.2,0.4,0.4,0.6,0.5s0.5,0.2,0.8,0.2h2.2v1.6H700.7z M697.3,194c-0.2,0-0.3-0.1-0.3-0.3v-1.8
				c0-0.2,0.1-0.3,0.3-0.3h1.5c0.2,0,0.3,0.1,0.3,0.3v1.8c0,0.2-0.1,0.3-0.3,0.3H697.3z"/>
			<path class="st10" d="M711.4,207.3c-0.4-0.2-0.8-0.4-1.2-0.8c-0.6-0.7-0.9-1.8-0.9-3v-10.4h-3v-1.5h4.9v11.8
				c0,0.8,0.2,1.5,0.5,1.9c0.2,0.2,0.4,0.4,0.6,0.5c0.2,0.1,0.5,0.2,0.8,0.2h2.2v1.6H713C712.3,207.5,711.9,207.5,711.4,207.3z"/>
			<path class="st10" d="M724,207.8c-0.8,0-1.6-0.1-2.4-0.4c-0.7-0.2-1.3-0.7-1.8-1.2c-0.5-0.5-0.8-1.2-1.1-1.9s-0.4-1.6-0.4-2.5
				c0-1,0.1-1.8,0.4-2.5c0.2-0.7,0.6-1.3,1.1-1.9s1.1-1,1.8-1.2c0.7-0.2,1.4-0.4,2.1-0.4c0.8,0,1.5,0.1,2,0.4
				c0.5,0.2,1.1,0.6,1.5,1.1c0.4,0.5,0.7,1,0.9,1.8c0.2,0.7,0.3,1.5,0.3,2.3v0.9h-8.1v0.1c0,1.3,0.3,2.2,1,2.9
				c0.3,0.3,0.7,0.6,1.2,0.7c0.4,0.2,1,0.2,1.6,0.2c0.6,0,1.3-0.1,1.9-0.3c0.7-0.2,1.3-0.5,2.1-0.8v1.9c-0.4,0.1-0.7,0.3-1,0.4
				c-0.4,0.1-0.7,0.2-1,0.3c-0.3,0.1-0.7,0.1-1,0.2C724.6,207.7,724.3,207.8,724,207.8z M726.6,200.8c0-0.6-0.1-1.1-0.2-1.5
				c-0.1-0.4-0.3-0.7-0.5-1c-0.2-0.3-0.5-0.5-0.9-0.7c-0.4-0.1-0.8-0.2-1.2-0.2c-0.9,0-1.6,0.3-2.2,0.9c-0.6,0.6-0.9,1.5-1,2.5
				L726.6,200.8z"/>
		</g>
		<g class="st8">
			<path class="st10" d="M744.9,205.7h3.2v-11.6l-3.5,0.8V193l3.5-0.7h2.1v13.5h3.1v1.8h-8.4V205.7z"/>
		</g>
		<g class="st8">
			<path class="st10" d="M756.8,200.5h8.4v1.7h-8.4V200.5z"/>
		</g>
		<g class="st8">
			<path class="st10" d="M770,205.7h3.2v-11.6l-3.4,0.8V193l3.4-0.8h2.1v13.5h3.2v1.7H770V205.7z"/>
			<path class="st10" d="M786.1,207.7c-0.5,0-0.9-0.2-1.2-0.5c-0.3-0.3-0.5-0.7-0.5-1.2c0-0.5,0.2-0.9,0.5-1.2
				c0.3-0.3,0.7-0.5,1.2-0.5c0.5,0,0.9,0.2,1.2,0.5c0.3,0.3,0.5,0.7,0.5,1.2c0,0.5-0.2,0.9-0.5,1.2
				C786.9,207.6,786.5,207.7,786.1,207.7z"/>
		</g>
		<g class="st8">
			<path class="st10" d="M797.6,206.7c-0.6-0.5-0.8-1.5-0.8-2.9v-6.2h-3v-1.5h3v-3l1.9-0.8v3.8h4.2v1.5h-4.2v6.2
				c0,0.8,0.2,1.4,0.5,1.8c0.3,0.3,0.8,0.5,1.7,0.5h2.1v1.5h-2.3C799.2,207.5,798.2,207.2,797.6,206.7z"/>
			<path class="st10" d="M810.2,201.5l-4.1-5.4h2.1l3,4.1l3-4.1h2.1l-4.1,5.4l4.5,5.9h-2.2l-3.3-4.6l-3.3,4.6h-2.2L810.2,201.5z"/>
			<path class="st10" d="M822.7,206.7c-0.6-0.5-0.8-1.5-0.8-2.9v-6.2h-3v-1.5h3v-3l1.9-0.8v3.8h4.2v1.5h-4.2v6.2
				c0,0.8,0.2,1.4,0.5,1.8c0.3,0.3,0.8,0.5,1.7,0.5h2.1v1.5h-2.3C824.3,207.5,823.3,207.2,822.7,206.7z"/>
		</g>
		<g class="st8">
			<path class="st10" d="M681.8,220.5h9v1.8h-6.9v4.7h6.2v1.8h-6.2v7.1h-2.1V220.5z"/>
			<path class="st10" d="M700.7,235.9c-0.5,0-1-0.1-1.5-0.2s-0.8-0.4-1.2-0.8c-0.6-0.7-0.9-1.8-0.9-3v-5.9h-2.5v-1.5h4.4v7.3
				c0,0.8,0.2,1.5,0.5,1.9c0.2,0.2,0.4,0.4,0.6,0.5c0.2,0.1,0.5,0.2,0.8,0.2h2.2v1.6L700.7,235.9L700.7,235.9z M697.3,222.3
				c-0.2,0-0.3-0.1-0.3-0.3v-1.8c0-0.2,0.1-0.3,0.3-0.3h1.5c0.2,0,0.3,0.1,0.3,0.3v1.8c0,0.2-0.1,0.3-0.3,0.3H697.3z"/>
			<path class="st10" d="M711.4,235.6c-0.4-0.2-0.8-0.4-1.2-0.8c-0.6-0.7-0.9-1.8-0.9-3v-10.4h-3v-1.5h4.9v11.8
				c0,0.8,0.2,1.5,0.5,1.9c0.2,0.2,0.4,0.4,0.6,0.5c0.2,0.1,0.5,0.2,0.8,0.2h2.2v1.6H713C712.3,235.9,711.9,235.7,711.4,235.6z"/>
			<path class="st10" d="M724,236c-0.8,0-1.6-0.1-2.4-0.4c-0.7-0.2-1.3-0.7-1.8-1.2c-0.5-0.5-0.8-1.2-1.1-1.9s-0.4-1.6-0.4-2.5
				c0-1,0.1-1.8,0.4-2.5s0.6-1.3,1.1-1.9s1.1-1,1.8-1.2c0.7-0.2,1.4-0.4,2.1-0.4c0.8,0,1.5,0.1,2,0.4c0.5,0.2,1.1,0.6,1.5,1.1
				c0.4,0.5,0.7,1,0.9,1.8c0.2,0.7,0.3,1.5,0.3,2.3v0.9h-8.1v0.1c0,1.3,0.3,2.2,1,2.9c0.3,0.3,0.7,0.6,1.2,0.7
				c0.4,0.2,1,0.2,1.6,0.2c0.6,0,1.3-0.1,1.9-0.3c0.7-0.2,1.3-0.5,2.1-0.8v1.9c-0.4,0.1-0.7,0.3-1,0.4c-0.4,0.1-0.7,0.2-1,0.3
				c-0.3,0.1-0.7,0.1-1,0.2C724.6,236,724.3,236,724,236z M726.6,229c0-0.6-0.1-1.1-0.2-1.5c-0.1-0.4-0.3-0.7-0.5-1
				c-0.2-0.3-0.5-0.5-0.9-0.7c-0.4-0.1-0.8-0.2-1.2-0.2c-0.9,0-1.6,0.3-2.2,0.9c-0.6,0.6-0.9,1.5-1,2.5L726.6,229z"/>
		</g>
		<g class="st8">
			<path class="st10" d="M744.9,234h3.2v-11.6l-3.5,0.8v-1.9l3.5-0.7h2.1v13.5h3.1v1.8h-8.4V234z"/>
		</g>
		<g class="st8">
			<path class="st10" d="M756.8,228.8h8.4v1.7h-8.4V228.8z"/>
		</g>
		<g class="st8">
			<path class="st10" d="M768.8,234.4c0-0.1,0-0.2,0.1-0.4c0.1-0.1,0.1-0.2,0.2-0.3c0.4-0.4,0.8-0.9,1.4-1.5s1.1-1.2,1.7-1.8
				c0.4-0.4,0.6-0.7,0.8-0.9c0.2-0.2,0.4-0.4,0.5-0.5c0.1-0.1,0.2-0.3,0.3-0.4c0.1-0.1,0.2-0.2,0.2-0.3c0.2-0.2,0.4-0.4,0.5-0.6
				c0.1-0.2,0.2-0.4,0.4-0.5c0.1-0.2,0.2-0.3,0.3-0.5c0.1-0.1,0.2-0.3,0.2-0.4c0.1-0.2,0.2-0.5,0.2-0.8c0.1-0.2,0.1-0.5,0.1-0.8
				c0-0.4-0.1-0.8-0.2-1.1c-0.1-0.4-0.3-0.6-0.5-0.8c-0.5-0.5-1.2-0.7-2.1-0.7c-0.6,0-1.3,0.1-1.9,0.4c-0.7,0.2-1.4,0.5-2.2,1v-2.1
				c0.4-0.2,0.7-0.3,1-0.4c0.4-0.1,0.7-0.2,1-0.3c0.4-0.1,0.7-0.2,1-0.2c0.4-0.1,0.7-0.1,1-0.1c0.7,0,1.4,0.1,2,0.3
				c0.6,0.2,1.2,0.5,1.6,0.9c0.4,0.4,0.7,0.8,1,1.3c0.2,0.5,0.4,1.1,0.4,1.8c0,0.4-0.1,0.7-0.1,1c-0.1,0.4-0.2,0.7-0.4,1
				c-0.1,0.2-0.2,0.4-0.2,0.5c-0.1,0.2-0.2,0.3-0.3,0.5c-0.1,0.2-0.2,0.4-0.4,0.5c-0.1,0.2-0.3,0.4-0.5,0.6
				c-0.2,0.2-0.4,0.5-0.7,0.8c-0.3,0.3-0.6,0.7-1,1c-0.2,0.3-0.5,0.5-0.7,0.7c-0.2,0.2-0.4,0.5-0.7,0.7c-0.2,0.2-0.5,0.5-0.8,0.8
				s-0.7,0.7-1.2,1.2h7.1v1.8h-9.3v-1.6H768.8z"/>
			<path class="st10" d="M786.1,236c-0.5,0-0.8-0.2-1.2-0.5s-0.5-0.7-0.5-1.3s0.2-0.9,0.5-1.3c0.3-0.3,0.7-0.5,1.2-0.5
				c0.5,0,0.8,0.2,1.2,0.5c0.3,0.3,0.5,0.7,0.5,1.3s-0.2,0.9-0.5,1.3C786.9,235.9,786.5,236,786.1,236z"/>
		</g>
		<g class="st8">
			<path class="st10" d="M797.6,235c-0.6-0.5-0.8-1.5-0.8-2.9v-6.2h-3v-1.5h3v-3l1.9-0.8v3.8h4.2v1.5h-4.2v6.2
				c0,0.8,0.2,1.4,0.5,1.8c0.3,0.3,0.8,0.5,1.7,0.5h2.1v1.5h-2.3C799.2,235.8,798.2,235.5,797.6,235z"/>
			<path class="st10" d="M810.2,229.8l-4.1-5.4h2.1l3,4.1l3-4.1h2.1l-4.1,5.4l4.5,5.9h-2.2l-3.3-4.6l-3.3,4.6h-2.2L810.2,229.8z"/>
			<path class="st10" d="M822.7,235c-0.6-0.5-0.8-1.5-0.8-2.9v-6.2h-3v-1.5h3v-3l1.9-0.8v3.8h4.2v1.5h-4.2v6.2
				c0,0.8,0.2,1.4,0.5,1.8c0.3,0.3,0.8,0.5,1.7,0.5h2.1v1.5h-2.3C824.3,235.8,823.3,235.5,822.7,235z"/>
		</g>
		<polygon class="st10" points="586,172.6 580.7,172.6 580.7,161.1 579.2,161.1 579.2,187.9 579.2,212.7 579.2,216.2 579.2,241 
			579.2,243 579.2,247.4 579.2,256.3 586,256.3 586.4,256.3 599,256.3 599,254.6 586.4,254.6 586,254.6 580.7,254.6 580.7,247.4 
			580.7,243 580.7,241 580.7,216.2 580.7,212.7 580.7,187.9 580.7,174.4 586,174.4 586.4,174.4 599,174.4 599,172.6 586.4,172.6 		
			"/>
		<polygon class="st10" points="618.6,216.2 618.6,201.2 623.9,201.2 624.3,201.2 636.9,201.2 636.9,199.4 624.3,199.4 623.9,199.4 
			618.6,199.4 618.6,187.9 617,187.9 617,216.2 617,221.5 617,229.4 623.9,229.4 624.3,229.4 636.9,229.4 636.9,227.7 624.3,227.7 
			623.9,227.7 618.6,227.7 618.6,221.5 		"/>
		<g class="st8">
			<path class="st10" d="M656.7,247.4h9v1.8h-6.9v4.7h6.2v1.8h-6.2v7.1h-2.1V247.4z"/>
			<path class="st10" d="M675.6,262.7c-0.5,0-1-0.1-1.5-0.2c-0.4-0.2-0.8-0.4-1.2-0.8c-0.6-0.7-0.9-1.8-0.9-3v-5.9h-2.5v-1.5h4.4
				v7.3c0,0.8,0.2,1.5,0.5,1.9c0.2,0.2,0.4,0.4,0.6,0.5c0.2,0.1,0.5,0.2,0.8,0.2h2.2v1.6L675.6,262.7L675.6,262.7z M672.2,249.1
				c-0.2,0-0.3-0.1-0.3-0.3v-1.8c0-0.2,0.1-0.3,0.3-0.3h1.5c0.2,0,0.3,0.1,0.3,0.3v1.8c0,0.2-0.1,0.3-0.3,0.3H672.2z"/>
			<path class="st10" d="M686.3,262.4c-0.4-0.2-0.8-0.4-1.2-0.8c-0.6-0.7-0.9-1.8-0.9-3v-10.3h-3v-1.5h4.9v11.7
				c0,0.8,0.2,1.5,0.5,1.9c0.2,0.2,0.4,0.4,0.6,0.5c0.2,0.1,0.5,0.2,0.8,0.2h2.2v1.6h-2.4C687.2,262.7,686.7,262.6,686.3,262.4z"/>
			<path class="st10" d="M698.9,262.9c-0.8,0-1.6-0.1-2.4-0.4c-0.7-0.2-1.3-0.7-1.8-1.2s-0.8-1.2-1.1-1.9c-0.2-0.7-0.4-1.6-0.4-2.5
				c0-1,0.1-1.8,0.4-2.5s0.6-1.3,1.1-1.9c0.5-0.5,1.1-1,1.8-1.2s1.4-0.4,2.1-0.4c0.8,0,1.5,0.1,2,0.4c0.5,0.2,1.1,0.6,1.5,1.1
				c0.4,0.5,0.7,1,0.9,1.8c0.2,0.7,0.3,1.5,0.3,2.3v0.9h-8.1v0.1c0,1.3,0.3,2.2,1,2.9c0.3,0.3,0.7,0.6,1.2,0.7
				c0.5,0.1,1,0.2,1.6,0.2c0.6,0,1.3-0.1,1.9-0.3c0.7-0.2,1.3-0.5,2.1-0.8v1.9c-0.4,0.1-0.7,0.3-1,0.4s-0.7,0.2-1,0.3
				c-0.3,0.1-0.7,0.1-1,0.2C699.5,262.9,699.2,262.9,698.9,262.9z M701.5,255.8c0-0.6-0.1-1.1-0.2-1.5c-0.1-0.4-0.3-0.7-0.5-1
				c-0.2-0.3-0.5-0.5-0.9-0.7c-0.4-0.1-0.8-0.2-1.2-0.2c-0.9,0-1.6,0.3-2.2,0.9c-0.6,0.6-0.9,1.5-1,2.5L701.5,255.8z"/>
		</g>
		<g class="st8">
			<path class="st10" d="M723.4,262.9c-1.6,0-2.8-0.7-3.7-2c-0.8-1.3-1.3-3.3-1.3-5.9c0-2.6,0.4-4.5,1.3-5.9c0.8-1.3,2.1-2,3.7-2
				c0.8,0,1.5,0.2,2.1,0.5s1.2,0.8,1.6,1.5c0.4,0.7,0.7,1.5,0.9,2.4c0.2,1,0.3,2.1,0.3,3.5c0,1.3-0.1,2.5-0.3,3.5
				c-0.2,1-0.5,1.8-0.9,2.4C726.2,262.2,725,262.9,723.4,262.9z M723.4,261.2c0.5,0,0.9-0.1,1.3-0.4c0.4-0.2,0.7-0.7,0.9-1.2
				c0.5-1,0.7-2.6,0.7-4.7c0-2.1-0.2-3.7-0.7-4.7c-0.2-0.5-0.5-0.9-0.8-1.2c-0.3-0.2-0.8-0.4-1.3-0.4c-1,0-1.7,0.5-2.1,1.6
				c-0.2,0.5-0.4,1.2-0.5,1.9c-0.1,0.8-0.2,1.7-0.2,2.8c0,2.1,0.2,3.7,0.7,4.7c0.2,0.5,0.5,0.9,0.9,1.2
				C722.5,261.1,722.9,261.2,723.4,261.2z M723.4,258.6c-0.1,0-0.2-0.1-0.3-0.1c-0.1-0.1-0.2-0.2-0.2-0.3c-0.1-0.1-0.1-0.3-0.2-0.5
				s-0.1-0.4-0.1-0.5c-0.1-0.2-0.1-0.4-0.1-0.5c0-0.2-0.1-0.4-0.1-0.6c0-0.2-0.1-0.4-0.1-0.5c0-0.2,0-0.3,0-0.4c0-0.1,0-0.2,0-0.4
				c0-0.2,0-0.3,0.1-0.5c0-0.2,0.1-0.4,0.1-0.6c0-0.2,0.1-0.4,0.1-0.6c0.2-1,0.5-1.5,0.8-1.5c0.2,0,0.4,0.1,0.5,0.4
				c0.1,0.2,0.2,0.6,0.4,1.1c0.1,0.2,0.1,0.4,0.1,0.5c0,0.2,0.1,0.4,0.1,0.6c0,0.2,0.1,0.4,0.1,0.5c0,0.2,0,0.3,0,0.4
				c0,0.1,0,0.2,0,0.3c0,0.1,0,0.3,0,0.5s-0.1,0.4-0.1,0.6c0,0.2-0.1,0.4-0.1,0.6c-0.1,0.5-0.2,0.8-0.4,1.1
				C723.7,258.4,723.5,258.6,723.4,258.6z"/>
		</g>
		<g class="st8">
			<path class="st10" d="M731.7,255.6h8.4v1.7h-8.4V255.6z"/>
		</g>
		<g class="st8">
			<path class="st10" d="M744.9,260.9h3.2v-11.6l-3.5,0.8v-1.9l3.5-0.7h2.1v13.5h3.1v1.8h-8.4V260.9z"/>
			<path class="st10" d="M761,262.9c-0.5,0-0.8-0.2-1.2-0.5c-0.3-0.3-0.5-0.7-0.5-1.3c0-0.5,0.2-0.9,0.5-1.3
				c0.3-0.3,0.7-0.5,1.2-0.5s0.8,0.2,1.2,0.5c0.3,0.3,0.5,0.7,0.5,1.3c0,0.5-0.2,0.9-0.5,1.3C761.8,262.7,761.4,262.9,761,262.9z"/>
		</g>
		<g class="st8">
			<path class="st10" d="M772.5,261.8c-0.6-0.5-0.8-1.5-0.8-2.9v-6.2h-3v-1.5h3v-3l1.9-0.8v3.8h4.2v1.5h-4.2v6.2
				c0,0.8,0.2,1.4,0.5,1.8c0.3,0.3,0.8,0.5,1.7,0.5h2.1v1.5h-2.3C774.1,262.6,773.1,262.3,772.5,261.8z"/>
			<path class="st10" d="M785.1,256.6l-4.1-5.4h2.1l3,4.1l3-4.1h2.1l-4.1,5.4l4.5,5.9h-2.2l-3.3-4.6l-3.3,4.6h-2.2L785.1,256.6z"/>
			<path class="st10" d="M797.6,261.8c-0.6-0.5-0.8-1.5-0.8-2.9v-6.2h-3v-1.5h3v-3l1.9-0.8v3.8h4.2v1.5h-4.2v6.2
				c0,0.8,0.2,1.4,0.5,1.8c0.3,0.3,0.8,0.5,1.7,0.5h2.1v1.5h-2.3C799.2,262.6,798.2,262.3,797.6,261.8z"/>
		</g>
		<g>
			<path class="st28" d="M590.2,139.9v0.6h-15.1c-0.6,0-1.2,0.4-1.4,1l-3.7,11.1c-0.1,0.2-0.1,0.4-0.1,0.6c-0.4-0.4-0.7-0.9-0.7-1.6
				v-15c0-1.2,0.9-2.1,2.1-2.1h4.9c0.6,0,1.1,0.2,1.5,0.6l2.1,2.1c0.4,0.4,0.9,0.6,1.5,0.6h6.8C589.3,137.8,590.2,138.7,590.2,139.9
				z"/>
			<path class="st29" d="M592.7,142.4l-2.5,7.6l-1.2,3.5v0c-0.2,0.6-0.8,1-1.4,1h-16.2c-0.8,0-1.3-0.6-1.4-1.3c0-0.2,0-0.4,0.1-0.6
				l3.7-11.1c0.2-0.6,0.8-1,1.4-1h16.2C592.4,140.4,593.1,141.4,592.7,142.4z"/>
		</g>
		<g>
			<path class="st28" d="M627.7,168.2v0.6h-15.1c-0.6,0-1.2,0.4-1.4,1l-3.7,11.1c-0.1,0.2-0.1,0.4-0.1,0.6c-0.4-0.4-0.7-0.9-0.7-1.6
				v-15c0-1.2,0.9-2.1,2.1-2.1h4.9c0.6,0,1.1,0.2,1.5,0.6l2.1,2.1c0.4,0.4,0.9,0.6,1.5,0.6h6.8C626.7,166.1,627.7,167.1,627.7,168.2
				z"/>
			<path class="st29" d="M630.2,170.7l-2.5,7.6l-1.2,3.5v0c-0.2,0.6-0.8,1-1.4,1h-16.2c-0.8,0-1.3-0.6-1.4-1.3c0-0.2,0-0.4,0.1-0.6
				l3.7-11.1c0.2-0.6,0.8-1,1.4-1h16.2C629.8,168.8,630.5,169.8,630.2,170.7z"/>
		</g>
		<g>
			<path class="st30" d="M647,209.3c-0.5,0-1-0.4-1-1V191c0-0.5,0.4-1,1-1h9.8l0.2,0.1l4.1,4.1v14.1c0,0.5-0.4,1-1,1H647z"/>
			<polygon class="st31" points="660.9,194.5 660.9,194.5 656.6,194.5 656.6,190.2 			"/>
			<g>
				<line class="st32" x1="648.9" y1="197.5" x2="658.2" y2="197.5"/>
				<line class="st32" x1="648.9" y1="199.4" x2="658.2" y2="199.4"/>
				<line class="st32" x1="648.9" y1="201.4" x2="658.2" y2="201.4"/>
				<line class="st32" x1="648.9" y1="203.4" x2="654.8" y2="203.4"/>
			</g>
			<path class="st33" d="M656.6,190.4L656.6,190.4l4,4v14c0,0.3-0.3,0.6-0.6,0.6h-13c-0.3,0-0.6-0.3-0.6-0.6V191
				c0-0.3,0.3-0.6,0.6-0.6H656.6 M656.9,189.7h-0.3H647c-0.7,0-1.3,0.6-1.3,1.3v17.3c0,0.7,0.6,1.3,1.3,1.3h13
				c0.7,0,1.3-0.6,1.3-1.3v-14v-0.3l-0.2-0.2l-4-4l0,0l0,0l0,0L656.9,189.7L656.9,189.7z"/>
		</g>
		<g>
			<path class="st30" d="M647,237.6c-0.5,0-1-0.4-1-1v-17.3c0-0.5,0.4-1,1-1h9.8l0.2,0.1l4.1,4.1v14.1c0,0.5-0.4,1-1,1H647z"/>
			<polygon class="st31" points="660.9,222.8 660.9,222.8 656.6,222.8 656.6,218.5 			"/>
			<g>
				<line class="st32" x1="648.9" y1="225.8" x2="658.2" y2="225.8"/>
				<line class="st32" x1="648.9" y1="227.8" x2="658.2" y2="227.8"/>
				<line class="st32" x1="648.9" y1="229.7" x2="658.2" y2="229.7"/>
				<line class="st32" x1="648.9" y1="231.7" x2="654.8" y2="231.7"/>
			</g>
			<path class="st33" d="M656.6,218.7L656.6,218.7l4,4v14c0,0.3-0.3,0.6-0.6,0.6h-13c-0.3,0-0.6-0.3-0.6-0.6v-17.3
				c0-0.3,0.3-0.6,0.6-0.6H656.6 M656.9,218h-0.3H647c-0.7,0-1.3,0.6-1.3,1.3v17.3c0,0.7,0.6,1.3,1.3,1.3h13c0.7,0,1.3-0.6,1.3-1.3
				v-14v-0.3l-0.2-0.2l-4-4l0,0l0,0l0,0L656.9,218L656.9,218z"/>
		</g>
		<g>
			<path class="st30" d="M621.1,264.5c-0.5,0-1-0.4-1-1v-17.3c0-0.5,0.4-1,1-1h9.8l0.2,0.1l4.1,4.1v14.1c0,0.5-0.4,1-1,1H621.1z"/>
			<polygon class="st31" points="634.9,249.6 634.9,249.6 630.6,249.6 630.6,245.3 			"/>
			<g>
				<line class="st32" x1="622.9" y1="252.7" x2="632.2" y2="252.7"/>
				<line class="st32" x1="622.9" y1="254.6" x2="632.2" y2="254.6"/>
				<line class="st32" x1="622.9" y1="256.5" x2="632.2" y2="256.5"/>
				<line class="st32" x1="622.9" y1="258.6" x2="628.9" y2="258.6"/>
			</g>
			<path class="st33" d="M630.7,245.5L630.7,245.5l4,4v14c0,0.3-0.3,0.6-0.6,0.6h-13c-0.3,0-0.6-0.3-0.6-0.6v-17.3
				c0-0.3,0.3-0.6,0.6-0.6H630.7 M631,244.8h-0.3h-9.6c-0.7,0-1.3,0.6-1.3,1.3v17.3c0,0.7,0.6,1.3,1.3,1.3h13c0.7,0,1.3-0.6,1.3-1.3
				v-14v-0.3l-0.2-0.2l-4-4l0,0l0,0l0,0L631,244.8L631,244.8z"/>
		</g>
	</g>
</g>
</svg>
