<?xml version="1.0" encoding="utf-8"?>
<!-- Generator: Adobe Illustrator 25.4.1, SVG Export Plug-In . SVG Version: 6.00 Build 0)  -->
<svg version="1.1" id="Capa_1" xmlns="http://www.w3.org/2000/svg" xmlns:xlink="http://www.w3.org/1999/xlink" x="0px" y="0px"
	 viewBox="0 0 1120.5 643.8" style="enable-background:new 0 0 1120.5 643.8;" xml:space="preserve">
<style type="text/css">
	.st0{fill:#151718;}
	.st1{clip-path:url(#SVGID_00000087376097606180046550000002820106938781451912_);}
	.st2{fill:#FF5F56;}
	.st3{fill:none;stroke:#E0443E;}
	.st4{fill:#FFBD2E;}
	.st5{fill:none;stroke:#DEA123;}
	.st6{fill:#27C93F;}
	.st7{fill:none;stroke:#1AAB29;}
	.st8{fill:#FFFFFF;}
	.st9{fill:#55B5DB;}
	.st10{fill:#FF812D;}
	.st11{fill:#FFB17D;}
	.st12{fill-rule:evenodd;clip-rule:evenodd;}
	.st13{fill:#999999;}
	.st14{fill:#F2F2F2;}
	.st15{fill:#E7AAAA;}
	.st16{fill:#F8E8E8;}
	.st17{fill:#DE8A8A;}
	.st18{fill:#9D5A2B;}
	.st19{fill:#DFAC89;}
	.st20{fill:#CE804A;}
	.st21{fill:#502600;}
	.st22{enable-background:new    ;}
</style>
<g id="Capa_2_00000160907586418432806230000014452626481949479329_">
	<path class="st0" d="M44.5,0H1076c24.6,0,44.5,19.9,44.5,44.5v554.9c0,24.6-19.9,44.5-44.5,44.5H44.5C19.9,643.8,0,623.9,0,599.3
		V44.5C0,19.9,19.9,0,44.5,0z"/>
	<g>
		<g>
			<defs>
				<rect id="SVGID_1_" x="40.7" y="34" width="97.3" height="25.2"/>
			</defs>
			<clipPath id="SVGID_00000103240555224763506530000012413050687580278458_">
				<use xlink:href="#SVGID_1_"  style="overflow:visible;"/>
			</clipPath>
			<g style="clip-path:url(#SVGID_00000103240555224763506530000012413050687580278458_);">
				<path class="st2" d="M64.1,46.6c0,0.7-0.1,1.4-0.2,2.1c-0.1,0.7-0.4,1.4-0.6,2C62.8,52,62,53.2,61,54.2c-0.5,0.5-1.1,1-1.6,1.3
					c-0.6,0.4-1.2,0.7-1.9,1c-0.6,0.3-1.3,0.5-2,0.6c-1.4,0.3-2.8,0.3-4.2,0c-0.7-0.1-1.4-0.3-2-0.6c-0.7-0.3-1.3-0.6-1.9-1
					c-0.6-0.4-1.1-0.8-1.6-1.3s-1-1-1.3-1.6c-0.4-0.6-0.7-1.2-1-1.9c-0.3-0.6-0.5-1.3-0.6-2c-0.3-1.4-0.3-2.8,0-4.2
					c0.1-0.7,0.3-1.4,0.6-2c0.3-0.7,0.6-1.3,1-1.9c0.4-0.6,0.8-1.1,1.2-1.7c1-1,2.2-1.8,3.5-2.3c0.6-0.3,1.3-0.5,2-0.6
					c1.4-0.3,2.8-0.3,4.2,0c0.7,0.1,1.4,0.4,2,0.6c0.7,0.3,1.3,0.6,1.9,1c1.2,0.8,2.2,1.8,3,3c0.4,0.6,0.7,1.2,1,1.9
					c0.3,0.6,0.5,1.3,0.6,2S64.1,45.9,64.1,46.6z"/>
				<path class="st3" d="M64.1,46.6c0,0.7-0.1,1.4-0.2,2.1c-0.1,0.7-0.4,1.4-0.6,2C62.8,52,62,53.2,61,54.2c-0.5,0.5-1.1,1-1.6,1.3
					c-0.6,0.4-1.2,0.7-1.9,1c-0.6,0.3-1.3,0.5-2,0.6c-1.4,0.3-2.8,0.3-4.2,0c-0.7-0.1-1.4-0.3-2-0.6c-0.7-0.3-1.3-0.6-1.9-1
					c-0.6-0.4-1.1-0.8-1.6-1.3s-1-1-1.3-1.6c-0.4-0.6-0.7-1.2-1-1.9c-0.3-0.6-0.5-1.3-0.6-2c-0.3-1.4-0.3-2.8,0-4.2
					c0.1-0.7,0.3-1.4,0.6-2c0.3-0.7,0.6-1.3,1-1.9c0.4-0.6,0.8-1.1,1.2-1.7c1-1,2.2-1.8,3.5-2.3c0.6-0.3,1.3-0.5,2-0.6
					c1.4-0.3,2.8-0.3,4.2,0c0.7,0.1,1.4,0.4,2,0.6c0.7,0.3,1.3,0.6,1.9,1c1.2,0.8,2.2,1.8,3,3c0.4,0.6,0.7,1.2,1,1.9
					c0.3,0.6,0.5,1.3,0.6,2S64.1,45.9,64.1,46.6z"/>
				<path class="st4" d="M100.1,46.6c0,0.7-0.1,1.4-0.2,2.1c-0.1,0.7-0.3,1.4-0.6,2c-0.8,2-2.2,3.7-4,4.8c-0.6,0.4-1.2,0.7-1.9,1
					c-0.6,0.3-1.3,0.5-2,0.6c-1.4,0.3-2.8,0.3-4.2,0c-0.7-0.1-1.4-0.3-2-0.6s-1.3-0.6-1.9-1c-1.8-1.2-3.2-2.9-4-4.8
					c-0.3-0.6-0.5-1.3-0.6-2c-0.3-1.4-0.3-2.8,0-4.2c0.1-0.7,0.3-1.4,0.6-2c0.3-0.7,0.6-1.3,1-1.9c0.4-0.6,0.8-1.1,1.3-1.6
					s1-0.9,1.6-1.3c0.6-0.4,1.2-0.7,1.9-1c0.6-0.3,1.3-0.5,2-0.6c1.4-0.3,2.8-0.3,4.2,0c0.7,0.1,1.4,0.4,2,0.6
					c0.7,0.3,1.3,0.6,1.9,1s1.2,0.8,1.7,1.3s1,1.1,1.3,1.6c0.4,0.6,0.7,1.2,1,1.9c0.3,0.6,0.5,1.3,0.6,2
					C100.1,45.2,100.2,45.9,100.1,46.6z"/>
				<path class="st5" d="M100.1,46.6c0,0.7-0.1,1.4-0.2,2.1c-0.1,0.7-0.3,1.4-0.6,2c-0.8,2-2.2,3.7-4,4.8c-0.6,0.4-1.2,0.7-1.9,1
					c-0.6,0.3-1.3,0.5-2,0.6c-1.4,0.3-2.8,0.3-4.2,0c-0.7-0.1-1.4-0.3-2-0.6s-1.3-0.6-1.9-1c-1.8-1.2-3.2-2.9-4-4.8
					c-0.3-0.6-0.5-1.3-0.6-2c-0.3-1.4-0.3-2.8,0-4.2c0.1-0.7,0.3-1.4,0.6-2c0.3-0.7,0.6-1.3,1-1.9c0.4-0.6,0.8-1.1,1.3-1.6
					s1-0.9,1.6-1.3c0.6-0.4,1.2-0.7,1.9-1c0.6-0.3,1.3-0.5,2-0.6c1.4-0.3,2.8-0.3,4.2,0c0.7,0.1,1.4,0.4,2,0.6
					c0.7,0.3,1.3,0.6,1.9,1s1.2,0.8,1.7,1.3s1,1.1,1.3,1.6c0.4,0.6,0.7,1.2,1,1.9c0.3,0.6,0.5,1.3,0.6,2
					C100.1,45.2,100.2,45.9,100.1,46.6z"/>
				<path class="st6" d="M136.2,46.6c0,0.7-0.1,1.4-0.2,2.1c-0.1,0.7-0.3,1.4-0.6,2c-0.3,0.7-0.6,1.3-1,1.9
					c-0.4,0.6-0.8,1.2-1.3,1.7s-1,1-1.6,1.3c-0.6,0.4-1.2,0.7-1.9,1c-0.6,0.3-1.3,0.5-2,0.6c-1.4,0.3-2.8,0.3-4.2,0
					c-0.7-0.1-1.4-0.3-2-0.6c-0.7-0.3-1.3-0.6-1.9-1s-1.1-0.8-1.6-1.3c-1-1-1.8-2.2-2.3-3.5c-0.3-0.6-0.5-1.3-0.6-2
					c-0.3-1.4-0.3-2.8,0-4.2c0.1-0.7,0.4-1.4,0.6-2c0.3-0.7,0.6-1.3,1-1.9c0.8-1.2,1.8-2.2,3-3c0.6-0.4,1.2-0.7,1.9-1
					c0.6-0.3,1.3-0.5,2-0.6c1.4-0.3,2.8-0.3,4.2,0c0.7,0.1,1.4,0.4,2,0.6c2,0.8,3.7,2.2,4.9,4c0.4,0.6,0.7,1.2,1,1.9
					c0.3,0.6,0.5,1.3,0.6,2C136.1,45.2,136.2,45.9,136.2,46.6z"/>
				<path class="st7" d="M136.2,46.6c0,0.7-0.1,1.4-0.2,2.1c-0.1,0.7-0.3,1.4-0.6,2c-0.3,0.7-0.6,1.3-1,1.9
					c-0.4,0.6-0.8,1.2-1.3,1.7s-1,1-1.6,1.3c-0.6,0.4-1.2,0.7-1.9,1c-0.6,0.3-1.3,0.5-2,0.6c-1.4,0.3-2.8,0.3-4.2,0
					c-0.7-0.1-1.4-0.3-2-0.6c-0.7-0.3-1.3-0.6-1.9-1s-1.1-0.8-1.6-1.3c-1-1-1.8-2.2-2.3-3.5c-0.3-0.6-0.5-1.3-0.6-2
					c-0.3-1.4-0.3-2.8,0-4.2c0.1-0.7,0.4-1.4,0.6-2c0.3-0.7,0.6-1.3,1-1.9c0.8-1.2,1.8-2.2,3-3c0.6-0.4,1.2-0.7,1.9-1
					c0.6-0.3,1.3-0.5,2-0.6c1.4-0.3,2.8-0.3,4.2,0c0.7,0.1,1.4,0.4,2,0.6c2,0.8,3.7,2.2,4.9,4c0.4,0.6,0.7,1.2,1,1.9
					c0.3,0.6,0.5,1.3,0.6,2C136.1,45.2,136.2,45.9,136.2,46.6z"/>
			</g>
		</g>
	</g>
</g>
<g id="Capa_5">
	<path class="st8" d="M294.9,358.5c-3.2,0-5.8,2.6-5.8,5.8c-0.1,1.4,1,2.5,2.3,2.6c1.4,0.1,2.5-1,2.6-2.3c0-0.1,0-0.2,0-0.3
		c-0.1-0.5,0.3-0.9,0.8-1s0.9,0.3,1,0.8c0,0.1,0,0.1,0,0.2c0,1.4,1.1,2.5,2.5,2.5s2.5-1.1,2.5-2.5
		C300.8,361.1,298.1,358.5,294.9,358.5L294.9,358.5z"/>
	<circle class="st8" cx="283.6" cy="349.8" r="8.1"/>
	<circle class="st8" cx="306.2" cy="349.8" r="8.1"/>
	<path class="st8" d="M324,343.5c0-3.9-0.8-7.7-2.3-11.2c-1.5-3.4-3.6-6.6-6.2-9.2s-5.8-4.7-9.2-6.2c-3.5-1.5-7.4-2.3-11.2-2.3h-0.5
		c-3.9,0-7.7,0.8-11.2,2.3c-3.4,1.4-6.6,3.5-9.2,6.1s-4.7,5.8-6.2,9.2c-1.5,3.5-2.3,7.4-2.3,11.2v0.6c0,6.1,1.9,12.1,5.5,17
		c-1,1.2-1.6,2.8-1.6,4.5v0.1c0,3.9,3.2,7.1,7.1,7.1h2.5v7.8c0,1.4,1.1,2.5,2.4,2.5c0,0,0,0,0.1,0H308c1.4,0,2.5-1.1,2.5-2.4
		c0,0,0,0,0-0.1v-7.8h2.5c3.9,0,7.1-3.2,7.1-7.1v-0.1c0-1.6-0.6-3.2-1.6-4.5c3.6-4.9,5.5-10.9,5.5-17V343.5z M319.1,344
		c0,5.8-2.1,11.4-5.9,15.7c-0.5,0.6-0.7,1.4-0.6,2.1c0.2,0.7,0.6,1.4,1.3,1.8c0.7,0.4,1.2,1.1,1.2,1.9l0,0c0,1.2-0.9,2.1-2.1,2.1h-5
		c-1.4,0-2.5,1.1-2.5,2.4l0,0v7.8H301v-3.1c0-1.1-0.9-2-2-2s-2,0.9-2,2v3.1h-4.2v-3.1c0-1.1-0.9-2-2-2s-2,0.9-2,2v3.1h-4.5v-7.7
		c0-1.4-1.1-2.5-2.4-2.5l0,0h-5c-1.2,0-2.1-0.9-2.1-2.1v-0.1c0-0.8,0.4-1.5,1.2-1.9c1.2-0.6,1.7-2.1,1.1-3.3
		c-0.1-0.2-0.2-0.4-0.4-0.5c-3.8-4.4-5.9-10-5.9-15.7v-0.5c0-13.2,10.7-23.9,23.9-23.9l0,0h0.5c13.2,0,23.9,10.7,23.9,23.8
		c0,0,0,0,0,0.1V344L319.1,344z"/>
	<path class="st8" d="M249.9,375.9l-5.9,5.9l-36.2-30.2l36.2-30.2l5.9,6l-29.4,24.1L249.9,375.9z"/>
	<path class="st8" d="M373.8,304.8l-37,87.7h-8.9l37-87.7H373.8z"/>
	<path class="st8" d="M393.6,327.4l5.8-6l36.2,30.2l-36.2,30.2l-5.8-5.9l29.4-24.2L393.6,327.4z"/>
	<path class="st9" d="M589.8,343.2l-28.3-28.3c-2.8-3.3-7.7-3.6-11-0.8c-3.3,2.8-3.6,7.7-0.8,11c0.3,0.3,0.5,0.6,0.8,0.8l15,15
		h-44.2c-4.3-0.2-7.9,3.2-8.1,7.5c-0.2,4.3,3.2,7.9,7.5,8.1c0.2,0,0.4,0,0.6,0h44.1l-15,15c-3.3,2.8-3.6,7.7-0.8,11s7.7,3.6,11,0.8
		c0.3-0.3,0.6-0.5,0.8-0.8l28.3-28.3C592.8,351.2,592.8,346.2,589.8,343.2z"/>
	<path class="st10" d="M717.1,317.9l-5.9,5.9L675,293.6l36.2-30.2l5.9,6l-29.4,24.1L717.1,317.9z"/>
	<path class="st10" d="M841.1,246.9l-37,87.7h-8.9l37-87.7L841.1,246.9z"/>
	<path class="st10" d="M860.9,269.4l5.8-6l36.2,30.2l-36.2,30.2l-5.8-5.9l29.4-24.2L860.9,269.4z"/>
	<g id="g4224">
		<g id="g4396">
			<path id="path4398" class="st10" d="M783.4,265.7c8.4,0,15.3,6.9,15.2,15.3c0,5.1-2.6,9.8-6.8,12.7c0,0.6,0.1,1.2,0.1,1.8
				c0.3,16.5-12.8,30-29.2,30.3c-16.5,0.3-30-12.8-30.3-29.2c0-0.4,0-0.7,0-1.1c0-0.6,0-1.2,0.1-1.8c-7-4.7-8.9-14.2-4.3-21.2
				c2.8-4.3,7.6-6.8,12.7-6.8l0,0c3.1,0,6.2,1,8.8,2.8c7.9-3.7,17.1-3.7,25,0C777.2,266.6,780.3,265.7,783.4,265.7z"/>
			<path id="path4400" class="st11" d="M784.1,268.6c6.7,0,12.1,5.4,12.1,12.1c0,4.1-2,7.8-5.4,10.1c-0.5-8.7-5.7-16.4-13.6-20
				C779.2,269.4,781.6,268.6,784.1,268.6z"/>
			<path id="path4402" class="st11" d="M740,268.6c-6.7,0-12.1,5.4-12.1,12.1c0,4.1,2,7.8,5.4,10.1c0.5-8.7,5.7-16.3,13.6-20
				C745,269.4,742.5,268.6,740,268.6z"/>
		</g>
		<path id="path4431" class="st12" d="M760.6,265.7l0.2,4.2l-11.3,0.9l0,0l11.4,0.7l0.1,2.7l-14,1l0,0l14.1,0.8l0.1,2.8l-19.1,1.3
			l0,0l19.3,0.5L762,295v0.1l0.6-14.5l19.3-0.5l0,0l-19.1-1.3l0.1-2.8l14.1-0.8l0,0l-14-1l0.1-2.7l11.4-0.7l0,0l-11.2-0.9l0.2-4.2
			H760.6z"/>
		<path id="path4283" d="M762.1,307.5l-4.5-4.2l-4.4-4.2c5.5-3.1,12.2-3.1,17.8,0l-4.4,4.2L762.1,307.5z"/>
	</g>
	<path class="st13" d="M717.1,433.9l-5.9,5.9L675,409.6l36.2-30.2l5.9,6l-29.4,24.1L717.1,433.9z"/>
	<path class="st13" d="M841.1,362.8l-37,87.7h-8.9l37-87.7H841.1z"/>
	<path class="st13" d="M860.9,385.3l5.8-6l36.2,30.2l-36.2,30.2l-5.8-5.9l29.4-24.2L860.9,385.3z"/>
	<g id="g4218">
		<path id="path4196" class="st14" d="M783.4,380.6c8.4,0,15.3,6.9,15.2,15.3c0,5.1-2.6,9.8-6.8,12.7c0,0.6,0.1,1.2,0.1,1.8
			c0,9.2,15.7,29.8-29.8,29.8s-29.8-20.6-29.8-29.8c0-0.6,0-1.2,0.1-1.8c-7.1-4.6-9-14.1-4.4-21.2s14.1-9,21.2-4.4
			c0.2,0.1,0.3,0.2,0.5,0.3c7.9-3.7,17.1-3.7,25,0C777.2,381.5,780.3,380.5,783.4,380.6L783.4,380.6z"/>
		<path id="path4198" class="st13" d="M784.1,383.5c6.7,0,12.1,5.4,12.1,12.1c0,4.1-2,7.8-5.4,10.1c-0.5-8.7-5.7-16.4-13.6-20
			C779.2,384.3,781.6,383.5,784.1,383.5z"/>
		<path id="path4200" class="st13" d="M740,383.5c-6.7,0-12.1,5.4-12.1,12.1c0,4.1,2,7.8,5.4,10.1c0.5-8.7,5.7-16.3,13.6-20
			C745,384.2,742.5,383.5,740,383.5L740,383.5z"/>
		<path id="path4212" d="M762.1,422.4l-4.5-4.2l-4.4-4.2c5.5-3.1,12.2-3.1,17.8,0l-4.4,4.2L762.1,422.4z"/>
	</g>
	<path class="st15" d="M717.1,549.8l-5.9,5.9L675,525.5l36.2-30.2l5.9,6l-29.4,24.1L717.1,549.8z"/>
	<path class="st15" d="M841.1,478.7l-37,87.7h-8.9l37-87.7H841.1z"/>
	<path class="st15" d="M860.9,501.3l5.8-6l36.2,30.2l-36.2,30.2l-5.8-5.9l29.4-24.2L860.9,501.3z"/>
	<g id="g4362">
		<path id="path4165" class="st15" d="M723.8,501.2l4.2,7.2c-4.4,7-2.4,16.3,4.5,20.8c0,0.6-0.1,1.2-0.1,1.8
			c0,16.5,13.3,29.8,29.8,29.8l0,0c16.5,0,29.8-13.4,29.8-29.8l0,0l0,0c0-0.6,0-1.2-0.1-1.8c6.9-4.6,8.9-13.8,4.5-20.9l4.2-7.2
			h-17.1c-3.1,0-6.2,1-8.8,2.8c-7.9-3.7-17.1-3.7-25,0c-2.6-1.8-5.6-2.8-8.8-2.8L723.8,501.2L723.8,501.2z"/>
		<path id="path4167" class="st16" d="M784.1,504.2c6.7,0,12.1,5.4,12.1,12.1c0,4.1-2,7.8-5.4,10.1c-0.5-8.7-5.7-16.4-13.6-20
			C779.2,504.9,781.6,504.2,784.1,504.2z"/>
		<path id="path4169" class="st16" d="M740,504.2c-6.7,0-12.1,5.4-12.1,12.1c0,4.1,2,7.8,5.4,10.1c0.5-8.7,5.7-16.3,13.6-20
			C745,504.9,742.5,504.2,740,504.2z"/>
		<path id="path4171" class="st17" d="M777,540c0,5.1-6.6,9.2-14.8,9.2l0,0c-8.2,0-14.8-4.1-14.8-9.2l0,0c0-5.1,6.7-9.2,14.8-9.2
			l0,0C770.4,530.8,777,534.9,777,540z"/>
		<path id="path4173" class="st16" d="M759.7,540c0,2.5-2,4.6-4.6,4.6c-2.5,0-4.6-2-4.6-4.6c0-2.5,2-4.6,4.6-4.6l0,0
			C757.7,535.4,759.7,537.5,759.7,540L759.7,540z"/>
		<path id="circle4185" class="st16" d="M773.7,540c0,2.5-2,4.6-4.6,4.6l0,0c-2.5,0-4.6-2-4.6-4.5l0,0l0,0c0-2.5,2-4.6,4.5-4.6l0,0
			l0,0C771.6,535.4,773.7,537.5,773.7,540L773.7,540z"/>
	</g>
	<path class="st18" d="M717.1,202l-5.9,5.9L675,177.7l36.2-30.2l5.9,6l-29.3,24.1L717.1,202z"/>
	<path class="st18" d="M841.1,131l-37,87.7h-8.9l37-87.7H841.1z"/>
	<path class="st18" d="M860.9,153.5l5.8-6l36.2,30.2l-36.2,30.2l-5.8-5.9l29.4-24.2L860.9,153.5z"/>
	<g id="g4185">
		<g id="g4159">
			<path id="path4161" class="st19" d="M783.2,150.2c8.4,0,15.2,6.8,15.2,15.2c0,5.1-2.6,9.8-6.8,12.7c0,0.6,0.1,1.2,0.1,1.7
				c0,16.3-2.3,29.6-29.6,29.6s-29.6-13.2-29.6-29.6c0-0.6,0-1.2,0.1-1.8c-7-4.6-8.9-14.1-4.2-21c4.6-7,14.1-8.9,21-4.2
				c0.1,0.1,0.2,0.1,0.3,0.2c7.9-3.7,17-3.7,24.8,0C777.1,151.1,780.1,150.2,783.2,150.2z"/>
			<path id="path4163" class="st20" d="M783.9,153.1c6.6,0,12,5.4,12,12c0,4-2,7.8-5.4,10c-0.5-8.6-5.7-16.2-13.5-19.8
				C779,153.8,781.4,153.1,783.9,153.1z"/>
			<path id="path4166" class="st20" d="M740.2,153.1c-6.6,0-12,5.4-12,12c0,4,2,7.8,5.4,10c0.5-8.6,5.7-16.2,13.5-19.8
				C745.1,153.8,742.6,153.1,740.2,153.1z"/>
			<path id="path4168" class="st21" d="M762.1,190.3l-4.4-4.1l-4.4-2.7c5.5-3.1,12.2-3.1,17.6,0l-4.4,2.7L762.1,190.3z"/>
		</g>
		<path id="path4177" class="st18" d="M742.6,149.8c-3.7,0-7.3,1.1-10.3,3.1c-10.5,7.4-9.8,20.7,0.3,25.1l1.7-6.6
			c2.7-0.6,5.3-1.7,7.7-3.2c6.9-4.4,10.3-11.2,7.7-15.3C748.4,150.9,745.7,149.8,742.6,149.8z"/>
		<path id="path4183" class="st18" d="M781.7,149.8c3.7,0,7.3,1.1,10.3,3.1c10.5,7.4,9.8,20.7-0.3,25.1l-1.7-6.6
			c-2.7-0.6-5.3-1.7-7.7-3.2c-6.9-4.4-10.3-11.2-7.8-15.3C775.9,150.9,778.5,149.8,781.7,149.8L781.7,149.8z"/>
	</g>
	<g class="st22">
		<path class="st8" d="M410.4,65.4c-0.5,0-0.9,0-1.4-0.1c-0.5,0-1-0.1-1.5-0.2s-1-0.2-1.5-0.3c-0.5-0.1-1-0.3-1.5-0.4v-3.3
			c0.6,0.3,1.2,0.5,1.7,0.7s1.1,0.4,1.5,0.5c0.9,0.3,1.9,0.4,2.7,0.4c0.9,0,1.7-0.1,2.3-0.4c0.6-0.2,1.2-0.6,1.6-1.1
			c0.8-1,1.2-2.5,1.2-4.6v-2.4c-0.5,1.1-1.2,2-2.2,2.5c-0.9,0.6-2,0.8-3.3,0.8c-2.4,0-4.3-0.9-5.7-2.8s-2.1-4.4-2.1-7.6
			c0-3.2,0.7-5.7,2.1-7.6c0.7-1,1.5-1.7,2.5-2.1c0.9-0.5,2-0.7,3.2-0.7c0.6,0,1.2,0.1,1.8,0.2s1.1,0.3,1.5,0.6
			c0.9,0.5,1.7,1.3,2.2,2.4l0.3-2.6h3v18.9c0,3-0.7,5.3-2.2,6.9C415.3,64.6,413.2,65.4,410.4,65.4z M410.7,54.8c1.6,0,2.8-0.7,3.6-2
			c0.8-1.3,1.2-3.2,1.2-5.7s-0.4-4.4-1.2-5.7c-0.4-0.7-0.9-1.2-1.5-1.5s-1.3-0.5-2-0.5c-1.6,0-2.9,0.6-3.7,1.9
			c-0.9,1.3-1.3,3.2-1.3,5.7s0.4,4.4,1.3,5.7C407.9,54.2,409.1,54.8,410.7,54.8z"/>
		<path class="st8" d="M434,58c-1.6,0-3-0.2-4.2-0.7s-2.3-1.2-3.2-2.1c-0.9-0.9-1.5-2-2-3.4S424,49,424,47.3s0.2-3.2,0.7-4.5
			s1.1-2.4,1.9-3.3c0.9-1,1.9-1.7,3.1-2.2s2.5-0.7,3.8-0.7c1.4,0,2.5,0.2,3.6,0.7c1,0.4,1.9,1.1,2.6,1.9c0.7,0.8,1.3,1.9,1.7,3.1
			c0.4,1.2,0.6,2.6,0.6,4.1V48h-14.4v0.1c0,2.2,0.6,3.9,1.7,5.1c0.6,0.6,1.2,1,2,1.3s1.7,0.5,2.8,0.5c1.1,0,2.2-0.2,3.3-0.5
			c1.2-0.3,2.4-0.9,3.7-1.5v3.3c-0.6,0.3-1.3,0.5-1.9,0.7s-1.2,0.4-1.8,0.5c-0.6,0.1-1.2,0.2-1.7,0.3C435.2,57.9,434.6,58,434,58z
			 M438.6,45.5c0-1-0.2-1.9-0.4-2.7c-0.2-0.7-0.6-1.3-1-1.8s-1-0.9-1.6-1.1c-0.6-0.3-1.4-0.4-2.2-0.4c-1.6,0-3,0.5-4,1.6
			s-1.7,2.5-1.8,4.4H438.6z"/>
		<path class="st8" d="M447.6,37.2h3l0.3,3c0.6-1.2,1.4-2,2.4-2.6s2.2-0.9,3.6-0.9c1.1,0,2,0.2,2.8,0.5s1.4,0.9,1.9,1.5
			c1,1.4,1.5,3.4,1.5,6.2v12.6h-3.3V44.9c0-1.8-0.3-3.2-1-4c-0.6-0.9-1.6-1.3-3-1.3c-0.8,0-1.5,0.1-2.1,0.4s-1.1,0.7-1.5,1.2
			c-0.8,1.1-1.3,2.7-1.3,4.8v11.5h-3.3V37.2z"/>
		<path class="st8" d="M478.6,58c-1.6,0-3-0.2-4.2-0.7s-2.3-1.2-3.2-2.1c-0.9-0.9-1.5-2-2-3.4s-0.7-2.8-0.7-4.4
			c0-1.7,0.2-3.2,0.7-4.5s1.1-2.4,1.9-3.3c0.9-1,1.9-1.7,3.1-2.2s2.5-0.7,3.8-0.7c1.4,0,2.5,0.2,3.6,0.7c1,0.4,1.9,1.1,2.6,1.9
			c0.7,0.8,1.3,1.9,1.7,3.1c0.4,1.2,0.6,2.6,0.6,4.1v1.6h-14.4v0.1c0,2.2,0.6,3.9,1.7,5.1c0.6,0.6,1.2,1,2,1.3s1.7,0.5,2.8,0.5
			c1.1,0,2.2-0.2,3.3-0.5c1.2-0.3,2.4-0.9,3.7-1.5v3.3c-0.6,0.3-1.3,0.5-1.9,0.7s-1.2,0.4-1.8,0.5c-0.6,0.1-1.2,0.2-1.7,0.3
			C479.8,57.9,479.2,58,478.6,58z M483.2,45.5c0-1-0.2-1.9-0.4-2.7c-0.2-0.7-0.6-1.3-1-1.8s-1-0.9-1.6-1.1c-0.6-0.3-1.4-0.4-2.2-0.4
			c-1.6,0-3,0.5-4,1.6s-1.7,2.5-1.8,4.4H483.2z"/>
		<path class="st8" d="M494.2,37.2h3l0.3,4c0.6-1.4,1.4-2.5,2.6-3.3c1.1-0.8,2.5-1.1,4.1-1.1c0.8,0,1.6,0.1,2.3,0.3
			c0.3,0.1,0.7,0.2,1,0.4c0.4,0.2,0.7,0.4,1,0.6v3.4c-0.7-0.6-1.4-1-2.2-1.2c-0.7-0.3-1.6-0.4-2.4-0.4c-2.1,0-3.6,0.7-4.7,2
			s-1.6,3.2-1.6,5.6v10.1h-3.3L494.2,37.2L494.2,37.2z"/>
		<path class="st8" d="M520.3,58c-2.1,0-3.8-0.6-5-1.8c-0.6-0.6-1-1.2-1.4-2c-0.3-0.8-0.5-1.7-0.5-2.7c0-2.2,0.8-3.9,2.3-5.1
			c1.5-1.2,3.7-1.8,6.7-1.8h4.5v-0.5c0-0.8-0.1-1.5-0.3-2.1s-0.5-1.1-0.9-1.5s-0.9-0.6-1.6-0.8c-0.7-0.2-1.4-0.3-2.3-0.3
			c-1.1,0-2.3,0.2-3.5,0.5s-2.3,0.8-3.4,1.4V38c0.5-0.2,1.1-0.4,1.7-0.6c0.6-0.2,1.2-0.4,1.9-0.5c1.1-0.2,2.2-0.3,3.3-0.3
			c0.9,0,1.6,0.1,2.3,0.2c0.7,0.1,1.4,0.3,2,0.6c0.6,0.2,1.1,0.5,1.6,0.9s0.9,0.8,1.3,1.3c0.3,0.4,0.5,0.7,0.6,1.1
			c0.2,0.4,0.3,0.8,0.4,1.1c0.2,0.9,0.3,2.2,0.3,4V50c0,0.7,0,1.3,0.1,1.8c0,0.5,0,1,0.1,1.5s0.1,1,0.2,1.4c0.1,0.4,0.1,0.8,0.2,1
			c0.1,0.4,0.2,0.7,0.3,1.1s0.2,0.5,0.2,0.6H528c-0.1-0.1-0.1-0.4-0.2-0.6c-0.1-0.3-0.2-0.6-0.3-0.9c-0.1-0.3-0.1-0.5-0.2-0.8
			c-0.1-0.3-0.1-0.5-0.1-0.7c-0.4,0.6-0.8,1.1-1.3,1.6s-1.1,0.8-1.6,1.1c-0.6,0.3-1.2,0.5-1.8,0.7S521,58,520.3,58z M521,55.2
			c1.8,0,3.3-0.6,4.3-1.9c1.1-1.3,1.6-3.1,1.6-5.3v-0.7h-4.2c-1.9,0-3.4,0.3-4.4,1c-0.5,0.4-0.9,0.8-1.1,1.3
			c-0.2,0.5-0.4,1.1-0.4,1.8c0,0.6,0.1,1.2,0.3,1.6c0.2,0.5,0.5,0.9,0.8,1.2s0.8,0.6,1.3,0.7C519.7,55.1,520.3,55.2,521,55.2z"/>
		<path class="st8" d="M542.6,56c-1-1-1.5-2.7-1.5-5.2v-11h-5.4v-2.6h5.4v-5.3l3.3-1.4v6.7h7.6v2.6h-7.6v11.1c0,1.5,0.3,2.5,0.9,3.1
			c0.6,0.6,1.5,0.9,3,0.9h3.7v2.7h-4.1C545.4,57.5,543.7,57,542.6,56z"/>
		<path class="st8" d="M567.9,58c-1.6,0-3-0.2-4.2-0.7s-2.3-1.2-3.2-2.1s-1.5-2-2-3.4s-0.7-2.8-0.7-4.4c0-1.7,0.2-3.2,0.7-4.5
			s1.1-2.4,1.9-3.3c0.9-1,1.9-1.7,3.1-2.2c1.2-0.5,2.5-0.7,3.8-0.7c1.4,0,2.5,0.2,3.6,0.7s1.9,1.1,2.6,1.9c0.7,0.8,1.3,1.9,1.7,3.1
			c0.4,1.2,0.6,2.6,0.6,4.1v1.6h-14.4v0.1c0,2.2,0.6,3.9,1.7,5.1c0.6,0.6,1.2,1,2,1.3s1.7,0.5,2.8,0.5s2.2-0.2,3.3-0.5
			c1.2-0.3,2.4-0.9,3.7-1.5v3.3c-0.6,0.3-1.3,0.5-1.9,0.7c-0.6,0.2-1.2,0.4-1.8,0.5s-1.2,0.2-1.7,0.3C569,57.9,568.4,58,567.9,58z
			 M572.4,45.5c0-1-0.2-1.9-0.4-2.7c-0.2-0.7-0.6-1.3-1-1.8s-1-0.9-1.6-1.1c-0.6-0.3-1.4-0.4-2.2-0.4c-1.6,0-3,0.5-4,1.6
			s-1.7,2.5-1.8,4.4H572.4z"/>
		<path class="st8" d="M582.2,30.4h15.9v3.1h-12.2v8.3H597v3.1h-11.1v12.5h-3.7V30.4z"/>
		<path class="st8" d="M605.7,37.2h3l0.3,4c0.6-1.4,1.4-2.5,2.6-3.3c1.1-0.8,2.5-1.1,4.1-1.1c0.8,0,1.6,0.1,2.3,0.3
			c0.3,0.1,0.7,0.2,1,0.4c0.4,0.2,0.7,0.4,1,0.6v3.4c-0.7-0.6-1.4-1-2.2-1.2c-0.7-0.3-1.6-0.4-2.4-0.4c-2.1,0-3.6,0.7-4.7,2
			c-1.1,1.3-1.6,3.2-1.6,5.6v10.1h-3.3L605.7,37.2L605.7,37.2z"/>
		<path class="st8" d="M633.7,58c-1.4,0-2.6-0.2-3.7-0.7c-1.1-0.5-2-1.1-2.7-2c-0.8-0.9-1.3-2.1-1.7-3.4c-0.4-1.3-0.5-2.8-0.5-4.5
			c0-3.4,0.7-6.1,2.2-7.9c1.5-1.8,3.6-2.7,6.4-2.7c1.4,0,2.7,0.2,3.8,0.7s2,1.1,2.7,2c1.5,1.8,2.2,4.5,2.2,7.9
			c0,1.7-0.2,3.3-0.6,4.6c-0.4,1.3-0.9,2.5-1.7,3.4c-0.7,0.9-1.6,1.6-2.7,2S635.1,58,633.7,58z M633.7,55.1c1.7,0,3-0.7,3.9-2
			s1.3-3.3,1.3-5.8s-0.4-4.5-1.3-5.8c-0.9-1.3-2.2-2-3.9-2s-3,0.7-3.8,2c-0.9,1.3-1.3,3.3-1.3,5.8s0.4,4.5,1.3,5.8
			C630.7,54.5,632,55.1,633.7,55.1z"/>
		<path class="st8" d="M646.8,37.2h2.7l0.3,1.7c0.4-0.7,0.9-1.3,1.5-1.7s1.3-0.6,2-0.6c0.9,0,1.7,0.2,2.3,0.6c0.6,0.4,1.1,1,1.4,1.9
			c0.4-0.9,0.9-1.5,1.6-1.9c0.6-0.4,1.4-0.6,2.3-0.6c0.8,0,1.5,0.2,2.1,0.5s1,0.8,1.3,1.4c0.7,1.3,1,3.6,1,7.1v11.7h-3V45.8
			c0-0.8,0-1.4,0-2s0-1.1-0.1-1.5c0-0.4-0.1-0.8-0.2-1.1c-0.1-0.3-0.1-0.5-0.2-0.7c-0.1-0.3-0.3-0.6-0.6-0.8s-0.7-0.3-1.2-0.3
			s-0.8,0.1-1.2,0.3c-0.3,0.2-0.6,0.5-0.7,0.8c-0.2,0.4-0.3,1-0.4,1.9s-0.1,2-0.1,3.4v11.6h-3V45.8c0-0.9,0-1.6,0-2.2
			s-0.1-1.1-0.1-1.5s-0.1-0.7-0.2-1s-0.1-0.4-0.2-0.6c-0.2-0.3-0.4-0.6-0.7-0.7c-0.3-0.2-0.7-0.3-1.1-0.3c-0.5,0-0.9,0.1-1.2,0.3
			s-0.5,0.5-0.6,0.8c-0.1,0.2-0.2,0.4-0.2,0.7c-0.1,0.3-0.1,0.6-0.2,1s-0.1,0.9-0.1,1.5s0,1.3,0,2.1v11.6h-3V37.2H646.8z"/>
		<path class="st8" d="M671.4,30.4h15.9v3.1h-12.2v8.3h11.1v3.1h-11.1v12.5h-3.7V30.4z"/>
		<path class="st8" d="M700.6,58c-1.4,0-2.6-0.2-3.7-0.7c-1.1-0.5-2-1.1-2.7-2c-0.8-0.9-1.3-2.1-1.7-3.4c-0.4-1.3-0.5-2.8-0.5-4.5
			c0-3.4,0.7-6.1,2.2-7.9c1.5-1.8,3.6-2.7,6.4-2.7c1.4,0,2.7,0.2,3.8,0.7s2,1.1,2.7,2c1.5,1.8,2.2,4.5,2.2,7.9
			c0,1.7-0.2,3.3-0.6,4.6c-0.4,1.3-0.9,2.5-1.7,3.4c-0.7,0.9-1.6,1.6-2.7,2C703.3,57.7,702,58,700.6,58z M700.6,55.1
			c1.7,0,3-0.7,3.9-2s1.3-3.3,1.3-5.8s-0.4-4.5-1.3-5.8c-0.9-1.3-2.2-2-3.9-2s-3,0.7-3.8,2c-0.9,1.3-1.3,3.3-1.3,5.8
			s0.4,4.5,1.3,5.8C697.7,54.5,698.9,55.1,700.6,55.1z"/>
		<path class="st8" d="M724,57.1c-0.8-0.3-1.4-0.8-2-1.5c-1.1-1.3-1.6-3.1-1.6-5.4V31.9H715v-2.6h8.7v21c0,1.5,0.3,2.6,0.8,3.4
			c0.3,0.4,0.6,0.7,1,0.9s0.9,0.3,1.4,0.3h3.9v2.8h-4.2C725.7,57.6,724.8,57.4,724,57.1z"/>
		<path class="st8" d="M744.2,58c-1.3,0-2.4-0.3-3.4-0.8s-1.8-1.2-2.4-2.1c-0.7-1-1.2-2.1-1.6-3.4s-0.5-2.8-0.5-4.4
			c0-1.6,0.2-3.1,0.5-4.4c0.3-1.3,0.9-2.5,1.6-3.4c0.7-0.9,1.6-1.6,2.6-2.1s2.1-0.7,3.2-0.7c1.2,0,2.3,0.3,3.2,0.8s1.7,1.3,2.2,2.3
			V29.3h3.3v28.2h-3l-0.3-2.6c-0.3,0.5-0.6,0.9-0.9,1.3s-0.8,0.7-1.3,1C746.5,57.7,745.4,58,744.2,58z M744.7,55.1
			c1.6,0,2.9-0.7,3.7-2s1.2-3.3,1.2-5.8s-0.4-4.5-1.2-5.8c-0.4-0.6-0.9-1.1-1.5-1.4s-1.3-0.5-2.2-0.5c-1.6,0-2.8,0.7-3.6,2
			s-1.2,3.3-1.2,5.8s0.4,4.5,1.2,5.8c0.4,0.7,0.9,1.2,1.6,1.5C743.2,55,743.9,55.1,744.7,55.1z"/>
		<path class="st8" d="M768.6,58c-1.6,0-3-0.2-4.2-0.7s-2.3-1.2-3.2-2.1c-0.9-0.9-1.5-2-2-3.4s-0.7-2.8-0.7-4.4
			c0-1.7,0.2-3.2,0.7-4.5s1.1-2.4,1.9-3.3c0.9-1,1.9-1.7,3.1-2.2c1.2-0.5,2.5-0.7,3.8-0.7c1.4,0,2.5,0.2,3.6,0.7
			c1,0.4,1.9,1.1,2.6,1.9c0.7,0.8,1.3,1.9,1.7,3.1c0.4,1.2,0.6,2.6,0.6,4.1v1.6h-14.4v0.1c0,2.2,0.6,3.9,1.7,5.1
			c0.6,0.6,1.2,1,2,1.3s1.7,0.5,2.8,0.5s2.2-0.2,3.3-0.5c1.2-0.3,2.4-0.9,3.7-1.5v3.3c-0.6,0.3-1.3,0.5-1.9,0.7
			c-0.6,0.2-1.2,0.4-1.8,0.5s-1.2,0.2-1.7,0.3C769.8,57.9,769.2,58,768.6,58z M773.2,45.5c0-1-0.2-1.9-0.4-2.7
			c-0.2-0.7-0.6-1.3-1-1.8s-1-0.9-1.6-1.1c-0.6-0.3-1.4-0.4-2.2-0.4c-1.6,0-3,0.5-4,1.6s-1.7,2.5-1.8,4.4H773.2z"/>
		<path class="st8" d="M784.2,37.2h3l0.3,4c0.6-1.4,1.4-2.5,2.6-3.3c1.1-0.8,2.5-1.1,4.1-1.1c0.8,0,1.6,0.1,2.3,0.3
			c0.3,0.1,0.7,0.2,1,0.4c0.4,0.2,0.7,0.4,1,0.6v3.4c-0.7-0.6-1.4-1-2.2-1.2c-0.7-0.3-1.6-0.4-2.4-0.4c-2.1,0-3.6,0.7-4.7,2
			c-1.1,1.3-1.6,3.2-1.6,5.6v10.1h-3.3L784.2,37.2L784.2,37.2z"/>
	</g>
</g>
</svg>
