<?xml version="1.0" encoding="utf-8"?>
<!-- Generator: Adobe Illustrator 25.4.1, SVG Export Plug-In . SVG Version: 6.00 Build 0)  -->
<svg version="1.1" id="Capa_1" xmlns="http://www.w3.org/2000/svg" xmlns:xlink="http://www.w3.org/1999/xlink" x="0px" y="0px"
	 viewBox="0 0 24 24" style="enable-background:new 0 0 24 24;" xml:space="preserve">
<style type="text/css">
	.st0{fill:#0288D1;}
	.st1{fill:#FFFFFF;}
</style>
<path class="st0" d="M10,4H4C2.9,4,2,4.9,2,6v12c0,1.1,0.9,2,2,2h16c1.1,0,2-0.9,2-2V8c0-1.1-0.9-2-2-2h-8L10,4z"/>
<g>
	<g>
		<path class="st1" d="M13.2,18.1c-0.6,0-1,0.5-1,1c0,0.2,0.2,0.5,0.5,0.5c0.2,0,0.5-0.2,0.5-0.5c0-0.1,0.1-0.1,0.1-0.1
			c0.1,0,0.1,0.1,0.1,0.1c0,0.2,0.2,0.5,0.5,0.5c0.2,0,0.5-0.2,0.5-0.5C14.3,18.6,13.8,18.1,13.2,18.1z"/>
		<ellipse class="st1" cx="11.4" cy="16.6" rx="1.4" ry="1.4"/>
		<ellipse class="st1" cx="15.2" cy="16.6" rx="1.4" ry="1.4"/>
		<path class="st1" d="M18.2,15.5c0-0.7-0.1-1.3-0.3-1.9c-0.2-0.6-0.6-1-1-1.5c-0.5-0.5-0.9-0.8-1.5-1c-0.6-0.2-1.3-0.3-1.9-0.3
			h-0.1c-0.7,0-1.3,0.1-1.9,0.3c-0.6,0.2-1,0.6-1.5,1c-0.5,0.5-0.8,0.9-1,1.5c-0.2,0.6-0.3,1.3-0.3,1.9v0.1c0,1,0.3,2.1,0.9,2.9
			c-0.1,0.2-0.2,0.5-0.2,0.8l0,0c0,0.7,0.6,1.2,1.2,1.2h0.1v1.3c0,0.2,0.2,0.5,0.5,0.5h4.4c0.2,0,0.5-0.2,0.5-0.5v-1.4h0.5
			c0.7,0,1.2-0.6,1.2-1.2l0,0c0-0.2-0.1-0.6-0.2-0.8C17.9,17.6,18.2,16.6,18.2,15.5L18.2,15.5z M17.4,15.5c0,0.9-0.3,2-1,2.7
			c-0.1,0.1-0.1,0.2-0.1,0.3s0.1,0.2,0.2,0.3c0.1,0.1,0.2,0.2,0.2,0.3l0,0c0,0.2-0.1,0.3-0.3,0.3h-0.8c-0.2,0-0.5,0.2-0.5,0.5v1.3
			h-0.8v-0.6c0-0.2-0.1-0.3-0.3-0.3c-0.2,0-0.3,0.1-0.3,0.3v0.6h-0.7v-0.6c0-0.2-0.1-0.3-0.3-0.3c-0.2,0-0.3,0.1-0.3,0.3v0.6h-0.8
			v-1.3c0-0.2-0.2-0.5-0.5-0.5h-0.8c-0.2,0-0.3-0.1-0.3-0.3l0,0c0-0.1,0.1-0.2,0.2-0.3c0.1-0.1,0.2-0.1,0.2-0.3c0-0.1,0-0.2-0.1-0.3
			c-0.7-0.7-1-1.6-1-2.7v-0.1c0-1,0.5-2.1,1.2-2.9c0.8-0.8,1.7-1.2,2.9-1.2h0.1c1,0,2.1,0.5,2.9,1.2C17,13.3,17.3,14.4,17.4,15.5
			L17.4,15.5C17.3,15.5,17.4,15.5,17.4,15.5z"/>
	</g>
</g>
</svg>
